<?xml version="1.0" encoding="UTF-8" standalone="no"?>
<svg
   width="512"
   height="512"
   viewBox="0 0 512 512"
   version="1.1"
   id="svg835"
   sodipodi:docname="arg.svg"
   inkscape:version="1.1.1 (c3084ef, 2021-09-22)"
   xmlns:inkscape="http://www.inkscape.org/namespaces/inkscape"
   xmlns:sodipodi="http://sodipodi.sourceforge.net/DTD/sodipodi-0.dtd"
   xmlns="http://www.w3.org/2000/svg"
   xmlns:svg="http://www.w3.org/2000/svg">
  <defs
     id="defs839" />
  <sodipodi:namedview
     id="namedview837"
     pagecolor="#ffffff"
     bordercolor="#999999"
     borderopacity="1"
     inkscape:pageshadow="0"
     inkscape:pageopacity="0"
     inkscape:pagecheckerboard="0"
     showgrid="false"
     inkscape:zoom="0.72753906"
     inkscape:cx="159.44161"
     inkscape:cy="375.92483"
     inkscape:window-width="1607"
     inkscape:window-height="969"
     inkscape:window-x="1889"
     inkscape:window-y="72"
     inkscape:window-maximized="0"
     inkscape:current-layer="g833" />
  <mask
     id="a">
    <circle
       cx="256"
       cy="256"
       r="256"
       fill="#fff"
       id="circle824" />
  </mask>
  <g
     mask="url(#a)"
     id="g833">
    <path
       fill="#338af3"
       d="M0 0h512v144.7L488 256l24 111.3V512H0V367.3L26 256 0 144.7z"
       id="path827" />
    <path
       fill="#eee"
       d="M0 144.7h512v222.6H0z"
       id="path829" />
    <path
       fill="#ffda44"
       d="m332.4 256-31.2 14.7 16.7 30.3-34-6.5-4.2 34.3-23.7-25.2-23.6 25.2-4.3-34.3-34 6.5 16.6-30.3-31.2-14.7 31.3-14.7L194 211l34 6.5 4.3-34.3 23.6 25.2 23.6-25.2 4.4 34.3 34-6.5-16.7 30.3z"
       id="path831"
       style="stroke:#aa4400;stroke-opacity:1;stroke-width:12;stroke-miterlimit:4;stroke-dasharray:none;stroke-linejoin:round" />
  </g>
</svg>
