<?xml version="1.0" encoding="UTF-8" standalone="no"?>
<svg
   width="512"
   height="512"
   viewBox="0 0 512 512"
   version="1.1"
   id="svg833"
   sodipodi:docname="chn.svg"
   inkscape:version="1.1.1 (c3084ef, 2021-09-22)"
   xmlns:inkscape="http://www.inkscape.org/namespaces/inkscape"
   xmlns:sodipodi="http://sodipodi.sourceforge.net/DTD/sodipodi-0.dtd"
   xmlns="http://www.w3.org/2000/svg"
   xmlns:svg="http://www.w3.org/2000/svg">
  <defs
     id="defs837" />
  <sodipodi:namedview
     id="namedview835"
     pagecolor="#ffffff"
     bordercolor="#999999"
     borderopacity="1"
     inkscape:pageshadow="0"
     inkscape:pageopacity="0"
     inkscape:pagecheckerboard="0"
     showgrid="false"
     inkscape:zoom="0.72753906"
     inkscape:cx="175.24832"
     inkscape:cy="322.31946"
     inkscape:window-width="1312"
     inkscape:window-height="969"
     inkscape:window-x="0"
     inkscape:window-y="38"
     inkscape:window-maximized="0"
     inkscape:current-layer="g831" />
  <mask
     id="a">
    <circle
       cx="256"
       cy="256"
       r="256"
       fill="#fff"
       id="circle824" />
  </mask>
  <g
     mask="url(#a)"
     id="g831">
    <path
       fill="#d80027"
       d="M0 0h512v512H0z"
       id="path827" />
    <path
       fill="#ffda44"
       d="m 176.15,155.8 22.1,68 h 71.5 l -57.8,42.1 22.1,68 -57.9,-42 -57.9,42 22.2,-68 -57.9,-42.1 h 71.5 z m 163.4,240.7 -16.9,-20.8 -25,9.7 14.5,-22.5 -16.9,-20.9 25.9,6.9 14.6,-22.5 1.4,26.8 26,6.9 -25.1,9.6 z m 33.6,-61 8,-25.6 -21.9,-15.5 26.8,-0.4 7.9,-25.6 8.7,25.4 26.8,-0.3 -21.5,16 8.6,25.4 -21.9,-15.5 z m 45.3,-147.6 -11.8,24.1 19.2,18.7 -26.5,-3.8 -11.8,24 -4.6,-26.4 -26.6,-3.8 23.8,-12.5 -4.6,-26.5 19.2,18.7 z m -78.2,-73 -2,26.7 24.9,10.1 -26.1,6.4 -1.9,26.8 -14.1,-22.8 -26.1,6.4 17.3,-20.5 -14.2,-22.7 24.9,10.1 z"
       id="path829" />
  </g>
</svg>
