<?xml version="1.0" encoding="UTF-8" standalone="no"?>
<svg
   width="512"
   height="512"
   viewBox="0 0 512 512"
   version="1.1"
   id="svg1132"
   sodipodi:docname="cod.svg"
   inkscape:version="1.1.1 (c3084ef, 2021-09-22)"
   xmlns:inkscape="http://www.inkscape.org/namespaces/inkscape"
   xmlns:sodipodi="http://sodipodi.sourceforge.net/DTD/sodipodi-0.dtd"
   xmlns="http://www.w3.org/2000/svg"
   xmlns:svg="http://www.w3.org/2000/svg">
  <defs
     id="defs1136" />
  <sodipodi:namedview
     id="namedview1134"
     pagecolor="#ffffff"
     bordercolor="#999999"
     borderopacity="1"
     inkscape:pageshadow="0"
     inkscape:pageopacity="0"
     inkscape:pagecheckerboard="0"
     showgrid="false"
     inkscape:zoom="0.51444781"
     inkscape:cx="302.26584"
     inkscape:cy="588.00912"
     inkscape:window-width="1296"
     inkscape:window-height="969"
     inkscape:window-x="1989"
     inkscape:window-y="49"
     inkscape:window-maximized="0"
     inkscape:current-layer="g1130" />
  <mask
     id="a">
    <circle
       cx="256"
       cy="256"
       r="256"
       fill="#fff"
       id="circle1119" />
  </mask>
  <g
     mask="url(#a)"
     id="g1130">
    <path
       fill="#338af3"
       d="M0 0h401.9L512 110.3V512H110.3L0 401.9z"
       id="path1122" />
    <path
       fill="#ffda44"
       d="M 492.9669,91.321643 34.291606,426.97651 l -7.208587,46.5451 52.615718,71.89984 46.742743,7.2392 458.44704,-335.48784 7.2392,-46.74274 L 539.512,98.53023 Z"
       id="path1124" />
    <path
       fill="#d80027"
       d="M 539.512,98.53023 27.083019,473.52161 17.44096,535.77939 79.698737,545.42145 592.12772,170.43007 601.76978,108.17229 Z"
       id="path1126" />
    <path
       fill="#ffda44"
       d="m 185.20176,59.999999 20.6059,63.310871 h 66.89451 l -53.75451,39.27066 20.45657,63.46019 -54.05314,-39.27066 -53.75452,39.27066 20.45658,-63.46019 L 98,123.31087 h 66.74518 z"
       id="path1128"
       style="stroke-width:1" />
  </g>
</svg>
