<?xml version="1.0" encoding="UTF-8" standalone="no"?>
<svg
   width="512"
   height="512"
   viewBox="0 0 512 512"
   version="1.1"
   id="svg833"
   sodipodi:docname="eur.svg"
   inkscape:version="1.1.1 (c3084ef, 2021-09-22)"
   xmlns:inkscape="http://www.inkscape.org/namespaces/inkscape"
   xmlns:sodipodi="http://sodipodi.sourceforge.net/DTD/sodipodi-0.dtd"
   xmlns="http://www.w3.org/2000/svg"
   xmlns:svg="http://www.w3.org/2000/svg">
  <defs
     id="defs837" />
  <sodipodi:namedview
     id="namedview835"
     pagecolor="#ffffff"
     bordercolor="#999999"
     borderopacity="1"
     inkscape:pageshadow="0"
     inkscape:pageopacity="0"
     inkscape:pagecheckerboard="0"
     showgrid="false"
     inkscape:zoom="1.0288956"
     inkscape:cx="249.29643"
     inkscape:cy="326.07778"
     inkscape:window-width="1920"
     inkscape:window-height="1147"
     inkscape:window-x="1728"
     inkscape:window-y="25"
     inkscape:window-maximized="1"
     inkscape:current-layer="g831" />
  <mask
     id="a">
    <circle
       cx="256"
       cy="256"
       r="256"
       fill="#fff"
       id="circle824" />
  </mask>
  <g
     mask="url(#a)"
     id="g831">
    <path
       fill="#0052b4"
       d="M0 0h512v512H0z"
       id="path827" />
    <path
       d="m 256.2,345 8.3,25.5 h 26.7 l -21.7,15.7 8.3,25.6 -21.7,-15.8 -21.7,15.8 8.3,-25.6 -21.7,-15.7 h 26.8 z"
       id="path829-3-6"
       style="fill:#ffcd00;fill-opacity:1" />
    <path
       d="m 338.4,304.9 8.3,25.5 h 26.7 l -21.7,15.7 8.3,25.6 -21.7,-15.8 -21.7,15.8 8.3,-25.6 -21.7,-15.7 H 330 Z"
       id="path829-3-98"
       style="fill:#ffcd00;fill-opacity:1" />
    <path
       d="m 173.8,304.9 8.3,25.5 h 26.7 l -21.7,15.7 8.3,25.6 -21.7,-15.8 -21.7,15.8 8.3,-25.6 -21.7,-15.7 h 26.8 z"
       id="path829-3-3"
       style="fill:#ffcd00;fill-opacity:1" />
    <path
       d="m 133.7,222.7 8.3,25.5 h 26.7 l -21.7,15.7 8.3,25.6 -21.7,-15.8 -21.7,15.8 8.3,-25.6 -21.7,-15.7 h 26.8 z"
       id="path829-3-0"
       style="fill:#ffcd00;fill-opacity:1" />
    <path
       d="m 378.5,222.50001 8.3,25.5 h 26.7 L 391.8,263.7 l 8.3,25.6 -21.7,-15.8 -21.7,15.8 8.3,-25.6 -21.7,-15.69999 h 26.8 z"
       id="path829-3-97"
       style="fill:#ffcd00;fill-opacity:1" />
    <path
       d="m 256,100.2 8.3,25.5 H 291 l -21.7,15.7 8.3,25.6 -21.7,-15.8 -21.7,15.8 8.3,-25.6 -21.7,-15.7 h 26.8 z"
       id="path829"
       style="fill:#ffcd00;fill-opacity:1" />
    <path
       d="m 173.8,140.3 8.3,25.5 h 26.7 l -21.7,15.7 8.3,25.6 -21.7,-15.8 -21.7,15.8 8.3,-25.6 -21.7,-15.7 h 26.8 z"
       id="path829-3"
       style="fill:#ffcd00;fill-opacity:1" />
    <path
       d="m 338.4,140.3 8.3,25.5 h 26.7 l -21.7,15.7 8.3,25.6 -21.7,-15.8 -21.7,15.8 8.3,-25.6 -21.7,-15.7 H 330 Z"
       id="path829-3-9"
       style="fill:#ffcd00;fill-opacity:1" />
    <path
       sodipodi:type="star"
       style="fill:#ffffff;stroke:#bfbfbf;stroke-width:0.25;stroke-linecap:round;stroke-linejoin:round"
       id="path1154"
       inkscape:flatsided="false"
       sodipodi:sides="5"
       sodipodi:cx="0"
       sodipodi:cy="0"
       sodipodi:r1="1"
       sodipodi:r2="0"
       sodipodi:arg1="0"
       sodipodi:arg2="0"
       inkscape:rounded="0"
       inkscape:randomized="0"
       d="M 1,0 H 0 L 0.30901699,0.95105652 0,0 -0.80901699,0.58778525 0,0 -0.80901699,-0.58778525 0,0 0.30901699,-0.95105652 0,0 Z" />
  </g>
</svg>
