<?xml version="1.0" encoding="UTF-8" standalone="no"?>
<svg
   width="1381.7389pt"
   height="667.06628pt"
   viewBox="0 0 1381.7389 667.06628"
   version="1.1"
   id="svg950"
   sodipodi:docname="thebeholdersbugle.svg.svg"
   inkscape:version="1.1.1 (c3084ef, 2021-09-22)"
   xmlns:inkscape="http://www.inkscape.org/namespaces/inkscape"
   xmlns:sodipodi="http://sodipodi.sourceforge.net/DTD/sodipodi-0.dtd"
   xmlns="http://www.w3.org/2000/svg"
   xmlns:svg="http://www.w3.org/2000/svg">
  <defs
     id="defs954" />
  <sodipodi:namedview
     id="namedview952"
     pagecolor="#ffffff"
     bordercolor="#999999"
     borderopacity="1"
     inkscape:pageshadow="0"
     inkscape:pageopacity="0"
     inkscape:pagecheckerboard="0"
     inkscape:document-units="pt"
     showgrid="false"
     fit-margin-top="0"
     fit-margin-left="0"
     fit-margin-right="0"
     fit-margin-bottom="0"
     inkscape:zoom="0.38618613"
     inkscape:cx="930.89826"
     inkscape:cy="283.54203"
     inkscape:window-width="1728"
     inkscape:window-height="1051"
     inkscape:window-x="0"
     inkscape:window-y="38"
     inkscape:window-maximized="1"
     inkscape:current-layer="#271d2cff" />
  <g
     id="#271d2cff"
     transform="translate(393.36942,-34.973742)">
    <g
       aria-label="The Beholder's Bugle"
       id="text1258"
       style="font-size:187.216px;line-height:1.25;fill:#ea9c37;stroke-width:0.75">
      <path
         d="m -322.60177,545.34022 h -2.99546 q -2.05937,-6.17813 -3.93153,-9.17359 -1.68495,-2.99545 -5.05484,-4.30596 -3.18267,-1.31052 -9.17358,-1.31052 h -5.05483 v 158.19753 q 0,0.74886 -0.18722,3.93153 0,3.18268 1.31051,4.6804 1.31052,1.68495 3.93154,1.68495 v 2.99545 h -28.83126 v -2.99545 q 3.5571,0 4.30596,-2.05938 0.74887,-2.05937 0.74887,-4.86761 0,-2.62103 0,-3.36989 V 530.55015 h -4.6804 q -5.99091,0 -9.3608,1.31052 -3.18267,1.31051 -5.05483,4.30596 -1.68495,2.99546 -3.74432,9.17359 h -2.99546 l 1.87216,-27.89519 h 67.02333 z"
         style="font-family:Heroking;-inkscape-font-specification:Heroking"
         id="path2816" />
      <path
         d="m -238.26097,538.22601 q -2.62102,0 -3.74432,1.49773 -1.12329,1.31051 -1.31051,3.74432 0,2.43381 0,4.86761 v 123.56257 q 0,0.74886 -0.18721,3.93153 0,3.18267 1.31051,4.86762 1.31051,1.49773 3.93153,1.49773 v 2.99545 h -28.83126 v -2.99545 q 3.5571,0 4.30597,-2.05938 0.74886,-2.05938 0.74886,-4.6804 0,-2.80824 0,-3.5571 v -73.95032 h -25.64859 v 73.95032 q 0,0.74886 -0.18722,3.93153 0,3.18267 1.31052,4.86762 1.31051,1.49773 3.93153,1.49773 v 2.99545 h -28.83126 v -2.99545 q 3.5571,0 4.30596,-2.05938 0.74887,-2.05938 0.74887,-4.6804 0,-2.80824 0,-3.5571 V 548.33567 q 0,-0.56164 0,-3.74432 0,-3.18267 -1.31051,-4.6804 -1.1233,-1.68494 -3.74432,-1.68494 v -2.99546 h 28.83126 v 2.99546 q -2.62102,0 -3.74432,1.49773 -1.12329,1.31051 -1.31051,3.74432 0,2.43381 0,4.86761 v 36.50713 h 25.64859 v -36.50713 q 0,-0.56164 0,-3.74432 0,-3.18267 -1.31051,-4.6804 -1.1233,-1.68494 -3.74432,-1.68494 v -2.99546 h 28.83126 z"
         style="font-family:Heroking;-inkscape-font-specification:Heroking"
         id="path2818" />
      <path
         d="m -167.83557,622.286 q -1.87216,3.93153 -3.5571,11.42017 -1.49773,7.30143 -1.49773,17.03666 0,16.28779 4.86762,34.26053 h -58.97304 v -2.99546 q 2.62102,0 3.74432,-1.31051 1.12329,-1.49773 1.12329,-3.93154 0.18722,-2.43381 0.18722,-4.86761 V 548.33567 q 0,-0.56164 0,-3.74432 0,-3.18267 -1.31051,-4.6804 -1.1233,-1.68494 -3.74432,-1.68494 v -2.99546 h 53.73099 l 1.87216,27.89519 h -2.99546 q -2.05937,-6.17813 -3.93153,-9.17359 -1.68495,-2.99545 -5.05484,-4.30596 -3.18267,-1.31052 -9.17358,-1.31052 h -10.67131 v 36.50713 h 5.42926 q 4.49319,0 7.48864,-1.87216 2.99546,-1.87216 2.99546,-5.99092 h 2.99545 v 28.83127 h -2.99545 q 0,-4.11875 -2.99546,-5.99091 -2.99545,-1.87216 -7.48864,-1.87216 h -5.42926 v 73.7631 h 14.97728 q -0.74887,-17.03666 3.74432,-31.26507 4.6804,-14.41563 16.66222,-18.15995 z"
         style="font-family:Heroking;-inkscape-font-specification:Heroking"
         id="path2820" />
      <path
         d="m -75.69312,594.57803 q 12.730688,2.62102 18.347168,16.84944 5.803696,14.22841 5.803696,32.95001 0,15.53893 -4.305968,28.64405 -4.305968,13.10512 -13.10512,20.9682 -8.799153,8.05028 -21.342625,8.05028 h -28.831261 v -2.99545 q 3.5571,0 4.30596,-2.05938 0.74887,-2.05937 0.74887,-4.86761 0,-2.62103 0,-3.36989 V 530.55015 q 0,-0.56164 0,-3.74432 0,-3.18267 -1.31051,-4.6804 -1.1233,-1.68494 -3.74432,-1.68494 v -2.99546 h 30.703421 q 10.484096,0 17.785521,5.99092 7.301424,5.99091 10.858528,14.97728 3.557104,8.79915 3.557104,17.22387 0,14.97728 -5.054832,25.64859 -4.867616,10.4841 -14.415632,13.29234 z m 0.187216,-38.75372 q 0,-8.98636 -3.931537,-17.03665 -3.74432,-8.23751 -11.23296,-8.23751 h -4.6804 v 56.72645 h 4.6804 q 7.114208,0 11.045744,-8.79915 4.118753,-8.79915 4.118753,-22.65314 z m -17.223873,132.92337 q 6.178128,0 11.045744,-5.8037 4.867616,-5.8037 7.488641,-15.91336 2.80824,-10.29688 2.80824,-23.02757 0,-17.78552 -5.242049,-30.70342 -5.242048,-12.91791 -16.100576,-12.91791 h -2.621024 v 88.36596 z"
         style="font-family:Heroking;-inkscape-font-specification:Heroking"
         id="path2822" />
      <path
         d="m 19.014774,622.286 q -1.87216,3.93153 -3.557104,11.42017 -1.497728,7.30143 -1.497728,17.03666 0,16.28779 4.867616,34.26053 h -58.973041 v -2.99546 q 2.621024,0 3.74432,-1.31051 1.123296,-1.49773 1.123296,-3.93154 0.187216,-2.43381 0.187216,-4.86761 V 548.33567 q 0,-0.56164 0,-3.74432 0,-3.18267 -1.310512,-4.6804 -1.123296,-1.68494 -3.74432,-1.68494 v -2.99546 H 13.58551 l 1.87216,27.89519 h -2.995456 q -2.059376,-6.17813 -3.9315359,-9.17359 -1.684944,-2.99545 -5.0548321,-4.30596 -3.18267205,-1.31052 -9.1735842,-1.31052 H -16.36905 v 36.50713 h 5.429264 q 4.4931838,0 7.4886399,-1.87216 2.99545604,-1.87216 2.99545604,-5.99092 H 2.539766 v 28.83127 h -2.99545606 q 0,-4.11875 -2.99545604,-5.99091 -2.9954561,-1.87216 -7.4886399,-1.87216 h -5.429264 v 73.7631 H -1.3917701 Q -2.1406341,654.67436 2.35255,640.44595 7.0329501,626.03032 19.014774,622.286 Z"
         style="font-family:Heroking;-inkscape-font-specification:Heroking"
         id="path2824" />
      <path
         d="m 103.62763,538.22601 q -2.62102,0 -3.74432,1.49773 -1.123296,1.31051 -1.310512,3.74432 0,2.43381 0,4.86761 v 123.56257 q 0,0.74886 -0.187216,3.93153 0,3.18267 1.310512,4.86762 1.310516,1.49773 3.931536,1.49773 v 2.99545 H 74.796365 v -2.99545 q 3.557104,0 4.305968,-2.05938 0.748864,-2.05938 0.748864,-4.6804 0,-2.80824 0,-3.5571 V 597.94792 H 54.202605 v 73.95032 q 0,0.74886 -0.187216,3.93153 0,3.18267 1.310512,4.86762 1.310512,1.49773 3.931536,1.49773 v 2.99545 H 30.426172 v -2.99545 q 3.557105,0 4.305969,-2.05938 0.748864,-2.05938 0.748864,-4.6804 0,-2.80824 0,-3.5571 V 548.33567 q 0,-0.56164 0,-3.74432 0,-3.18267 -1.310512,-4.6804 -1.123296,-1.68494 -3.744321,-1.68494 v -2.99546 h 28.831265 v 2.99546 q -2.621024,0 -3.74432,1.49773 -1.123296,1.31051 -1.310512,3.74432 0,2.43381 0,4.86761 v 36.50713 h 25.648592 v -36.50713 q 0,-0.56164 0,-3.74432 0,-3.18267 -1.310512,-4.6804 -1.123296,-1.68494 -3.74432,-1.68494 v -2.99546 h 28.831265 z"
         style="font-family:Heroking;-inkscape-font-specification:Heroking"
         id="path2826" />
      <path
         d="m 114.89279,569.30387 q 0,-10.29688 3.93153,-18.53439 4.11875,-8.42472 11.04575,-13.29233 6.92699,-4.86762 15.35171,-4.86762 8.61193,0 15.72614,4.86762 7.11421,4.6804 11.23296,13.10512 4.11876,8.2375 4.11876,18.7216 v 81.43896 q 0,10.48409 -4.11876,18.90881 -4.11875,8.23751 -11.23296,13.10512 -7.11421,4.6804 -15.72614,4.6804 -8.42472,0 -15.35171,-4.86761 -6.927,-4.86762 -11.04575,-13.10512 -3.93153,-8.42472 -3.93153,-18.7216 z m 18.7216,81.25174 q 0,9.17359 3.36988,16.47501 3.36989,7.11421 8.79916,7.11421 5.24204,0 8.42472,-7.11421 3.36989,-7.30142 3.36989,-16.47501 v -81.06453 q 0,-9.17358 -3.36989,-16.28779 -3.18268,-7.30142 -8.42472,-7.30142 -5.42927,0 -8.79916,7.30142 -3.36988,7.11421 -3.36988,16.28779 z"
         style="font-family:Heroking;-inkscape-font-specification:Heroking"
         id="path2828" />
      <path
         d="m 246.81861,622.286 q -1.87216,3.93153 -3.55711,11.42017 -1.49772,7.30143 -1.49772,17.03666 0,16.28779 4.86761,34.26053 h -58.97304 v -2.99546 q 2.62102,0 3.74432,-1.31051 1.1233,-1.49773 1.1233,-3.93154 0.18721,-2.43381 0.18721,-4.86761 V 548.33567 q 0,-0.56164 0,-3.74432 0,-3.18267 -1.31051,-4.6804 -1.1233,-1.68494 -3.74432,-1.68494 v -2.99546 h 28.83126 v 2.99546 q -2.62102,0 -3.74432,1.49773 -1.12329,1.31051 -1.31051,3.74432 0,2.43381 0,4.86761 v 123.37535 h 14.60285 q -0.74886,-16.84944 3.93154,-31.26507 4.86761,-14.41563 16.84944,-18.15995 z"
         style="font-family:Heroking;-inkscape-font-specification:Heroking"
         id="path2830" />
      <path
         d="m 285.27687,535.23055 q 11.98183,0 20.59377,9.92245 8.61193,9.92245 12.9179,26.21024 4.49318,16.2878 4.49318,35.38383 0,27.52075 -5.80369,45.11905 -5.61648,17.59831 -14.79007,25.46138 -8.98636,7.86307 -19.28325,7.86307 h -28.83126 v -2.99545 q 3.5571,0 4.30597,-2.05938 0.74886,-2.05938 0.74886,-4.6804 0,-2.80824 0,-3.5571 V 548.33567 q 0,-0.56164 0,-3.74432 0,-3.18267 -1.31051,-4.6804 -1.1233,-1.68494 -3.74432,-1.68494 v -2.99546 z m -4.30596,136.66769 q 22.09149,0 22.09149,-62.71736 0,-28.0824 -4.86762,-44.3702 -4.6804,-16.47501 -13.10512,-16.47501 h -6.73978 v 123.56257 z"
         style="font-family:Heroking;-inkscape-font-specification:Heroking"
         id="path2832" />
      <path
         d="m 393.81244,622.286 q -1.87216,3.93153 -3.5571,11.42017 -1.49773,7.30143 -1.49773,17.03666 0,16.28779 4.86762,34.26053 h -58.97304 v -2.99546 q 2.62102,0 3.74432,-1.31051 1.12329,-1.49773 1.12329,-3.93154 0.18722,-2.43381 0.18722,-4.86761 V 548.33567 q 0,-0.56164 0,-3.74432 0,-3.18267 -1.31051,-4.6804 -1.1233,-1.68494 -3.74432,-1.68494 v -2.99546 h 53.73099 l 1.87216,27.89519 h -2.99546 q -2.05937,-6.17813 -3.93153,-9.17359 -1.68495,-2.99545 -5.05484,-4.30596 -3.18267,-1.31052 -9.17358,-1.31052 h -10.67131 v 36.50713 h 5.42926 q 4.49319,0 7.48864,-1.87216 2.99546,-1.87216 2.99546,-5.99092 h 2.99545 v 28.83127 h -2.99545 q 0,-4.11875 -2.99546,-5.99091 -2.99545,-1.87216 -7.48864,-1.87216 h -5.42926 v 73.7631 h 14.97728 q -0.74887,-17.03666 3.74432,-31.26507 4.6804,-14.41563 16.66222,-18.15995 z"
         style="font-family:Heroking;-inkscape-font-specification:Heroking"
         id="path2834" />
      <path
         d="m 478.05087,685.00336 h -30.329 l -1.12329,-2.99546 q 3.36989,0 3.36989,-2.62102 0,-0.93608 -0.74887,-4.30597 l -18.34717,-70.95487 h -1.87216 v 67.7722 q 0,0.74886 -0.18721,3.93153 0,3.18267 1.31051,4.86762 1.31051,1.49773 3.93154,1.49773 v 2.99545 h -28.83127 v -2.99545 q 3.55711,0 4.30597,-2.05938 0.74886,-2.05938 0.74886,-4.6804 0,-2.80824 0,-3.5571 V 548.33567 q 0,-0.56164 0,-3.74432 0,-3.18267 -1.31051,-4.6804 -1.1233,-1.68494 -3.74432,-1.68494 v -2.99546 h 30.70343 q 10.48409,0 17.78552,4.86762 7.48864,4.86762 11.04574,12.54347 3.5571,7.48864 3.5571,15.72615 0,12.16904 -5.42926,20.96819 -5.24205,8.61194 -14.97728,12.35626 l 22.09149,75.07361 q 1.12329,2.62103 2.62102,3.93154 1.49773,1.31051 4.30597,1.31051 z m -44.3702,-93.98244 q 9.17359,0 12.16904,-5.61648 2.99546,-5.80369 2.99546,-16.47501 0,-8.05028 -3.5571,-14.22841 -3.36989,-6.36535 -9.54802,-6.36535 h -6.73978 v 42.68525 z"
         style="font-family:Heroking;-inkscape-font-specification:Heroking"
         id="path2836" />
      <path
         d="m 482.01162,565.93398 v -30.70343 h 12.16904 l -0.18721,30.70343 z"
         style="font-family:Heroking;-inkscape-font-specification:Heroking"
         id="path2838" />
      <path
         d="m 569.0671,654.67436 q 0,11.42018 -4.49318,19.09604 -4.49319,7.48864 -11.79461,11.23296 -7.30142,3.5571 -15.72615,3.5571 -9.92244,0 -18.34716,-4.6804 -8.23751,-4.86762 -11.04575,-12.9179 3.18267,-6.17813 4.86762,-14.22842 1.87216,-8.05029 1.87216,-15.72614 0,-14.41564 -5.8037,-21.71706 9.73523,0.74886 15.1645,11.04574 5.61648,10.10967 5.61648,26.77189 0,2.24659 -0.37443,7.86307 -1.1233,2.99546 -1.1233,5.24205 0,2.99546 1.87216,4.6804 1.87216,1.68495 4.86762,1.68495 3.5571,0 7.1142,-2.43381 3.74433,-2.43381 6.17813,-7.48864 2.43381,-5.05483 2.43381,-12.16904 v -24.5253 q 0,-5.24205 -3.93153,-8.98637 -3.74433,-3.93153 -11.98183,-9.73523 -8.2375,-5.80369 -13.66677,-10.48409 -5.42926,-4.86762 -9.3608,-12.16904 -3.74432,-7.48864 -3.74432,-17.41109 0,-16.47501 8.98637,-26.58468 9.17358,-10.29688 25.08694,-10.29688 8.98637,0 16.10058,2.99546 7.11421,2.99546 9.73523,6.73978 -3.5571,4.6804 -5.61648,13.10512 -2.05937,8.42472 -2.05937,17.22387 0,10.4841 2.99545,17.03666 -8.05028,-0.74887 -12.73068,-8.79916 -4.6804,-8.2375 -4.6804,-20.78097 0,-7.30143 1.68494,-15.35172 l -2.24659,-0.18721 q -8.79916,0 -13.66677,6.73977 -4.86762,6.73978 -4.86762,18.34717 0,6.92699 4.49319,11.98183 4.49318,4.86761 13.85398,11.60739 7.48864,5.24205 12.16904,9.54802 4.86762,4.11875 8.23751,10.10966 3.5571,5.8037 3.93153,13.47955 z"
         style="font-family:Heroking;-inkscape-font-specification:Heroking"
         id="path2840" />
      <path
         d="m 661.10424,594.57803 q 12.73069,2.62102 18.34717,16.84944 5.8037,14.22841 5.8037,32.95001 0,15.53893 -4.30597,28.64405 -4.30597,13.10512 -13.10512,20.9682 -8.79915,8.05028 -21.34263,8.05028 h -28.83126 v -2.99545 q 3.5571,0 4.30597,-2.05938 0.74886,-2.05937 0.74886,-4.86761 0,-2.62103 0,-3.36989 V 530.55015 q 0,-0.56164 0,-3.74432 0,-3.18267 -1.31051,-4.6804 -1.1233,-1.68494 -3.74432,-1.68494 v -2.99546 h 30.70342 q 10.4841,0 17.78552,5.99092 7.30143,5.99091 10.85853,14.97728 3.55711,8.79915 3.55711,17.22387 0,14.97728 -5.05483,25.64859 -4.86762,10.4841 -14.41564,13.29234 z m 0.18722,-38.75372 q 0,-8.98636 -3.93154,-17.03665 -3.74432,-8.23751 -11.23296,-8.23751 h -4.6804 v 56.72645 h 4.6804 q 7.11421,0 11.04575,-8.79915 4.11875,-8.79915 4.11875,-22.65314 z m -17.22387,132.92337 q 6.17812,0 11.04574,-5.8037 4.86762,-5.8037 7.48864,-15.91336 2.80824,-10.29688 2.80824,-23.02757 0,-17.78552 -5.24205,-30.70342 -5.24205,-12.91791 -16.10057,-12.91791 h -2.62103 v 88.36596 z"
         style="font-family:Heroking;-inkscape-font-specification:Heroking"
         id="path2842" />
      <path
         d="m 768.16833,535.23055 v 2.99546 q -3.5571,0 -4.30597,2.24659 -0.74886,2.05938 -0.74886,4.86762 0,2.62102 0,3.36989 v 102.03272 q 0,10.48409 -4.11875,18.90881 -4.11875,8.23751 -11.23296,13.10512 -7.11421,4.6804 -15.72615,4.6804 -8.42472,0 -15.35171,-4.86761 -6.92699,-4.86762 -11.04574,-13.10512 -3.93154,-8.42472 -3.93154,-18.7216 V 548.71011 q 0,-0.74887 0,-3.93154 0.18722,-3.36989 -1.12329,-4.86762 -1.31052,-1.68494 -3.93154,-1.68494 v -2.99546 h 28.83126 v 2.99546 q -3.5571,0 -4.30596,2.24659 -0.74887,2.05938 -0.74887,4.86762 0,2.62102 0,3.36989 v 101.8455 q 0,9.17359 3.36989,16.47501 3.36989,7.11421 8.79915,7.11421 5.24205,0 8.42472,-7.11421 3.36989,-7.30142 3.36989,-16.47501 v -101.8455 q 0,-0.74887 0,-3.93154 0.18722,-3.36989 -1.1233,-4.86762 -1.31051,-1.68494 -3.93153,-1.68494 v -2.99546 z"
         style="font-family:Heroking;-inkscape-font-specification:Heroking"
         id="path2844" />
      <path
         d="m 854.55108,622.84764 v 2.99546 q -3.5571,0 -4.30597,2.24659 -0.74886,2.05938 -0.74886,4.86762 0,2.62102 0,3.36989 v 34.07331 q -2.24659,7.11421 -8.42472,12.16904 -6.17813,5.05483 -16.10058,5.05483 -21.71705,0 -33.69888,-20.59376 -11.98182,-20.78098 -11.98182,-57.84974 0,-20.59376 5.24205,-37.63042 5.42926,-17.03666 15.53892,-27.14632 10.10967,-10.10967 23.77644,-10.4841 9.3608,-0.37443 15.35171,2.62103 5.99091,2.80824 10.48409,7.48864 -3.74432,5.05483 -6.17812,14.22841 -2.43381,8.98637 -2.43381,17.78552 0,9.17359 2.80824,15.35172 -7.30143,0 -11.04575,-7.86308 -3.74432,-7.86307 -3.74432,-21.71705 0,-8.79916 0.93608,-15.72615 -2.05937,-0.93608 -4.6804,-0.93608 -6.73977,0 -12.35625,7.86307 -5.61648,7.67586 -8.98637,21.90428 -3.36989,14.0412 -3.36989,32.38837 0,22.84035 3.55711,38.37928 3.74432,15.35171 9.17358,22.65313 5.61648,7.30143 11.04574,7.30143 4.30597,0 5.24205,-6.17813 1.1233,-6.36535 1.1233,-19.65768 V 636.3272 q 0,-0.74887 0,-3.93154 0.18721,-3.36989 -1.1233,-4.86762 -1.31051,-1.68494 -3.93153,-1.68494 v -2.99546 z"
         style="font-family:Heroking;-inkscape-font-specification:Heroking"
         id="path2846" />
      <path
         d="m 921.45441,622.286 q -1.87216,3.93153 -3.5571,11.42017 -1.49773,7.30143 -1.49773,17.03666 0,16.28779 4.86761,34.26053 h -58.97304 v -2.99546 q 2.62103,0 3.74432,-1.31051 1.1233,-1.49773 1.1233,-3.93154 0.18722,-2.43381 0.18722,-4.86761 V 548.33567 q 0,-0.56164 0,-3.74432 0,-3.18267 -1.31052,-4.6804 -1.12329,-1.68494 -3.74432,-1.68494 v -2.99546 h 28.83127 v 2.99546 q -2.62103,0 -3.74432,1.49773 -1.1233,1.31051 -1.31051,3.74432 0,2.43381 0,4.86761 v 123.37535 h 14.60284 q -0.74886,-16.84944 3.93154,-31.26507 4.86762,-14.41563 16.84944,-18.15995 z"
         style="font-family:Heroking;-inkscape-font-specification:Heroking"
         id="path2848" />
      <path
         d="m 988.36945,622.286 q -1.87216,3.93153 -3.5571,11.42017 -1.49773,7.30143 -1.49773,17.03666 0,16.28779 4.86761,34.26053 h -58.97304 v -2.99546 q 2.62103,0 3.74432,-1.31051 1.1233,-1.49773 1.1233,-3.93154 0.18721,-2.43381 0.18721,-4.86761 V 548.33567 q 0,-0.56164 0,-3.74432 0,-3.18267 -1.31051,-4.6804 -1.12329,-1.68494 -3.74432,-1.68494 v -2.99546 h 53.731 l 1.87216,27.89519 h -2.99546 q -2.05938,-6.17813 -3.93154,-9.17359 -1.68494,-2.99545 -5.05483,-4.30596 -3.18267,-1.31052 -9.17358,-1.31052 h -10.67132 v 36.50713 h 5.42927 q 4.49318,0 7.48864,-1.87216 2.99546,-1.87216 2.99546,-5.99092 h 2.99545 v 28.83127 h -2.99545 q 0,-4.11875 -2.99546,-5.99091 -2.99546,-1.87216 -7.48864,-1.87216 h -5.42927 v 73.7631 h 14.97729 q -0.74887,-17.03666 3.74432,-31.26507 4.6804,-14.41563 16.66222,-18.15995 z"
         style="font-family:Heroking;-inkscape-font-specification:Heroking"
         id="path2850" />
    </g>
    <path
       fill="#271d2c"
       opacity="1"
       d="m 340.15,62.18 c 0.39,-0.31 1.16,-0.91 1.55,-1.21 4.22,0.44 8.25,1.92 12.36,2.92 14.05,4.37 27.61,10.35 40.27,17.87 47.17,27.83 81.46,76.9 90.17,131.09 -10.47,8.24 -16.33,21.84 -15.26,35.11 0.49,11.57 6.65,22.28 15.44,29.62 -6.1,33.65 -20.97,65.8 -43.6,91.53 -26.24,30.75 -62.75,52.49 -102.21,61.15 -0.13,-4.26 -0.35,-8.6 -1.85,-12.64 0.49,0.31 1.47,0.94 1.96,1.25 0.67,1.77 0.03,4.67 2.01,5.55 23.28,-8.51 45.43,-20.84 63.7,-37.74 7.09,-6.25 14.03,-12.74 19.81,-20.26 25.47,-30.36 40.88,-68.94 43.46,-108.47 0.19,-5.97 -0.37,-11.92 -0.15,-17.89 0.46,-12.42 -1.49,-24.79 -4.09,-36.9 -5.58,-24.21 -15.6,-47.53 -30.12,-67.73 -7.24,-10.53 -16.12,-19.81 -25.22,-28.73 -12.33,-12.16 -27.01,-21.61 -41.96,-30.21 -8.19,-4.12 -16.69,-7.62 -25.36,-10.56 -2,-0.37 -2.69,-2.56 -0.91,-3.75 z"
       id="path826" />
    <path
       fill="#271d2c"
       opacity="1"
       d="m 278.69,207.96 c 15.2,-7.5 35.24,-5.24 47.34,7 8.19,7.63 13.25,18.75 12.76,30.02 0.6,14.21 -7.51,27.93 -19.36,35.47 -7.38,4.29 -15.95,6.73 -24.53,6.01 -21.08,-0.81 -39.66,-20.23 -38.74,-41.45 -0.6,-7.79 2.7,-14.96 5.68,-21.92 7.43,-2.89 14.28,-8.86 15.81,-16.99 l 0.1,0.15 c 0.24,0.43 0.7,1.28 0.94,1.71 m 1.61,13.59 c -7.36,3.57 -6.58,15.51 1.16,18.14 7.04,3.13 15.46,-4.15 13.34,-11.54 -1.16,-6.3 -8.99,-9.73 -14.5,-6.6 z"
       id="path828" />
  </g>
  <g
     id="#ea9c37ff"
     transform="translate(393.36942,-34.973742)">
    <path
       fill="#ea9c37"
       opacity="1"
       d="m 255.95,39.08 c 27.35,-5.52 55.74,-5.4 83.12,-0.09 -0.2,6.96 0.17,13.93 -0.35,20.88 0.71,19.07 -14.2,36.79 -32.75,40.33 -9.44,1.53 -19.58,0.76 -28,-4.08 -11.25,-5.9 -19.41,-17.29 -21.26,-29.87 -0.45,-9.05 -0.48,-18.12 -0.76,-27.17 z"
       id="path831" />
    <path
       fill="#ea9c37"
       opacity="1"
       d="m 294.5,115.75 c 3.86,-1.7 9.16,0.65 9.36,5.15 0.84,4.97 -5.47,9.08 -9.63,6.18 -4.18,-2.3 -3.95,-9.19 0.27,-11.33 z"
       id="path833" />
    <path
       fill="#ea9c37"
       opacity="1"
       d="m 271.36,117.51 c 3.78,-2.92 10.08,0.73 9.53,5.49 0.33,4.39 -4.74,7.84 -8.69,5.84 -4.74,-1.65 -5.17,-8.92 -0.84,-11.33 z"
       id="path835" />
    <path
       fill="#ea9c37"
       opacity="1"
       d="m 317.27,117.3 c 4.61,-3.13 11.24,2.63 9.05,7.64 -0.86,3.42 -5.08,5.3 -8.25,3.87 -5.03,-1.3 -5.41,-9.42 -0.8,-11.51 z"
       id="path837" />
    <path
       fill="#ea9c37"
       opacity="1"
       d="m 249.29,121.49 c 3.94,-2.43 9.29,1.14 9.34,5.56 0.19,4.64 -5.47,8.2 -9.58,5.83 -4.21,-2.31 -4.35,-9.4 0.24,-11.39 z"
       id="path839" />
    <path
       fill="#ea9c37"
       opacity="1"
       d="m 340.25,121.25 c 4.26,-2.19 9.91,2.09 8.78,6.83 -0.25,4.97 -7.44,7.47 -10.63,3.57 -3.67,-2.75 -2.15,-8.78 1.85,-10.4 z"
       id="path841" />
    <path
       fill="#ea9c37"
       opacity="1"
       d="m 227.34,128.57 c 3.88,-2.44 9.47,0.77 9.35,5.32 0.57,4.73 -5.4,8.49 -9.43,5.88 -4.3,-2.11 -4.24,-9.12 0.08,-11.2 z"
       id="path843" />
    <path
       fill="#ea9c37"
       opacity="1"
       d="m 362.18,128.22 c 4.33,-2.13 9.71,2.16 8.6,6.85 -0.29,4.91 -7.06,7.26 -10.47,3.77 -3.5,-2.9 -2.48,-9.16 1.87,-10.62 z"
       id="path845" />
    <path
       fill="#ea9c37"
       opacity="1"
       d="m 206.3,138.23 c 3.98,-2.67 10.41,0.76 9.55,5.76 0.31,5.18 -6.75,7.69 -10.4,4.56 -3.29,-2.52 -2.75,-8.36 0.85,-10.32 z"
       id="path847" />
    <path
       fill="#ea9c37"
       opacity="1"
       d="m 381.53,138.57 c 1.83,-1.67 4.47,-1 6.72,-1.19 1.75,1.81 3.89,3.77 3.46,6.58 0.2,5.1 -6.62,7.67 -10.31,4.65 -1.28,-1.27 -2.03,-2.94 -2.94,-4.45 0.8,-1.95 1.13,-4.38 3.07,-5.59 z"
       id="path849" />
    <path
       fill="#ea9c37"
       opacity="1"
       d="m 277.04,140.95 c 28.82,-3.66 58.54,0.49 85.34,11.69 42.54,17.24 76.56,51.87 97.34,92.37 -16.48,32.22 -41.17,60.58 -72.09,79.63 -23.66,14.53 -50.79,23.67 -78.56,25.37 -28.53,2.05 -57.53,-3.49 -83.43,-15.59 -39.28,-18.19 -70.68,-51.08 -90.26,-89.38 14.62,-28.29 35.3,-53.76 61.31,-72.33 23.54,-17.1 51.43,-28.3 80.35,-31.76 m -4.74,17.76 0.18,0.61 c -13.04,1.66 -25.64,5.97 -37.64,11.25 -32.78,14.59 -59.66,40.66 -77.87,71.34 -0.52,1.31 -2.03,2.58 -1.36,4.1 7.65,12.83 16.45,25 26.75,35.83 25.62,27.69 61.19,46.29 98.79,50.38 9.53,0.36 19.14,0.81 28.64,0.3 l 0.25,0.05 c 13.04,-1.3 26.02,-3.83 38.41,-8.14 10.08,-3.65 19.73,-8.43 29.02,-13.79 11.87,-7.02 22.35,-16.13 32.36,-25.55 9.51,-10.13 18.53,-20.84 25.74,-32.76 1.34,-2.44 3.8,-4.48 4.13,-7.32 -2.91,-6.17 -7.18,-11.62 -10.97,-17.27 -3.31,-5.13 -7.37,-9.72 -11.19,-14.47 -6.54,-8.03 -14.6,-14.59 -22.45,-21.28 -10.12,-8.47 -21.47,-15.42 -33.56,-20.69 -16.06,-7.93 -33.73,-12.18 -51.52,-13.7 -12.56,-0.4 -25.22,-0.6 -37.71,1.11 z"
       id="path851" />
    <path
       fill="#ea9c37"
       opacity="1"
       d="m 402.78,149.62 c 1.51,-0.31 3.06,-0.31 4.6,-0.39 2.33,2.14 5.2,5.15 3.42,8.57 -1.34,4.65 -8.47,5.57 -11.04,1.56 -2.67,-3.13 -0.94,-8.66 3.02,-9.74 z"
       id="path853" />
    <path
       fill="#ea9c37"
       opacity="1"
       d="m 184.41,158.63 c -2.15,-3.46 0.38,-7.21 3.23,-9.23 1.56,-0.01 3.13,-0.03 4.7,-0.07 2.41,1.74 4.88,4.33 4.03,7.59 -0.73,5.65 -9.63,6.85 -11.96,1.71 z"
       id="path855" />
    <path
       fill="#ea9c37"
       opacity="1"
       d="m 421.42,163.45 c 4.92,-1.35 9.84,4.56 7.11,9.04 -1.78,4.37 -8.38,4.76 -10.89,0.88 -2.97,-3.41 -0.39,-9.08 3.78,-9.92 z"
       id="path857" />
    <path
       fill="#ea9c37"
       opacity="1"
       d="m 165.64,169.96 c 0.11,-3.29 2.76,-6.87 6.35,-6.51 3.08,-0.52 4.86,2.31 6.7,4.21 -0.04,3.07 -0.71,6.77 -4,7.96 -3.99,2.04 -8.95,-1.36 -9.05,-5.66 z"
       id="path859" />
    <path
       fill="#ea9c37"
       opacity="1"
       d="m 149.27,183.73 c 1.78,-1.98 3.63,-4.76 6.7,-4.29 4.68,-0.21 7.89,5.84 5.28,9.64 -1.81,3.83 -7.65,4 -10.25,0.93 -1.78,-1.6 -1.45,-4.14 -1.73,-6.28 z"
       id="path861" />
    <path
       fill="#ea9c37"
       opacity="1"
       d="m 433.75,181.88 c 2.51,-2.41 6.63,-3.72 9.53,-1.14 4.17,2.85 2.54,10.01 -2.29,11.11 -4.03,1.44 -7.51,-2.14 -8.44,-5.76 0.41,-1.4 0.82,-2.8 1.2,-4.21 z"
       id="path863" />
    <path
       fill="#ea9c37"
       opacity="1"
       d="m 91.48,203.93 c 6.9,1.81 13.78,4.33 19.3,8.99 8.67,7.17 14.5,17.79 15.16,29.09 1.26,13.17 -4.75,26.49 -14.87,34.86 -5.53,4.86 -12.57,7.26 -19.42,9.57 -5.7,-27.09 -5.42,-55.36 -0.17,-82.51 z"
       id="path865" />
    <path
       fill="#ea9c37"
       opacity="1"
       d="m 484.5,212.85 c 5.43,-4.7 12.34,-7.01 19.06,-9.19 5.39,27.2 5.61,55.55 -0.12,82.71 -6.55,-2.21 -13.33,-4.34 -18.76,-8.79 -8.79,-7.34 -14.95,-18.05 -15.44,-29.62 -1.07,-13.27 4.79,-26.87 15.26,-35.11 z"
       id="path867" />
    <path
       fill="#ea9c37"
       opacity="1"
       d="m 153.35,298.56 c 3.94,-1.7 8.79,1.13 9,5.44 0.58,5.02 -5.98,8.84 -10.03,5.67 -4.15,-2.49 -3.55,-9.51 1.03,-11.11 z"
       id="path869" />
    <path
       fill="#ea9c37"
       opacity="1"
       d="m 433.44,301.95 c 0.76,-2.42 3.4,-3.28 5.43,-4.37 1.36,0.41 2.74,0.8 4.12,1.18 1.43,1.79 3.17,3.75 2.63,6.25 -0.2,4.73 -6.63,7.52 -10.19,4.33 -2.53,-1.54 -2.58,-4.83 -1.99,-7.39 z"
       id="path871" />
    <path
       fill="#ea9c37"
       opacity="1"
       d="m 170.23,314.35 c 4.16,-1.38 8.91,2.19 8.39,6.61 -0.2,5.42 -7.95,8 -11.24,3.62 -3.04,-3.18 -1.29,-9.03 2.85,-10.23 z"
       id="path873" />
    <path
       fill="#ea9c37"
       opacity="1"
       d="m 421.29,314.26 c 3.06,-0.65 6.72,0.57 7.74,3.78 1.59,3.5 -0.99,7.38 -4.33,8.51 -4.4,1.3 -9.3,-3.21 -8,-7.69 0.62,-2.17 2.39,-4.02 4.59,-4.6 z"
       id="path875" />
    <path
       fill="#ea9c37"
       opacity="1"
       d="m 190.18,328.19 c 4.45,-0.31 7.71,4.72 5.99,8.74 -1.48,4.85 -9.01,5.16 -11.4,0.94 -2.72,-3.89 0.68,-9.95 5.41,-9.68 z"
       id="path877" />
    <path
       fill="#ea9c37"
       opacity="1"
       d="m 399.21,332.09 c 1.23,-3.95 7.12,-5.38 9.97,-2.31 2.06,1.5 2.21,4.11 2.5,6.43 -1.77,2 -3.51,4.93 -6.63,4.52 -4.39,0.41 -7.75,-4.75 -5.84,-8.64 z"
       id="path879" />
    <path
       fill="#ea9c37"
       opacity="1"
       d="m 209.18,340.18 c 4.7,-0.74 8.86,5.21 6.2,9.28 -2.07,4.54 -10,4.42 -11.48,-0.48 -1.75,-3.7 1.06,-8.84 5.28,-8.8 z"
       id="path881" />
    <path
       fill="#ea9c37"
       opacity="1"
       d="m 383.2,340.44 c 4.46,-1.87 9.6,2.25 8.56,6.98 -0.29,5.19 -7.4,6.92 -10.83,3.6 -3.02,-3.13 -2.01,-9.12 2.27,-10.58 z"
       id="path883" />
    <path
       fill="#ea9c37"
       opacity="1"
       d="m 226.35,351.26 c 1.59,-1.57 3.93,-1.55 5.99,-1.9 2.08,1.69 4.88,3.51 4.48,6.62 0.44,4.68 -5.39,8.18 -9.31,5.63 -3.86,-1.81 -4.59,-7.77 -1.16,-10.35 z"
       id="path885" />
    <path
       fill="#ea9c37"
       opacity="1"
       d="m 358.38,356.02 c -0.47,-4.96 6.24,-8.4 10.03,-5.32 1.77,1.25 2.34,3.45 3.23,5.31 -1.06,2.02 -1.7,4.63 -3.95,5.69 -3.92,2.08 -9.7,-1.05 -9.31,-5.68 z"
       id="path887" />
    <path
       fill="#ea9c37"
       opacity="1"
       d="m 341.44,356.61 c 4.58,-1.18 9.41,3.83 7.57,8.35 -1.36,5.32 -9.68,5.72 -11.82,0.81 -2.13,-3.55 0.57,-8.12 4.25,-9.16 z"
       id="path889" />
    <path
       fill="#ea9c37"
       opacity="1"
       d="m 249.27,357.31 c 4.26,-2.72 10.42,1.77 9.33,6.63 -0.42,3.84 -4.93,6.51 -8.48,4.89 -5.17,-1.18 -5.48,-9.43 -0.85,-11.52 z"
       id="path891" />
    <path
       fill="#ea9c37"
       opacity="1"
       d="m 272.28,361.28 c 4.58,-2.44 10.56,2.82 8.63,7.68 -0.95,4.26 -6.81,6.21 -10.03,3.19 -3.96,-2.59 -2.87,-9.22 1.4,-10.87 z"
       id="path893" />
    <path
       fill="#ea9c37"
       opacity="1"
       d="m 317.44,361.6 c 3.82,-2.53 9.6,0.85 9.3,5.42 0.44,4.64 -5.49,8.35 -9.42,5.66 -4.32,-2.06 -4.12,-9.02 0.12,-11.08 z"
       id="path895" />
    <path
       fill="#ea9c37"
       opacity="1"
       d="m 295.37,362.54 c 4.09,-1.5 9.22,1.86 8.54,6.4 0.22,5.05 -6.76,7.85 -10.34,4.55 -3.76,-2.77 -2.64,-9.52 1.8,-10.95 z"
       id="path897" />
    <path
       fill="#ea9c37"
       opacity="1"
       d="m 277.94,394.01 c 11.91,-6.61 27.12,-6.46 39.1,-0.12 9.46,4.89 16.49,13.74 19.98,23.73 1.5,4.04 1.72,8.38 1.85,12.64 0.2,6.93 0.04,13.88 0.33,20.81 -27.38,5.39 -55.79,5.46 -83.17,0.02 0.25,-7.02 0.11,-14.04 0.15,-21.06 -0.06,-14.86 8.7,-29.06 21.76,-36.02 z"
       id="path899" />
  </g>
  <g
     id="#ca742bff"
     transform="translate(393.36942,-34.973742)">
    <path
       fill="#ca742b"
       opacity="1"
       d="M 163.32,83.45 C 189.89,61.31 222,45.79 255.95,39.08 c 0.28,9.05 0.31,18.12 0.76,27.17 -0.35,-2.07 -0.7,-4.14 -1.04,-6.21 -56.44,12.24 -105.83,52.26 -130.04,104.62 -7,15.34 -12.48,31.53 -14.85,48.26 -5.52,-4.66 -12.4,-7.18 -19.3,-8.99 0.14,-0.73 0.43,-2.19 0.58,-2.93 2.51,-10.39 5.21,-20.78 9.2,-30.72 2.49,-6.9 5.84,-13.44 8.53,-20.26 5.66,-9.96 10.98,-20.23 17.95,-29.36 6.24,-6.78 11.34,-14.55 18.2,-20.76 4.98,-5.87 11.15,-10.59 15.92,-16.65 0.48,0.07 0.97,0.13 1.46,0.2 z"
       id="path902" />
    <path
       fill="#ca742b"
       opacity="1"
       d="m 339.07,38.99 c 35.72,7.18 69.42,23.92 96.85,47.89 15.3,13.44 28.54,29.15 39.55,46.27 13.45,21.58 23.19,45.53 28.09,70.51 -6.72,2.18 -13.63,4.49 -19.06,9.19 -8.71,-54.19 -43,-103.26 -90.17,-131.09 -12.66,-7.52 -26.22,-13.5 -40.27,-17.87 -5.02,-1.66 -10.13,-3.07 -15.34,-4.02 0.52,-6.95 0.15,-13.92 0.35,-20.88 z"
       id="path904" />
    <path
       fill="#ca742b"
       opacity="1"
       d="m 91.65,286.44 c 6.85,-2.31 13.89,-4.71 19.42,-9.57 0.29,7.43 2.34,14.61 4.44,21.69 5.12,17.67 12.91,34.57 23.01,49.95 26.62,41.02 69.63,71.59 117.66,81.52 -0.04,7.02 0.1,14.04 -0.15,21.06 -34.74,-6.98 -67.64,-22.9 -94.57,-45.93 -8.73,-7.45 -17.2,-15.27 -24.57,-24.08 -4.07,-5.55 -8.95,-10.5 -12.5,-16.42 -2.53,-4.16 -5.13,-8.26 -7.66,-12.41 -3.23,-5.37 -7.51,-10.16 -9.6,-16.16 -1.43,-4.34 -3.91,-8.2 -6.92,-11.61 0.81,-0.35 1.62,-0.69 2.43,-1.03 -5.14,-11.84 -8.29,-24.4 -11.2,-36.93 z"
       id="path906" />
    <path
       fill="#ca742b"
       opacity="1"
       d="m 484.68,277.58 c 5.43,4.45 12.21,6.58 18.76,8.79 l 0.24,0.09 c -3.82,18.24 -9.89,35.99 -18.18,52.7 0.3,0.3 0.89,0.92 1.18,1.22 -0.57,0.21 -1.73,0.64 -2.31,0.85 -3.18,8.6 -7.58,16.7 -12.86,24.18 -2.61,5.78 -7.66,9.72 -11.45,14.64 -6.7,8.35 -14.5,15.73 -22.03,23.31 -3.12,3.18 -7.05,5.36 -10.47,8.18 -3.45,2.69 -6.58,6.02 -10.8,7.51 -1.8,0.66 -3.61,1.36 -5.21,2.46 -21.92,14.39 -46.67,24.32 -72.35,29.56 -0.29,-6.93 -0.13,-13.88 -0.33,-20.81 39.46,-8.66 75.97,-30.4 102.21,-61.15 22.63,-25.73 37.5,-57.88 43.6,-91.53 z"
       id="path908" />
  </g>
  <g
     id="#e4594dff"
     transform="translate(393.36942,-34.973742)">
    <path
       fill="#e4594d"
       opacity="1"
       d="m 495.17,45.91 c 6.27,-1.88 13.21,2.71 14.27,9.08 0.97,6.47 -4.59,13.44 -11.38,12.87 -6.94,0.45 -12.67,-7.25 -10.72,-13.8 0.78,-3.99 3.96,-7.1 7.83,-8.15 z"
       id="path911" />
    <path
       fill="#e4594d"
       opacity="1"
       d="m 97.72,75.55 c 5.7,-3.25 11.91,-5.73 18.38,-6.89 11.4,-1.41 23.49,-0.23 33.61,5.54 4.34,2.58 9.03,4.94 12.15,9.05 -4.77,6.06 -10.94,10.78 -15.92,16.65 -6.86,6.21 -11.96,13.98 -18.2,20.76 -6.97,9.13 -12.29,19.4 -17.95,29.36 -4.53,-0.72 -9.06,-1.72 -13.67,-1.56 -5.06,0.2 -9.56,2.79 -13.99,4.99 -0.34,-0.68 -0.7,-1.36 -1.08,-2.03 C 73.09,139.74 69.79,124.84 72.71,110.94 75.76,96.44 84.8,83.02 97.72,75.55 Z"
       id="path913" />
    <path
       fill="#e4594d"
       opacity="1"
       d="m 514.15,116.01 c 5.81,-1.19 12.4,-1.13 17.44,2.38 7.56,4.5 11.69,14.02 9.57,22.59 -1.74,8.98 -10.02,16.1 -19.13,16.63 -10.16,1.14 -20.2,-6.51 -22.32,-16.4 -0.73,-4.25 -0.55,-8.74 0.95,-12.81 2.53,-5.74 7.46,-10.52 13.49,-12.39 z"
       id="path915" />
    <path
       fill="#e4594d"
       opacity="1"
       d="m 288.25,168.55 c 16.87,-2.3 34.43,1.53 49.03,10.26 14.7,8.99 26.64,22.79 32.51,39.08 6.04,15.87 6.45,33.75 1.52,49.97 -6,19.66 -20.2,36.75 -38.64,45.91 -13.04,6.79 -28.07,9.52 -42.68,8.1 -19.22,-1.74 -37.57,-11.17 -50.28,-25.68 -7.58,-8.65 -13.34,-18.98 -16.41,-30.08 -4.89,-16.91 -3.61,-35.5 3.4,-51.64 1.44,-3.2 3.18,-6.26 4.49,-9.51 1.14,2.62 2.35,5.22 3.45,7.87 1.16,4.19 4.84,6.69 8.03,9.27 -4.85,12.73 -5.87,26.97 -1.87,40.07 5.38,18.14 19.98,33.33 38.04,39.09 12.98,4.45 27.56,4.15 40.3,-0.97 11.33,-4.21 20.98,-12.4 27.74,-22.35 8.54,-12.41 11.74,-28.23 9.12,-43.02 -3.05,-19.1 -16.45,-35.98 -33.99,-43.92 -13.87,-6.46 -30,-6.54 -44.49,-2.13 -3.3,-5.02 -7.93,-8.89 -13.08,-11.9 7.08,-5 15.92,-5.42 23.81,-8.42 z"
       id="path917" />
    <path
       fill="#e4594d"
       opacity="1"
       d="m 64.98,359.23 c 5.2,-16.43 18.82,-29.64 35.23,-34.75 3.01,3.41 5.49,7.27 6.92,11.61 2.09,6 6.37,10.79 9.6,16.16 2.53,4.15 5.13,8.25 7.66,12.41 3.55,5.92 8.43,10.87 12.5,16.42 7.37,8.81 15.84,16.63 24.57,24.08 -2.8,4.04 -6.05,7.76 -9.61,11.15 -5.04,-0.36 -10.41,-0.03 -14.82,2.68 -3.4,1.88 -5.64,5.14 -8.26,7.91 -1.62,2 -4.45,1.76 -6.77,1.99 -5.43,0.1 -10.99,0.53 -16.29,-0.97 -3.89,-1.09 -7.83,-1.96 -11.76,-2.9 C 81.26,419.49 71.2,408.64 66.07,395.84 61.52,384.23 61.01,371.08 64.98,359.23 Z"
       id="path919" />
    <path
       fill="#e4594d"
       opacity="1"
       d="m 484.37,341.23 c 0.58,-0.21 1.74,-0.64 2.31,-0.85 12.42,9.94 20.67,25.51 20.09,41.61 0.47,12.76 -4.71,25.27 -12.9,34.9 -9.17,10.1 -22.11,17.01 -35.86,17.72 -15.09,1.15 -30.88,-4.39 -41.25,-15.56 4.22,-1.49 7.35,-4.82 10.8,-7.51 3.42,-2.82 7.35,-5 10.47,-8.18 7.53,-7.58 15.33,-14.96 22.03,-23.31 3.79,-4.92 8.84,-8.86 11.45,-14.64 5.28,-7.48 9.68,-15.58 12.86,-24.18 z"
       id="path921" />
    <path
       fill="#e4594d"
       opacity="1"
       d="m 528.29,402.32 c 6.24,-2.99 14.23,1.88 14.41,8.79 0.97,6.98 -7.1,13.22 -13.58,10.43 -4.38,-1.57 -7.52,-6.32 -6.84,-10.99 0.39,-3.57 2.93,-6.56 6.01,-8.23 z"
       id="path923" />
  </g>
  <g
     id="#42354dff"
     transform="translate(393.36942,-34.973742)">
    <path
       fill="#42354d"
       opacity="1"
       d="m 125.63,164.66 c 24.21,-52.36 73.6,-92.38 130.04,-104.62 0.34,2.07 0.69,4.14 1.04,6.21 1.85,12.58 10.01,23.97 21.26,29.87 8.42,4.84 18.56,5.61 28,4.08 18.55,-3.54 33.46,-21.26 32.75,-40.33 5.21,0.95 10.32,2.36 15.34,4.02 -4.11,-1 -8.14,-2.48 -12.36,-2.92 -0.39,0.3 -1.16,0.9 -1.55,1.21 -1.78,1.19 -1.09,3.38 0.91,3.75 8.67,2.94 17.17,6.44 25.36,10.56 14.95,8.6 29.63,18.05 41.96,30.21 9.1,8.92 17.98,18.2 25.22,28.73 14.52,20.2 24.54,43.52 30.12,67.73 2.6,12.11 4.55,24.48 4.09,36.9 -0.22,5.97 0.34,11.92 0.15,17.89 -2.58,39.53 -17.99,78.11 -43.46,108.47 -5.78,7.52 -12.72,14.01 -19.81,20.26 -18.27,16.9 -40.42,29.23 -63.7,37.74 -1.98,-0.88 -1.34,-3.78 -2.01,-5.55 -0.49,-0.31 -1.47,-0.94 -1.96,-1.25 -3.49,-9.99 -10.52,-18.84 -19.98,-23.73 -11.98,-6.34 -27.19,-6.49 -39.1,0.12 -13.06,6.96 -21.82,21.16 -21.76,36.02 -48.03,-9.93 -91.04,-40.5 -117.66,-81.52 -10.1,-15.38 -17.89,-32.28 -23.01,-49.95 -2.1,-7.08 -4.15,-14.26 -4.44,-21.69 10.12,-8.37 16.13,-21.69 14.87,-34.86 -0.66,-11.3 -6.49,-21.92 -15.16,-29.09 2.37,-16.73 7.85,-32.92 14.85,-48.26 M 294.5,115.75 c -4.22,2.14 -4.45,9.03 -0.27,11.33 4.16,2.9 10.47,-1.21 9.63,-6.18 -0.2,-4.5 -5.5,-6.85 -9.36,-5.15 m -23.14,1.76 c -4.33,2.41 -3.9,9.68 0.84,11.33 3.95,2 9.02,-1.45 8.69,-5.84 0.55,-4.76 -5.75,-8.41 -9.53,-5.49 m 45.91,-0.21 c -4.61,2.09 -4.23,10.21 0.8,11.51 3.17,1.43 7.39,-0.45 8.25,-3.87 2.19,-5.01 -4.44,-10.77 -9.05,-7.64 m -67.98,4.19 c -4.59,1.99 -4.45,9.08 -0.24,11.39 4.11,2.37 9.77,-1.19 9.58,-5.83 -0.05,-4.42 -5.4,-7.99 -9.34,-5.56 m 90.96,-0.24 c -4,1.62 -5.52,7.65 -1.85,10.4 3.19,3.9 10.38,1.4 10.63,-3.57 1.13,-4.74 -4.52,-9.02 -8.78,-6.83 m -112.91,7.32 c -4.32,2.08 -4.38,9.09 -0.08,11.2 4.03,2.61 10,-1.15 9.43,-5.88 0.12,-4.55 -5.47,-7.76 -9.35,-5.32 m 134.84,-0.35 c -4.35,1.46 -5.37,7.72 -1.87,10.62 3.41,3.49 10.18,1.14 10.47,-3.77 1.11,-4.69 -4.27,-8.98 -8.6,-6.85 M 206.3,138.23 c -3.6,1.96 -4.14,7.8 -0.85,10.32 3.65,3.13 10.71,0.62 10.4,-4.56 0.86,-5 -5.57,-8.43 -9.55,-5.76 m 175.23,0.34 c -1.94,1.21 -2.27,3.64 -3.07,5.59 0.91,1.51 1.66,3.18 2.94,4.45 3.69,3.02 10.51,0.45 10.31,-4.65 0.43,-2.81 -1.71,-4.77 -3.46,-6.58 -2.25,0.19 -4.89,-0.48 -6.72,1.19 m -104.49,2.38 c -28.92,3.46 -56.81,14.66 -80.35,31.76 -26.01,18.57 -46.69,44.04 -61.31,72.33 19.58,38.3 50.98,71.19 90.26,89.38 25.9,12.1 54.9,17.64 83.43,15.59 27.77,-1.7 54.9,-10.84 78.56,-25.37 30.92,-19.05 55.61,-47.41 72.09,-79.63 -20.78,-40.5 -54.8,-75.13 -97.34,-92.37 -26.8,-11.2 -56.52,-15.35 -85.34,-11.69 m 125.74,8.67 c -3.96,1.08 -5.69,6.61 -3.02,9.74 2.57,4.01 9.7,3.09 11.04,-1.56 1.78,-3.42 -1.09,-6.43 -3.42,-8.57 -1.54,0.08 -3.09,0.08 -4.6,0.39 m -218.37,9.01 c 2.33,5.14 11.23,3.94 11.96,-1.71 0.85,-3.26 -1.62,-5.85 -4.03,-7.59 -1.57,0.04 -3.14,0.06 -4.7,0.07 -2.85,2.02 -5.38,5.77 -3.23,9.23 m 237.01,4.82 c -4.17,0.84 -6.75,6.51 -3.78,9.92 2.51,3.88 9.11,3.49 10.89,-0.88 2.73,-4.48 -2.19,-10.39 -7.11,-9.04 m -255.78,6.51 c 0.1,4.3 5.06,7.7 9.05,5.66 3.29,-1.19 3.96,-4.89 4,-7.96 -1.84,-1.9 -3.62,-4.73 -6.7,-4.21 -3.59,-0.36 -6.24,3.22 -6.35,6.51 m -16.37,13.77 c 0.28,2.14 -0.05,4.68 1.73,6.28 2.6,3.07 8.44,2.9 10.25,-0.93 2.61,-3.8 -0.6,-9.85 -5.28,-9.64 -3.07,-0.47 -4.92,2.31 -6.7,4.29 m 284.48,-1.85 c -0.38,1.41 -0.79,2.81 -1.2,4.21 0.93,3.62 4.41,7.2 8.44,5.76 4.83,-1.1 6.46,-8.26 2.29,-11.11 -2.9,-2.58 -7.02,-1.27 -9.53,1.14 m -280.4,116.68 c -4.58,1.6 -5.18,8.62 -1.03,11.11 4.05,3.17 10.61,-0.65 10.03,-5.67 -0.21,-4.31 -5.06,-7.14 -9,-5.44 m 280.09,3.39 c -0.59,2.56 -0.54,5.85 1.99,7.39 3.56,3.19 9.99,0.4 10.19,-4.33 0.54,-2.5 -1.2,-4.46 -2.63,-6.25 -1.38,-0.38 -2.76,-0.77 -4.12,-1.18 -2.03,1.09 -4.67,1.95 -5.43,4.37 m -263.21,12.4 c -4.14,1.2 -5.89,7.05 -2.85,10.23 3.29,4.38 11.04,1.8 11.24,-3.62 0.52,-4.42 -4.23,-7.99 -8.39,-6.61 m 251.06,-0.09 c -2.2,0.58 -3.97,2.43 -4.59,4.6 -1.3,4.48 3.6,8.99 8,7.69 3.34,-1.13 5.92,-5.01 4.33,-8.51 -1.02,-3.21 -4.68,-4.43 -7.74,-3.78 m -231.11,13.93 c -4.73,-0.27 -8.13,5.79 -5.41,9.68 2.39,4.22 9.92,3.91 11.4,-0.94 1.72,-4.02 -1.54,-9.05 -5.99,-8.74 m 209.03,3.9 c -1.91,3.89 1.45,9.05 5.84,8.64 3.12,0.41 4.86,-2.52 6.63,-4.52 -0.29,-2.32 -0.44,-4.93 -2.5,-6.43 -2.85,-3.07 -8.74,-1.64 -9.97,2.31 m -190.03,8.09 c -4.22,-0.04 -7.03,5.1 -5.28,8.8 1.48,4.9 9.41,5.02 11.48,0.48 2.66,-4.07 -1.5,-10.02 -6.2,-9.28 m 174.02,0.26 c -4.28,1.46 -5.29,7.45 -2.27,10.58 3.43,3.32 10.54,1.59 10.83,-3.6 1.04,-4.73 -4.1,-8.85 -8.56,-6.98 m -156.85,10.82 c -3.43,2.58 -2.7,8.54 1.16,10.35 3.92,2.55 9.75,-0.95 9.31,-5.63 0.4,-3.11 -2.4,-4.93 -4.48,-6.62 -2.06,0.35 -4.4,0.33 -5.99,1.9 m 132.03,4.76 c -0.39,4.63 5.39,7.76 9.31,5.68 2.25,-1.06 2.89,-3.67 3.95,-5.69 -0.89,-1.86 -1.46,-4.06 -3.23,-5.31 -3.79,-3.08 -10.5,0.36 -10.03,5.32 m -16.94,0.59 c -3.68,1.04 -6.38,5.61 -4.25,9.16 2.14,4.91 10.46,4.51 11.82,-0.81 1.84,-4.52 -2.99,-9.53 -7.57,-8.35 m -92.17,0.7 c -4.63,2.09 -4.32,10.34 0.85,11.52 3.55,1.62 8.06,-1.05 8.48,-4.89 1.09,-4.86 -5.07,-9.35 -9.33,-6.63 m 23.01,3.97 c -4.27,1.65 -5.36,8.28 -1.4,10.87 3.22,3.02 9.08,1.07 10.03,-3.19 1.93,-4.86 -4.05,-10.12 -8.63,-7.68 m 45.16,0.32 c -4.24,2.06 -4.44,9.02 -0.12,11.08 3.93,2.69 9.86,-1.02 9.42,-5.66 0.3,-4.57 -5.48,-7.95 -9.3,-5.42 m -22.07,0.94 c -4.44,1.43 -5.56,8.18 -1.8,10.95 3.58,3.3 10.56,0.5 10.34,-4.55 0.68,-4.54 -4.45,-7.9 -8.54,-6.4 z"
       id="path926" />
    <path
       fill="#42354d"
       opacity="1"
       d="m 77.56,158.3 c 1.27,-2.24 2.87,-4.34 3.49,-6.88 0.38,0.67 0.74,1.35 1.08,2.03 0.45,0.91 0.88,1.84 1.33,2.76 -1.3,-0.01 -2.61,-0.02 -3.91,-0.03 -0.67,0.69 -1.34,1.4 -1.99,2.12 z"
       id="path928" />
  </g>
  <g
     id="#bd3d32ff"
     transform="translate(393.36942,-34.973742)">
    <path
       fill="#bd3d32"
       opacity="1"
       d="m 451.3,79.48 c 6.53,-0.55 13.61,-0.63 19.37,2.98 9.1,4.71 15.64,14.19 16.02,24.53 0.98,9.87 -3.44,20.04 -11.22,26.16 -11.01,-17.12 -24.25,-32.83 -39.55,-46.27 4.48,-3.57 9.53,-6.85 15.38,-7.4 z"
       id="path931" />
    <path
       fill="#bd3d32"
       opacity="1"
       d="m 82.13,153.45 c 4.43,-2.2 8.93,-4.79 13.99,-4.99 4.61,-0.16 9.14,0.84 13.67,1.56 -2.69,6.82 -6.04,13.36 -8.53,20.26 -3.99,9.94 -6.69,20.33 -9.2,30.72 -8.25,-2.16 -15.48,-8.37 -18.47,-16.4 -3.74,-8.6 -1.71,-19.05 3.97,-26.3 0.65,-0.72 1.32,-1.43 1.99,-2.12 1.3,0.01 2.61,0.02 3.91,0.03 -0.45,-0.92 -0.88,-1.85 -1.33,-2.76 z"
       id="path933" />
    <path
       fill="#bd3d32"
       opacity="1"
       d="m 260.32,177.1 c 8.98,-3.79 18.1,-7.67 27.93,-8.55 -7.89,3 -16.73,3.42 -23.81,8.42 5.15,3.01 9.78,6.88 13.08,11.9 14.49,-4.41 30.62,-4.33 44.49,2.13 17.54,7.94 30.94,24.82 33.99,43.92 2.62,14.79 -0.58,30.61 -9.12,43.02 -6.76,9.95 -16.41,18.14 -27.74,22.35 -12.74,5.12 -27.32,5.42 -40.3,0.97 -18.06,-5.76 -32.66,-20.95 -38.04,-39.09 -4,-13.1 -2.98,-27.34 1.87,-40.07 -3.19,-2.58 -6.87,-5.08 -8.03,-9.27 5.66,8.93 17.09,12.81 27.2,10.26 -2.98,6.96 -6.28,14.13 -5.68,21.92 -0.92,21.22 17.66,40.64 38.74,41.45 8.58,0.72 17.15,-1.72 24.53,-6.01 11.85,-7.54 19.96,-21.26 19.36,-35.47 0.49,-11.27 -4.57,-22.39 -12.76,-30.02 -12.1,-12.24 -32.14,-14.5 -47.34,-7 -0.24,-0.43 -0.7,-1.28 -0.94,-1.71 l 0.01,-0.82 c 3.5,-12.18 -5.16,-25.77 -17.44,-28.33 z"
       id="path935" />
    <path
       fill="#bd3d32"
       opacity="1"
       d="m 523.47,336.51 c 5.07,-3.24 11.51,-5.51 17.42,-3.19 7.42,2.32 12.85,9.82 12.6,17.61 0.08,4.17 -1.75,8.12 -4.18,11.41 -1.6,1.86 -4.04,2.77 -5.51,4.78 -4.95,1.79 -10.55,2.19 -15.57,0.49 -4.32,-2.01 -8.13,-5.47 -9.81,-10 -3.27,-7.17 -0.71,-16.02 5.05,-21.1 z"
       id="path937" />
    <path
       fill="#bd3d32"
       opacity="1"
       d="m 137.03,418.99 c 4.41,-2.71 9.78,-3.04 14.82,-2.68 5.89,1.33 11.52,4.81 14.61,10.13 4.31,6.17 4.29,14.62 1.42,21.37 -3.39,5.76 -8.87,11.06 -15.8,11.81 -4.22,0.41 -8.76,0.71 -12.65,-1.27 -6.94,-3.1 -12.53,-9.77 -13.14,-17.49 -0.56,-3.99 0.19,-8 1.61,-11.72 -11.4,1.48 -23.52,1.33 -33.95,-4.12 3.93,0.94 7.87,1.81 11.76,2.9 5.3,1.5 10.86,1.07 16.29,0.97 2.32,-0.23 5.15,0.01 6.77,-1.99 2.62,-2.77 4.86,-6.03 8.26,-7.91 z"
       id="path939" />
  </g>
  <g
     id="#c3cecdff"
     transform="translate(393.36942,-34.973742)">
    <path
       fill="#c3cecd"
       opacity="1"
       d="m 272.3,158.71 c 12.49,-1.71 25.15,-1.51 37.71,-1.11 17.79,1.52 35.46,5.77 51.52,13.7 12.09,5.27 23.44,12.22 33.56,20.69 7.85,6.69 15.91,13.25 22.45,21.28 3.82,4.75 7.88,9.34 11.19,14.47 3.79,5.65 8.06,11.1 10.97,17.27 -0.33,2.84 -2.79,4.88 -4.13,7.32 -7.21,11.92 -16.23,22.63 -25.74,32.76 -10.01,9.42 -20.49,18.53 -32.36,25.55 -9.29,5.36 -18.94,10.14 -29.02,13.79 -12.39,4.31 -25.37,6.84 -38.41,8.14 l -0.25,-0.05 c -7.4,-1.02 -14.96,0.98 -22.37,-0.65 32.25,-4.67 62.74,-19.69 86.41,-42.04 14,-12.98 25.68,-28.31 35.3,-44.77 -15.2,-26.51 -36.48,-49.8 -62.76,-65.63 -17.52,-10.6 -37.13,-17.95 -57.44,-20.77 -5.49,-0.91 -10.96,0.49 -16.45,0.66 z"
       id="path942" />
  </g>
  <g
     id="#fdfefdff"
     transform="translate(393.36942,-34.973742)">
    <path
       fill="#fdfefd"
       opacity="1"
       d="m 272.48,159.32 c 5.49,-0.17 10.96,-1.57 16.45,-0.66 20.31,2.82 39.92,10.17 57.44,20.77 26.28,15.83 47.56,39.12 62.76,65.63 -9.62,16.46 -21.3,31.79 -35.3,44.77 -23.67,22.35 -54.16,37.37 -86.41,42.04 7.41,1.63 14.97,-0.37 22.37,0.65 -9.5,0.51 -19.11,0.06 -28.64,-0.3 -37.6,-4.09 -73.17,-22.69 -98.79,-50.38 -10.3,-10.83 -19.1,-23 -26.75,-35.83 -0.67,-1.52 0.84,-2.79 1.36,-4.1 18.21,-30.68 45.09,-56.75 77.87,-71.34 12,-5.28 24.6,-9.59 37.64,-11.25 m 15.77,9.23 c -9.83,0.88 -18.95,4.76 -27.93,8.55 12.28,2.56 20.94,16.15 17.44,28.33 l -0.01,0.82 -0.1,-0.15 c -1.53,8.13 -8.38,14.1 -15.81,16.99 -10.11,2.55 -21.54,-1.33 -27.2,-10.26 -1.1,-2.65 -2.31,-5.25 -3.45,-7.87 -1.31,3.25 -3.05,6.31 -4.49,9.51 -7.01,16.14 -8.29,34.73 -3.4,51.64 3.07,11.1 8.83,21.43 16.41,30.08 12.71,14.51 31.06,23.94 50.28,25.68 14.61,1.42 29.64,-1.31 42.68,-8.1 18.44,-9.16 32.64,-26.25 38.64,-45.91 4.93,-16.22 4.52,-34.1 -1.52,-49.97 -5.87,-16.29 -17.81,-30.09 -32.51,-39.08 -14.6,-8.73 -32.16,-12.56 -49.03,-10.26 z"
       id="path945" />
    <path
       fill="#fdfefd"
       opacity="1"
       d="m 280.3,221.55 c 5.51,-3.13 13.34,0.3 14.5,6.6 2.12,7.39 -6.3,14.67 -13.34,11.54 -7.74,-2.63 -8.52,-14.57 -1.16,-18.14 z"
       id="path947" />
  </g>
</svg>
