<?xml version="1.0" encoding="UTF-8" standalone="no"?>
<svg
   width="1433.2036pt"
   height="250pt"
   viewBox="0 0 1433.2036 250"
   version="1.1"
   id="svg858"
   sodipodi:docname="thesentinel.svg"
   inkscape:version="1.1.1 (c3084ef, 2021-09-22)"
   xmlns:inkscape="http://www.inkscape.org/namespaces/inkscape"
   xmlns:sodipodi="http://sodipodi.sourceforge.net/DTD/sodipodi-0.dtd"
   xmlns="http://www.w3.org/2000/svg"
   xmlns:svg="http://www.w3.org/2000/svg">
  <defs
     id="defs862" />
  <sodipodi:namedview
     id="namedview860"
     pagecolor="#ffffff"
     bordercolor="#999999"
     borderopacity="1"
     inkscape:pageshadow="0"
     inkscape:pageopacity="0"
     inkscape:pagecheckerboard="0"
     inkscape:document-units="pt"
     showgrid="false"
     fit-margin-top="0"
     fit-margin-left="0"
     fit-margin-right="0"
     fit-margin-bottom="0"
     inkscape:zoom="0.32535594"
     inkscape:cx="299.6718"
     inkscape:cy="545.55635"
     inkscape:window-width="1312"
     inkscape:window-height="969"
     inkscape:window-x="0"
     inkscape:window-y="38"
     inkscape:window-maximized="0"
     inkscape:current-layer="svg858"
     height="230pt" />
  <g
     id="#312256ff"
     transform="translate(-87.666266,-121.347)">
    <path
       fill="#312256"
       opacity="1"
       d="m 234.02,137.82 c 7.47,0.03 14.72,-1.85 21.87,-3.82 2.48,15.03 5.02,30.07 7.48,45.11 -0.51,0.18 -1.53,0.55 -2.04,0.73 -3.81,-8.22 -8.58,-15.99 -14.01,-23.24 -3.63,-5.02 -8.19,-9.75 -14.19,-11.78 -7.06,-2.39 -14.61,-2.27 -21.97,-2.39 -7.85,-0.26 -15.7,-0.16 -23.55,-0.19 -0.37,36.58 -0.2,73.17 -0.24,109.75 0.05,10.33 -0.2,20.68 0.45,31 0.18,3.43 0.95,7.05 3.48,9.56 4.44,5.13 11.51,6.11 17.73,7.64 1.6,-0.05 2.12,1.45 2.85,2.57 -25.46,0.47 -50.96,0.26 -76.42,0.1 0.3,-0.54 0.91,-1.64 1.22,-2.19 5.7,-1.22 11.9,-1.69 16.71,-5.36 2.76,-2.16 5.92,-4.5 6.68,-8.13 1.93,-8.22 1.44,-16.74 1.66,-25.12 0.74,-39.93 0.25,-79.88 0.41,-119.81 -10.02,-0.05 -20.04,0.03 -30.05,0.32 -8.87,0.08 -18.33,2.17 -24.64,8.86 -7.78,8.52 -14.04,18.42 -18.54,29.04 -1.13,-1.31 -1.49,-2.76 -1.08,-4.35 2.17,-13.66 4.32,-27.32 6.4,-40.99 5.52,1.09 11.06,2.27 16.71,2.45 24.32,1.18 48.68,0.69 73.02,0.8 16.69,0.06 33.37,-0.49 50.06,-0.56 z"
       id="path833" />
    <path
       fill="#312256"
       opacity="1"
       d="m 592.78,134.3 c 17.04,-1.79 35.41,0.56 49.68,10.69 3.06,-3 4.71,-7.56 8.94,-9.2 0.37,14.75 0.37,29.53 0,44.28 -1.31,-0.81 -2.89,-1.44 -3.3,-3.08 -5.45,-13.3 -13.45,-26.44 -26.15,-33.89 -8.51,-5.49 -19.25,-6.81 -29.05,-4.71 -7.88,1.57 -15.48,5.8 -20.04,12.54 -5.49,7.92 -6.56,18.3 -4.49,27.55 2.37,9.51 10.68,15.93 19.04,20.13 11.3,5.34 23.37,8.77 35.15,12.89 6.63,2.27 13.21,4.95 18.93,9.08 8.12,5.66 14.61,13.95 17.09,23.64 3.34,13.25 1.69,28.33 -6.89,39.33 -9.1,12.57 -24.53,18.75 -39.57,20.26 -19.2,1.97 -39.77,0.65 -56.75,-9.36 -2.59,2.47 -4.8,5.29 -6.88,8.19 -0.56,0.06 -1.67,0.18 -2.23,0.25 -0.14,-15.69 -0.61,-31.38 -0.5,-47.06 3.62,1.89 3.8,6.39 5.73,9.58 6.01,11.59 13.68,23.16 25.3,29.73 8.97,4.5 19.17,7.26 29.24,5.81 8.82,-0.98 17.58,-4.65 23.63,-11.28 7.55,-8.09 9.8,-20.18 7.36,-30.76 -1.74,-7.47 -7.18,-13.53 -13.68,-17.32 -9.4,-5.44 -20,-8.17 -30.12,-11.92 -9.48,-3.37 -19.51,-6.06 -27.64,-12.25 -8.87,-6.47 -15.37,-16.19 -17.92,-26.87 -2.43,-12.9 0.07,-27.1 8.41,-37.49 8.59,-11.48 22.86,-17.09 36.71,-18.76 z"
       id="path835" />
    <path
       fill="#312256"
       opacity="1"
       d="m 286.02,140.17 c 4.44,-1.97 8.75,-4.27 13.41,-5.7 -0.04,27.19 -0.57,54.37 -0.62,81.55 6.84,-12.62 19.54,-21.85 33.66,-24.39 8.55,-1.33 18.38,-0.21 24.77,6.18 6.73,7.01 8.07,17.19 8.32,26.49 0.22,23.57 -0.13,47.15 0.17,70.72 1.66,6.62 10.81,3.23 14.49,7.6 -16.16,0.87 -32.39,0.14 -48.58,0.38 -0.02,-0.86 -0.04,-1.72 -0.05,-2.58 4.19,-0.53 8.56,-0.66 12.5,-2.35 2.32,-1.01 2.1,-3.94 2.18,-6.04 -0.06,-18.67 0.02,-37.34 -0.04,-56.01 -0.21,-6.79 -0.52,-13.82 -3.26,-20.14 -2.35,-5.6 -7.77,-9.75 -13.79,-10.53 -8.49,-1.08 -17.85,0.64 -24.23,6.68 -3.51,2.9 -5.87,7.26 -5.7,11.88 0.03,23.38 -0.07,46.75 0.04,70.13 -0.29,3.66 3.6,5.27 6.62,5.65 2.47,0.71 6.04,-0.1 6.98,3.07 -15.58,0.55 -31.18,0.1 -46.77,0.23 0,-0.58 -0.01,-1.75 -0.01,-2.33 3.81,-0.53 7.73,-0.9 11.28,-2.49 2.19,-1.17 2.69,-3.83 2.61,-6.1 0.01,-43.03 -0.01,-86.06 0.01,-129.09 -0.11,-1.86 0.12,-4.13 -1.5,-5.43 -3.75,-3.27 -8.49,-5.04 -12.64,-7.71 6.34,-3.93 13.46,-6.4 20.15,-9.67 z"
       id="path837" />
    <path
       fill="#312256"
       opacity="1"
       d="m 1250.4,146.98 c 11.76,-4.31 23.73,-8.09 35.71,-11.74 0.04,52.62 0,105.25 0.02,157.88 -0.12,2.24 0.42,5.08 2.96,5.73 4.58,1.39 9.48,0.98 14.2,1.54 -0.01,0.65 -0.05,1.96 -0.06,2.61 -18,-0.01 -36,0.01 -54,-0.01 0.01,-0.63 0.03,-1.91 0.04,-2.54 4.69,-0.48 9.55,-0.59 14.04,-2.22 2.52,-0.83 3.74,-3.61 3.56,-6.11 0.02,-43.72 -0.01,-87.45 0.02,-131.17 -0.13,-1.78 0.15,-4.02 -1.54,-5.17 -4.65,-3.47 -10.05,-5.74 -14.95,-8.8 z"
       id="path839" />
    <path
       fill="#312256"
       opacity="1"
       d="m 993.43,142.52 c 5.82,-1.21 12.42,2 14.33,7.78 2.68,6.96 -2.12,15.73 -9.67,16.57 -7.5,1.52 -15.14,-5.25 -14.58,-12.85 0,-5.57 4.42,-10.69 9.92,-11.5 z"
       id="path841" />
    <path
       fill="#312256"
       opacity="1"
       d="m 921.53,180.44 c 2.84,-2.83 5.71,-5.7 9.09,-7.93 0.51,6.98 0.15,14 0.25,20.99 14.29,0 28.59,0 42.89,0.01 -2.35,4.73 -4.89,9.37 -7.21,14.11 -11.73,0 -23.46,0.01 -35.18,0 0.01,20.47 -0.01,40.95 0,61.42 0.12,6.21 1.09,13.23 6.12,17.49 5.61,5.1 14.08,5.23 20.99,3.12 4.66,-1.34 7.69,-5.32 11.22,-8.35 -0.97,5.5 -4.48,10.2 -8.43,13.98 -8.41,7.52 -20.72,9.59 -31.52,7.16 -9.57,-2.3 -18.73,-10.96 -17.89,-21.41 0.07,-24.47 0.5,-48.93 0.51,-73.4 -5.84,-0.08 -11.68,0.18 -17.5,-0.21 0.95,-3.54 4.03,-5.64 6.58,-8 6.65,-6.37 13.35,-12.68 20.08,-18.98 z"
       id="path843" />
    <path
       fill="#312256"
       opacity="1"
       d="m 416.82,195.02 c 10.4,-4.82 22.44,-4.68 33.42,-2.06 9.5,2.24 18.38,7.88 23.55,16.28 3.98,5.97 5.6,13.1 6.36,20.13 -24.78,0 -49.57,0.01 -74.35,-0.01 -1.8,15.5 1.02,32.31 11.19,44.59 10.93,13.31 31,17.23 46.59,10.56 7.44,-3.33 13.68,-9.45 16.58,-17.13 0.46,0.09 1.39,0.29 1.86,0.39 -2.9,12.44 -10.88,23.77 -22.25,29.83 -11.93,7.01 -26.94,6.96 -39.74,2.47 -12.89,-4.54 -23.06,-15.15 -28.35,-27.6 -6.39,-14.9 -7.72,-32.36 -1.85,-47.64 4.7,-12.9 14.36,-24.16 26.99,-29.81 m 8.79,2.7 c -10.05,6.31 -16.62,17.03 -19.54,28.38 10.98,0.18 21.96,-0.3 32.95,-0.46 4.85,-0.11 9.91,0.35 14.56,-1.33 3.18,-2.34 3.91,-6.67 3.43,-10.37 -0.55,-8.35 -6.81,-16 -14.96,-18.01 -5.44,-1.32 -11.57,-1.25 -16.44,1.79 z"
       id="path845" />
    <path
       fill="#312256"
       opacity="1"
       d="m 703.45,196.39 c 11.56,-6.42 25.65,-6.39 38.13,-2.92 10.12,2.73 19.04,9.81 23.64,19.27 2.65,5.14 3.74,10.91 4.32,16.63 -24.78,-0.01 -49.57,0.03 -74.35,-0.02 -1.68,15.63 1.05,32.65 11.52,44.92 10.74,12.8 29.96,16.62 45.28,10.7 8,-3.2 14.54,-9.69 17.7,-17.72 l 1.75,0.6 c -2.83,12.39 -10.85,23.54 -22.05,29.67 -12.73,7.46 -28.92,7.16 -42.3,1.57 -12.24,-5 -21.54,-15.67 -26.48,-27.75 -4.12,-10.16 -5.82,-21.33 -4.76,-32.25 1.9,-17.43 11.88,-34.39 27.6,-42.7 m 10.74,1.84 c -9.51,6.47 -15.94,16.82 -18.68,27.89 13.06,0.15 26.12,-0.5 39.18,-0.53 4.06,-0.17 9.52,-0.11 11.04,-4.8 2.98,-9.32 -2.51,-20.31 -11.54,-23.92 -6.39,-2.53 -14.17,-2.59 -20,1.36 z"
       id="path847" />
    <path
       fill="#312256"
       opacity="1"
       d="m 790.04,197.89 c 6.74,-2.33 13.39,-4.96 20.19,-7.13 0.06,8.67 -0.04,17.35 0.06,26.02 6.73,-9.65 15.07,-18.82 26.26,-23.22 9.81,-4.14 22.51,-3.23 30.18,4.71 6.87,7.42 9.43,17.83 9.51,27.72 0.05,22.69 -0.04,45.39 0.03,68.08 -0.37,3.3 3.14,4.92 5.84,5.48 3.06,0.98 6.91,0.25 9.12,3.06 -2.4,0.33 -4.81,0.43 -7.22,0.41 -13.64,-0.05 -27.27,0.01 -40.9,-0.03 0,-0.64 0.01,-1.91 0.01,-2.54 3.81,-0.45 7.78,-0.59 11.37,-2.1 1.94,-0.99 2.38,-3.31 2.27,-5.3 -0.01,-18.36 -0.02,-36.71 0,-55.07 0.1,-8.76 -0.85,-18.19 -6.26,-25.42 -4.26,-5.63 -11.9,-7.09 -18.56,-6.47 -8.73,0.4 -15.63,6.69 -21.32,12.7 -0.29,24.74 -0.04,49.51 -0.13,74.27 -0.44,3.44 2.29,6.45 5.68,6.67 2.54,0.84 6.67,-0.43 7.39,3.12 -15.11,0.33 -30.22,0.07 -45.34,0.14 0.01,-0.56 0.04,-1.68 0.05,-2.24 4.71,-1.04 12.88,-1.14 12.93,-7.7 0.13,-26.02 -0.02,-52.04 0.08,-78.05 -0.09,-1.93 0.16,-4.37 -1.61,-5.65 -3.72,-2.71 -8.06,-4.37 -12.09,-6.54 3.94,-2.13 8.27,-3.37 12.46,-4.92 z"
       id="path849" />
    <path
       fill="#312256"
       opacity="1"
       d="m 973.92,201.44 c 10.83,-3.67 21.71,-7.28 32.66,-10.61 0.15,34.4 -0.07,68.81 0.11,103.21 -0.1,4.01 4.22,5.47 7.52,5.72 2.73,0.67 6.55,-0.31 7.89,2.92 -8.36,0.68 -16.77,0.16 -25.14,0.32 -8.69,-0.17 -17.39,0.36 -26.05,-0.32 0.39,-0.47 1.16,-1.43 1.55,-1.9 4.46,-1.04 9.7,-0.68 13.3,-3.99 1.69,-1.42 1.6,-3.8 1.64,-5.8 -0.06,-25.68 -0.01,-51.35 -0.03,-77.02 -0.09,-1.74 -0.04,-3.79 -1.41,-5.07 -3.39,-3.08 -7.97,-4.19 -11.91,-6.32 -0.03,-0.29 -0.1,-0.86 -0.13,-1.14 z"
       id="path851" />
    <path
       fill="#312256"
       opacity="1"
       d="m 1032.58,202.4 c 10.56,-4.24 21.36,-7.9 32.11,-11.63 0.16,8.68 -0.06,17.37 0.13,26.05 6.42,-9.42 14.49,-18.24 25.16,-22.81 9.89,-4.58 23.03,-4.01 31.01,4.05 7.09,7.42 9.63,18.02 9.74,28.03 0.04,21.97 0.03,43.94 -0.01,65.92 0.04,1.57 -0.06,3.21 0.52,4.72 3.36,3.59 8.69,2.94 12.98,4.39 0.39,0.38 1.16,1.15 1.54,1.53 -16.01,0.8 -32.09,0.13 -48.12,0.35 -0.03,-0.85 -0.04,-1.7 -0.05,-2.54 3.9,-0.49 7.99,-0.57 11.62,-2.23 2.19,-1.27 2.01,-4.02 2.06,-6.2 -0.05,-18.68 0,-37.37 -0.03,-56.05 -0.06,-8.2 -1.29,-17.01 -6.47,-23.66 -4.46,-5.57 -12.19,-6.93 -18.92,-6.17 -8.43,0.55 -14.93,6.72 -20.61,12.34 -0.56,24.83 -0.08,49.74 -0.24,74.6 -0.28,2.84 1.4,5.74 4.32,6.34 2.97,1.14 7.3,-0.21 8.98,3.23 -7.08,0.69 -14.21,0.19 -21.3,0.34 -8.31,-0.14 -16.63,0.31 -24.92,-0.27 1.18,-3.13 4.88,-2.38 7.45,-3.36 3.02,-0.64 6.39,-2.78 6.17,-6.27 0.14,-26.06 -0.01,-52.13 0.07,-78.19 -0.11,-1.62 0.11,-3.42 -0.87,-4.82 -3.46,-3.53 -8.9,-4.24 -12.32,-7.69 z"
       id="path853" />
    <path
       fill="#312256"
       opacity="1"
       d="m 1178.68,196.71 c 9.23,-5.34 20.34,-6.43 30.75,-4.94 9.52,1.25 19.05,5.04 25.62,12.26 6.49,6.8 9.61,16.1 10.34,25.34 -24.78,0 -49.56,0.01 -74.34,-0.01 -1.56,14.53 0.6,30.12 9.37,42.18 12.06,17.57 39.74,21.71 56.22,8.12 4.56,-3.33 6.89,-8.56 9.64,-13.29 1.27,2.99 -0.31,5.97 -1.34,8.74 -4.77,12.04 -15.03,21.73 -27.29,25.87 -18.84,6 -41.32,-0.39 -53.41,-16.25 -9.39,-12.05 -13.47,-27.69 -12.79,-42.82 1.04,-18.23 11.02,-36.27 27.23,-45.2 m 12.11,1.02 c -9.97,6.36 -16.53,17.08 -19.42,28.39 12.91,0.16 25.81,-0.5 38.72,-0.52 3.08,-0.18 6.37,-0.14 9.19,-1.57 4.52,-4.37 3.42,-11.52 1.32,-16.81 -4.69,-11.05 -19.6,-15.44 -29.81,-9.49 z"
       id="path855" />
  </g>
  <path
     fill="#312256"
     opacity="1"
     d="m 1336.1665,2.8252042 c 17.95,-4.3099994 37.16,-3.77999942 54.67,2.22 7.51,2.84 15.24,5.5099998 21.82,10.2299998 1.6,1.07 2.7,2.66 3.83,4.18 -1.14,2.240001 -2.74,4.170001 -4.9,5.490001 -7.28,-5.000001 -16.31,-6.560001 -25,-6.000001 -10.52,0.4 -20.76,7.350001 -24.18,17.450001 -2.65,6.42 -0.88,13.78 -3.93,20.07 -1.32,3.67 -5.04,5.49 -8.23,7.24 2.02,13.53 13.85,22.37 18.25,34.88 1.25,3.829995 0.6,8.439995 -2.39,11.289995 -5.19,4.14001 -11.96,5.02001 -18.14,6.87001 l -0.62,0.58 c -0.05,14.1 2.61,29.17 12.28,40.04 6.23,7.32 15.28,12.36 24.92,13.09 13.99,1.69 29.03,-1.89 39.71,-11.37 1.59,-1.06 2.95,-3.32 5.14,-2.68 2.41,1.56 5.55,4.76 2.63,7.41 -7.76,8.76 -17.5,15.66 -27.75,21.22 -31.11,16.2 -71.15,13.72 -99.82,-6.57 -12.97,-8.52 -23.33,-20.6 -30.87,-34.1 -10.45,-19.17 -13.86,-41.95001 -10.18,-63.420005 2.35,-14.95 9.02,-28.92 17.62,-41.26 13.32,-18.220001 33.32,-31.2800008 55.14,-36.8600008 m -2.25,19.8900008 c -6.24,5.86 -9.9,14.67 -8.94,23.24 0.67,4.99 5.53,7.84 10.05,8.79 4.24,0.81 8.86,1.58 13.04,0.15 4.29,-2 3.62,-7.35 4.08,-11.25 0.44,-8.69 3.8,-17.44 10.81,-22.910001 6.31,-5.46 14.68,-7.44 22.81,-8.12 -7.84,-2.36 -16.02,-3.8099998 -24.22,-3.3299998 -10.49,0.64 -20.54,5.7099998 -27.63,13.4300008 m -15.21,41.64 c -3.95,0.72 -8.08,2.45 -10.25,6.02 -1.32,3.02 -1.61,6.98 0.65,9.65 2.71,0.96 5.81,0.6 8.33,-0.73 1.29,-1.52 2.05,-3.4 3.25,-4.98 2.14,-1.07 4.75,-0.82 6.86,0.19 1.49,1.34 0.64,3.48 0.18,5.11 -2.24,6.51 -9.83,9 -16.13,9.05 -5.1,0.34 -9.75,-2.31 -13.36,-5.68 -3.26,0.52 -6.48,1.8 -8.68,4.34 -6.39,6.25 -6.96,16.329995 -4.39,24.450005 2.53,8.65 13.35,13.27 21.47,9.58 10.76,-6.14 13.58,-20.21001 24.29,-26.330005 0.88,5.519995 3.54,10.429995 6.79,14.899995 7.23,-0.85 14.9,-1.47 21.27,-5.3 1.18,-0.58 1.26,-2.11 1.4,-3.24 -2.15,-6.469995 -7.18,-11.359995 -10.68,-17.079995 -4.04,-5.92 -7.14,-12.56 -8.14,-19.71 -7.56,-0.99 -15.32,-1.64 -22.86,-0.24 m 6.82,57.030005 c -3.17,4.07 -3.33,9.51 -3.19,14.44 5.89,-0.43 11.76,-0.99 17.63,-1.58 -0.53,-5.21 -1.24,-10.39 -1.28,-15.63 -4.38,0.64 -9.77,-0.81 -13.16,2.77 m -1.29,23.11 c 3.12,9 9.09,16.98 17,22.33 11.08,7.53 24.5,11.06 37.77,11.67 -5.75,-1.79 -11.8,-3.22 -16.69,-6.94 -10.01,-6.62 -16.62,-17.3 -20.01,-28.64 -6.02,0.48 -12.04,1.13 -18.07,1.58 z"
     id="path1093" />
</svg>
