<?xml version="1.0" encoding="UTF-8" standalone="no"?>
<!-- Created with Inkscape (http://www.inkscape.org/) -->

<svg
   xmlns:dc="http://purl.org/dc/elements/1.1/"
   xmlns:cc="http://creativecommons.org/ns#"
   xmlns:rdf="http://www.w3.org/1999/02/22-rdf-syntax-ns#"
   xmlns:svg="http://www.w3.org/2000/svg"
   xmlns="http://www.w3.org/2000/svg"
   xmlns:sodipodi="http://sodipodi.sourceforge.net/DTD/sodipodi-0.dtd"
   xmlns:inkscape="http://www.inkscape.org/namespaces/inkscape"
   width="139"
   height="60"
   viewBox="0 0 36.777083 15.875"
   version="1.1"
   id="svg8"
   inkscape:version="0.92.1 r15371"
   sodipodi:docname="eclipse_ticker_plain.svg"
   inkscape:export-filename="C:\Users\jedli\Dropbox\megagames\webassets\eclipse_ticker_plain.png"
   inkscape:export-xdpi="96"
   inkscape:export-ydpi="96">
  <defs
     id="defs2" />
  <sodipodi:namedview
     id="base"
     pagecolor="#ffffff"
     bordercolor="#666666"
     borderopacity="1.0"
     inkscape:pageopacity="0.0"
     inkscape:pageshadow="2"
     inkscape:zoom="7.9999999"
     inkscape:cx="87.907321"
     inkscape:cy="29.412408"
     inkscape:document-units="px"
     inkscape:current-layer="layer1"
     showgrid="false"
     units="px"
     inkscape:window-width="1920"
     inkscape:window-height="1137"
     inkscape:window-x="-8"
     inkscape:window-y="-8"
     inkscape:window-maximized="1"
     inkscape:showpageshadow="false"
     showborder="true"
     showguides="false">
    <inkscape:grid
       type="xygrid"
       id="grid4497" />
  </sodipodi:namedview>
  <metadata
     id="metadata5">
    <rdf:RDF>
      <cc:Work
         rdf:about="">
        <dc:format>image/svg+xml</dc:format>
        <dc:type
           rdf:resource="http://purl.org/dc/dcmitype/StillImage" />
        <dc:title />
      </cc:Work>
    </rdf:RDF>
  </metadata>
  <g
     inkscape:label="Layer 1"
     inkscape:groupmode="layer"
     id="layer1"
     transform="translate(0,-281.12498)">
    <rect
       style="opacity:1;fill:#474a84;fill-opacity:1;stroke:none;stroke-width:0.64964187;stroke-linecap:square;stroke-linejoin:round;stroke-miterlimit:4;stroke-dasharray:none;stroke-dashoffset:0;stroke-opacity:1"
       id="rect8374-7-3-9-0-3-2-5-2-9-7-7-7-37-2-1-8-79-3-0-4-5"
       width="36.777084"
       height="15.875"
       x="-2.0051193e-008"
       y="281.12497"
       inkscape:export-xdpi="90"
       inkscape:export-ydpi="90" />
    <path
       inkscape:connector-curvature="0"
       id="path7367-2-6"
       style="font-style:normal;font-variant:normal;font-weight:normal;font-stretch:normal;font-size:medium;line-height:1.25;font-family:'Gotham Bold';-inkscape-font-specification:'Gotham Bold, ';letter-spacing:-5.35108709px;word-spacing:0px;fill:#ffffff;fill-opacity:1;stroke:none;stroke-width:0.24436751"
       d="m 9.0214552,288.63876 q -0.069934,-0.48781 -0.3596121,-0.78433 -0.2896783,-0.30607 -0.7691488,-0.30607 -0.4794547,0 -0.7791457,0.29651 -0.289661,0.29652 -0.3795853,0.79389 z m -0.9789171,3.07994 q -0.5993461,0 -1.1187815,-0.19131 -0.5094248,-0.19128 -0.8890101,-0.5452 -0.3695901,-0.35391 -0.5793572,-0.83216 -0.2097665,-0.48782 -0.2097665,-1.08085 v -0.0191 q 0,-0.54522 0.1897764,-1.03301 0.1998042,-0.48783 0.5494043,-0.8513 0.3496011,-0.36348 0.8290888,-0.5739 0.4894496,-0.21044 1.078802,-0.21044 0.6692793,0 1.1587295,0.22957 0.4894514,0.22956 0.8091139,0.62173 0.3296263,0.38259 0.4794723,0.88954 0.159823,0.49737 0.159823,1.04257 0,0.086 -0.01011,0.18175 0,0.0956 -0.01011,0.20086 H 6.7537286 q 0.109881,0.49737 0.4495018,0.75564 0.3496174,0.2487 0.8590737,0.2487 0.3795853,0 0.6792256,-0.12429 0.2996897,-0.1243 0.6193383,-0.40174 l 0.869051,0.7365 q -0.3796013,0.44956 -0.9189785,0.70782 -0.5394249,0.24869 -1.2686115,0.24869 z" />
    <path
       id="path10918-8-6-59-7-2-0"
       style="font-style:normal;font-variant:normal;font-weight:bold;font-stretch:normal;font-size:medium;line-height:125%;font-family:'Gotham Bold';-inkscape-font-specification:'Gotham Bold, Bold';letter-spacing:-1.4389019px;word-spacing:0px;fill:#ffcc00;fill-opacity:1;stroke:none;stroke-width:0.12952965"
       d="m 22.318423,293.41336 q 0.110696,0 0.207842,-0.0429 l -0.257543,-0.21915 0.221395,-0.2485 0.259802,0.23495 q 0.04293,-0.0948 0.04293,-0.21688 v -0.005 q 0,-0.10171 -0.03615,-0.19202 -0.03389,-0.0903 -0.0994,-0.15809 -0.06325,-0.0677 -0.151364,-0.1062 -0.08811,-0.0407 -0.192026,-0.0407 -0.10618,0 -0.194285,0.0384 -0.08585,0.0384 -0.149106,0.1062 -0.06099,0.0677 -0.09715,0.15809 -0.03389,0.0881 -0.03389,0.18976 v 0.005 q 0,0.10171 0.03389,0.19203 0.03615,0.0903 0.0994,0.1581 0.06551,0.0677 0.151365,0.10843 0.08811,0.0385 0.194283,0.0385 z m 0.465382,0.18525 q -0.101662,0.0655 -0.219135,0.10171 -0.117472,0.0338 -0.250764,0.0338 -0.182991,0 -0.336609,-0.0633 -0.153623,-0.0655 -0.266578,-0.17395 -0.110696,-0.11068 -0.173954,-0.25754 -0.06099,-0.14912 -0.06099,-0.31854 v -0.005 q 0,-0.16944 0.06325,-0.31628 0.06325,-0.14913 0.173952,-0.25979 0.112955,-0.11292 0.266576,-0.17622 0.155882,-0.0655 0.338869,-0.0655 0.182991,0 0.336612,0.0655 0.153623,0.0633 0.264318,0.17394 0.112955,0.10844 0.173954,0.25756 0.06325,0.14688 0.06325,0.31627 v 0.005 q 0,0.1243 -0.03615,0.23948 -0.03615,0.11516 -0.103921,0.21462 l 0.162657,0.13775 -0.221396,0.24625 -0.173952,-0.15585 z"
       inkscape:connector-curvature="0" />
    <path
       id="path10920-5-95-0-7-7-0"
       style="font-style:normal;font-variant:normal;font-weight:bold;font-stretch:normal;font-size:medium;line-height:125%;font-family:'Gotham Bold';-inkscape-font-specification:'Gotham Bold, Bold';letter-spacing:-1.4389019px;word-spacing:0px;fill:#ffcc00;fill-opacity:1;stroke:none;stroke-width:0.12952965"
       d="m 23.938467,293.73189 q -0.318539,0 -0.501528,-0.1762 -0.182989,-0.17621 -0.182989,-0.52638 v -0.90366 h 0.347906 v 0.89462 q 0,0.19429 0.09037,0.2937 0.09037,0.0971 0.250764,0.0971 0.160398,0 0.250765,-0.0948 0.09037,-0.0948 0.09037,-0.28466 v -0.90591 h 0.347906 v 0.89236 q 0,0.18072 -0.0497,0.31402 -0.04744,0.13326 -0.137813,0.22365 -0.09037,0.0881 -0.219134,0.13327 -0.12878,0.0429 -0.286912,0.0429 z"
       inkscape:connector-curvature="0" />
    <path
       id="path10922-0-8-05-1-9-7"
       style="font-style:normal;font-variant:normal;font-weight:bold;font-stretch:normal;font-size:medium;line-height:125%;font-family:'Gotham Bold';-inkscape-font-specification:'Gotham Bold, Bold';letter-spacing:-1.4389019px;word-spacing:0px;fill:#ffcc00;fill-opacity:1;stroke:none;stroke-width:0.12952965"
       d="m 25.588969,293.04512 -0.210097,-0.51282 -0.210101,0.51282 z m -0.365979,-0.93076 h 0.320797 l 0.67774,1.59269 h -0.36372 l -0.144589,-0.35469 h -0.668706 l -0.144589,0.35469 h -0.35468 z"
       inkscape:connector-curvature="0" />
    <path
       id="path10924-2-3-5-8-7-4"
       style="font-style:normal;font-variant:normal;font-weight:bold;font-stretch:normal;font-size:medium;line-height:125%;font-family:'Gotham Bold';-inkscape-font-specification:'Gotham Bold, Bold';letter-spacing:-1.4389019px;word-spacing:0px;fill:#ffcc00;fill-opacity:1;stroke:none;stroke-width:0.12952965"
       d="m 27.000243,292.89377 q 0.128764,0 0.196545,-0.061 0.07003,-0.061 0.07003,-0.16266 v -0.005 q 0,-0.11292 -0.07229,-0.16945 -0.07229,-0.0565 -0.201062,-0.0565 H 26.64782 v 0.45409 h 0.352425 z m -0.700332,-0.76812 h 0.722923 q 0.300466,0 0.460864,0.16042 0.13554,0.1355 0.13554,0.36145 v 0.005 q 0,0.19203 -0.09489,0.31402 -0.09263,0.11965 -0.243986,0.17621 l 0.386311,0.56479 h -0.406642 l -0.338869,-0.50605 h -0.0045 -0.268838 v 0.50605 h -0.347907 v -1.5814 z"
       inkscape:connector-curvature="0" />
    <path
       id="path10926-5-6-4-4-2-6"
       style="font-style:normal;font-variant:normal;font-weight:bold;font-stretch:normal;font-size:medium;line-height:125%;font-family:'Gotham Bold';-inkscape-font-specification:'Gotham Bold, Bold';letter-spacing:-1.4389019px;word-spacing:0px;fill:#ffcc00;fill-opacity:1;stroke:none;stroke-width:0.12952965"
       d="m 28.156966,292.44645 h -0.481195 v -0.3208 h 1.310296 v 0.3208 h -0.481195 v 1.2606 h -0.347906 z"
       inkscape:connector-curvature="0" />
    <path
       id="path10928-8-4-7-3-5-3"
       style="font-style:normal;font-variant:normal;font-weight:bold;font-stretch:normal;font-size:medium;line-height:125%;font-family:'Gotham Bold';-inkscape-font-specification:'Gotham Bold, Bold';letter-spacing:-1.4389019px;word-spacing:0px;fill:#ffcc00;fill-opacity:1;stroke:none;stroke-width:0.12952965"
       d="m 29.09799,292.12565 h 1.192821 v 0.30951 h -0.847176 v 0.32079 h 0.745514 v 0.30951 h -0.745514 v 0.33209 h 0.858472 v 0.3095 H 29.09799 Z"
       inkscape:connector-curvature="0" />
    <path
       id="path10930-1-00-9-4-7-2"
       style="font-style:normal;font-variant:normal;font-weight:bold;font-stretch:normal;font-size:medium;line-height:125%;font-family:'Gotham Bold';-inkscape-font-specification:'Gotham Bold, Bold';letter-spacing:-1.4389019px;word-spacing:0px;fill:#ffcc00;fill-opacity:1;stroke:none;stroke-width:0.12952965"
       d="m 31.114365,292.89377 q 0.128764,0 0.196545,-0.061 0.07003,-0.061 0.07003,-0.16266 v -0.005 q 0,-0.11292 -0.07229,-0.16945 -0.07229,-0.0565 -0.201064,-0.0565 H 30.76194 v 0.45409 h 0.352425 z m -0.70033,-0.76812 h 0.722921 q 0.300466,0 0.460863,0.16042 0.135555,0.1355 0.135555,0.36145 v 0.005 q 0,0.19203 -0.09489,0.31402 -0.09263,0.11965 -0.243984,0.17621 l 0.386313,0.56479 h -0.406647 l -0.338867,-0.50605 h -0.0045 -0.268835 v 0.50605 h -0.347907 v -1.5814 z"
       inkscape:connector-curvature="0" />
    <path
       id="path10932-9-9-8-7-3-4"
       style="font-style:normal;font-variant:normal;font-weight:bold;font-stretch:normal;font-size:medium;line-height:125%;font-family:'Gotham Bold';-inkscape-font-specification:'Gotham Bold, Bold';letter-spacing:-1.4389019px;word-spacing:0px;fill:#ffcc00;fill-opacity:1;stroke:none;stroke-width:0.12952965"
       d="m 31.86023,292.12565 h 0.347908 v 1.26512 h 0.788434 v 0.31628 H 31.86023 Z"
       inkscape:connector-curvature="0" />
    <path
       id="path10934-9-3-1-4-3-8"
       style="font-style:normal;font-variant:normal;font-weight:bold;font-stretch:normal;font-size:medium;line-height:125%;font-family:'Gotham Bold';-inkscape-font-specification:'Gotham Bold, Bold';letter-spacing:-1.4389019px;word-spacing:0px;fill:#ffcc00;fill-opacity:1;stroke:none;stroke-width:0.12952965"
       d="m 33.12229,293.08353 -0.607704,-0.95788 h 0.406642 l 0.377276,0.63482 0.384054,-0.63482 h 0.395345 l -0.607704,0.9511 v 0.6303 H 33.12229 Z"
       inkscape:connector-curvature="0" />
    <path
       inkscape:connector-curvature="0"
       id="path7369-5-2"
       style="font-style:normal;font-variant:normal;font-weight:normal;font-stretch:normal;font-size:medium;line-height:1.25;font-family:'Gotham Bold';-inkscape-font-specification:'Gotham Bold, ';letter-spacing:-5.35108709px;word-spacing:0px;fill:#ffffff;fill-opacity:1;stroke:none;stroke-width:0.23912497"
       d="m 13.397743,291.7187 q -0.573894,0 -1.071267,-0.21042 -0.487822,-0.21046 -0.841726,-0.56434 -0.353904,-0.36347 -0.554768,-0.84173 -0.200864,-0.48781 -0.200864,-1.03303 v -0.0191 q 0,-0.54522 0.200864,-1.03301 0.200864,-0.48783 0.554768,-0.8513 0.353904,-0.36348 0.841726,-0.5739 0.497373,-0.21044 1.090395,-0.21044 0.726952,0 1.205199,0.22957 0.47825,0.22956 0.841725,0.63129 l -0.889548,0.9565 q -0.248688,-0.25825 -0.516516,-0.4113 -0.258258,-0.15313 -0.650416,-0.15313 -0.277383,0 -0.506945,0.11485 -0.219992,0.10523 -0.392174,0.29651 -0.162595,0.1913 -0.258242,0.44955 -0.08609,0.24868 -0.08609,0.53564 v 0.0192 q 0,0.29651 0.08609,0.55476 0.09565,0.25826 0.267814,0.44954 0.172166,0.19132 0.411299,0.3061 0.239115,0.10523 0.535642,0.10523 0.36346,0 0.631291,-0.14352 0.277383,-0.15312 0.545197,-0.40173 l 0.851279,0.86086 q -0.373031,0.41129 -0.851279,0.67912 -0.478249,0.25825 -1.243454,0.25825 z" />
    <path
       inkscape:connector-curvature="0"
       id="path7371-9-5"
       style="font-style:normal;font-variant:normal;font-weight:normal;font-stretch:normal;font-size:medium;line-height:1.25;font-family:'Gotham Bold';-inkscape-font-specification:'Gotham Bold, ';letter-spacing:-5.35108709px;word-spacing:0px;fill:#ffffff;fill-opacity:1;stroke:none;stroke-width:0.23912497"
       d="m 15.760059,284.62147 h 1.453889 v 6.98243 h -1.453889 z" />
    <path
       inkscape:connector-curvature="0"
       id="path7373-1-7"
       style="font-style:normal;font-variant:normal;font-weight:normal;font-stretch:normal;font-size:medium;line-height:1.25;font-family:'Gotham Bold';-inkscape-font-specification:'Gotham Bold, ';letter-spacing:-5.35108709px;word-spacing:0px;fill:#ffffff;fill-opacity:1;stroke:none;stroke-width:0.23912497"
       d="m 17.655184,286.47708 h 1.453871 v 5.12682 h -1.453871 z m -0.03826,-1.85561 h 1.530407 v 1.29127 h -1.530407 z" />
    <path
       inkscape:connector-curvature="0"
       id="path7375-0-1"
       style="font-style:normal;font-variant:normal;font-weight:normal;font-stretch:normal;font-size:medium;line-height:1.25;font-family:'Gotham Bold';-inkscape-font-specification:'Gotham Bold, ';letter-spacing:-5.35108709px;word-spacing:0px;fill:#ffffff;fill-opacity:1;stroke:none;stroke-width:0.23912497"
       d="m 22.228472,290.46567 q 0.258259,0 0.47825,-0.0956 0.229559,-0.10524 0.401727,-0.28694 0.172183,-0.19129 0.267829,-0.44956 0.105218,-0.25825 0.105218,-0.58345 v -0.0192 q 0,-0.31564 -0.105218,-0.57389 -0.09564,-0.26782 -0.267829,-0.44957 -0.172168,-0.1913 -0.401727,-0.28694 -0.219991,-0.10523 -0.47825,-0.10523 -0.258258,0 -0.487821,0.10523 -0.219988,0.0956 -0.392156,0.28694 -0.162612,0.18175 -0.267812,0.44957 -0.09567,0.25825 -0.09567,0.57389 v 0.0192 q 0,0.31563 0.09567,0.58345 0.105202,0.25827 0.267812,0.44956 0.172168,0.18174 0.392156,0.28694 0.229563,0.0956 0.487821,0.0956 z m -2.678198,-3.98859 h 1.453889 v 0.7365 q 0.267812,-0.36347 0.640843,-0.59303 0.382602,-0.23912 0.956497,-0.23912 0.449567,0 0.870421,0.17217 0.420854,0.17217 0.746064,0.51649 0.325222,0.3348 0.516515,0.83217 0.200863,0.48781 0.200863,1.12867 v 0.0192 q 0,0.64086 -0.200863,1.13823 -0.191293,0.48781 -0.516515,0.83215 -0.315638,0.33477 -0.736493,0.50694 -0.420869,0.17217 -0.879992,0.17217 -0.583466,0 -0.966053,-0.22956 -0.373045,-0.22955 -0.631287,-0.53564 v 2.19996 h -1.453889 z" />
    <path
       inkscape:connector-curvature="0"
       id="path7377-9-1"
       style="font-style:normal;font-variant:normal;font-weight:normal;font-stretch:normal;font-size:medium;line-height:1.25;font-family:'Gotham Bold';-inkscape-font-specification:'Gotham Bold, ';letter-spacing:-5.35108709px;word-spacing:0px;fill:#ffffff;fill-opacity:1;stroke:none;stroke-width:0.23912497"
       d="m 27.034404,291.69956 q -0.545199,0 -1.119093,-0.18174 -0.564342,-0.19129 -1.080858,-0.59302 l 0.621735,-0.9565 q 0.420854,0.30608 0.832154,0.45912 0.420852,0.15313 0.784329,0.15313 0.315637,0 0.459123,-0.10524 0.153046,-0.10523 0.153046,-0.2774 v -0.0191 q 0,-0.11485 -0.08609,-0.20088 -0.08609,-0.086 -0.239132,-0.14351 -0.143468,-0.0669 -0.334763,-0.1243 -0.191311,-0.0573 -0.401729,-0.12429 -0.267829,-0.0766 -0.545215,-0.18174 -0.267811,-0.11484 -0.487818,-0.28695 -0.219989,-0.18173 -0.363459,-0.43998 -0.133921,-0.25825 -0.133921,-0.63129 v -0.0191 q 0,-0.39217 0.143468,-0.68869 0.153046,-0.30606 0.401729,-0.5165 0.258258,-0.21043 0.593036,-0.31565 0.344335,-0.10523 0.736508,-0.10523 0.48782,0 0.985194,0.1626 0.506946,0.15313 0.9278,0.43044 l -0.554769,1.00432 q -0.382603,-0.22 -0.746062,-0.34434 -0.363475,-0.1339 -0.64086,-0.1339 -0.267814,0 -0.401729,0.10523 -0.133922,0.0956 -0.133922,0.24869 v 0.0191 q 0,0.10523 0.08609,0.19129 0.08608,0.0766 0.229561,0.15313 0.143468,0.067 0.325208,0.1339 0.191293,0.067 0.401728,0.13391 0.267814,0.086 0.545199,0.21044 0.277384,0.11484 0.49739,0.28695 0.219989,0.17217 0.363459,0.42086 0.143484,0.24868 0.143484,0.60259 v 0.0191 q 0,0.43043 -0.153047,0.74607 -0.143484,0.30609 -0.411298,0.50695 -0.267814,0.20086 -0.631289,0.30608 -0.353906,0.0956 -0.765204,0.0956 z" />
    <path
       inkscape:connector-curvature="0"
       id="path7367-3-0-4"
       style="font-style:normal;font-variant:normal;font-weight:normal;font-stretch:normal;font-size:medium;line-height:1.25;font-family:'Gotham Bold';-inkscape-font-specification:'Gotham Bold, ';letter-spacing:-5.35108709px;word-spacing:0px;fill:#ffffff;fill-opacity:1;stroke:none;stroke-width:0.24436751"
       d="m 32.897662,288.63876 q -0.06993,-0.48781 -0.359612,-0.78433 -0.289678,-0.30607 -0.769148,-0.30607 -0.479455,0 -0.779146,0.29651 -0.289662,0.29652 -0.379587,0.79389 z m -0.978917,3.07994 q -0.599347,0 -1.118781,-0.19131 -0.509424,-0.19128 -0.88901,-0.5452 -0.369591,-0.35391 -0.579356,-0.83216 -0.209768,-0.48782 -0.209768,-1.08085 v -0.0191 q 0,-0.54522 0.189776,-1.03301 0.199805,-0.48783 0.549405,-0.8513 0.349601,-0.36348 0.829088,-0.5739 0.489451,-0.21044 1.078803,-0.21044 0.669278,0 1.158728,0.22957 0.48945,0.22956 0.809115,0.62173 0.329628,0.38259 0.479473,0.88954 0.159821,0.49737 0.159821,1.04257 0,0.086 -0.01009,0.18175 0,0.0956 -0.01009,0.20086 h -3.72589 q 0.109879,0.49737 0.449503,0.75564 0.349613,0.2487 0.859073,0.2487 0.379585,0 0.679226,-0.12429 0.299689,-0.1243 0.619337,-0.40174 l 0.869051,0.7365 q -0.379601,0.44956 -0.918978,0.70782 -0.539426,0.24869 -1.268612,0.24869 z" />
    <path
       inkscape:connector-curvature="0"
       style="opacity:1;fill:#ffcc00;fill-opacity:1;stroke:none;stroke-width:0.75063276;stroke-linecap:butt;stroke-linejoin:miter;stroke-miterlimit:4;stroke-dasharray:none;stroke-opacity:1"
       d="m 7.9313721,283.65722 a 5.4201219,5.4201219 0 0 0 -5.4203409,5.42034 5.4201219,5.4201219 0 0 0 5.4203409,5.41983 5.4201219,5.4201219 0 0 0 0.5467369,-0.0289 5.4201219,5.4201219 0 0 1 -4.596102,-5.06998 4.0637288,4.0637288 0 0 1 -0.00982,-0.1943 5.4201219,5.4201219 0 0 1 -0.00465,-0.0899 5.4201219,5.4201219 0 0 1 5.292e-4,-0.0181 4.0637288,4.0637288 0 0 1 -5.292e-4,-0.0186 4.0637288,4.0637288 0 0 1 0.00517,-0.0997 5.4201219,5.4201219 0 0 1 0.01447,-0.29353 4.0637288,4.0637288 0 0 1 0.00465,-0.0403 5.4201219,5.4201219 0 0 1 4.8384645,-4.92063 5.4201219,5.4201219 0 0 0 -0.7989178,-0.0661 z"
       id="path4508" />
  </g>
</svg>
