<?xml version="1.0" encoding="UTF-8" standalone="no"?>
<!-- Created with Inkscape (http://www.inkscape.org/) -->

<svg
   xmlns:dc="http://purl.org/dc/elements/1.1/"
   xmlns:cc="http://creativecommons.org/ns#"
   xmlns:rdf="http://www.w3.org/1999/02/22-rdf-syntax-ns#"
   xmlns:svg="http://www.w3.org/2000/svg"
   xmlns="http://www.w3.org/2000/svg"
   xmlns:sodipodi="http://sodipodi.sourceforge.net/DTD/sodipodi-0.dtd"
   xmlns:inkscape="http://www.inkscape.org/namespaces/inkscape"
   width="291"
   height="60"
   viewBox="0 0 76.993746 15.875"
   version="1.1"
   id="svg8"
   inkscape:version="0.92.1 r15371"
   sodipodi:docname="eclipse_breakingnews.svg"
   inkscape:export-filename="C:\Users\jedli\Dropbox\megagames\webassets\nnn_header.png"
   inkscape:export-xdpi="480"
   inkscape:export-ydpi="480">
  <defs
     id="defs2" />
  <sodipodi:namedview
     id="base"
     pagecolor="#ffffff"
     bordercolor="#666666"
     borderopacity="1.0"
     inkscape:pageopacity="0.0"
     inkscape:pageshadow="2"
     inkscape:zoom="4"
     inkscape:cx="146.91926"
     inkscape:cy="2.840984"
     inkscape:document-units="px"
     inkscape:current-layer="layer1"
     showgrid="false"
     units="px"
     inkscape:window-width="1920"
     inkscape:window-height="1137"
     inkscape:window-x="-8"
     inkscape:window-y="-8"
     inkscape:window-maximized="1"
     inkscape:pagecheckerboard="true">
    <inkscape:grid
       type="xygrid"
       id="grid4497" />
  </sodipodi:namedview>
  <metadata
     id="metadata5">
    <rdf:RDF>
      <cc:Work
         rdf:about="">
        <dc:format>image/svg+xml</dc:format>
        <dc:type
           rdf:resource="http://purl.org/dc/dcmitype/StillImage" />
        <dc:title></dc:title>
      </cc:Work>
    </rdf:RDF>
  </metadata>
  <g
     inkscape:label="Layer 1"
     inkscape:groupmode="layer"
     id="layer1"
     transform="translate(0,-281.12498)">
    <path
       inkscape:connector-curvature="0"
       id="path7367-2-6"
       style="font-style:normal;font-variant:normal;font-weight:normal;font-stretch:normal;font-size:medium;line-height:1.25;font-family:'Gotham Bold';-inkscape-font-specification:'Gotham Bold, ';letter-spacing:-5.35108709px;word-spacing:0px;fill:#ffffff;fill-opacity:1;stroke:none;stroke-width:0.35488433"
       d="m 9.4781927,288.49175 q -0.1015563,-0.70842 -0.5222494,-1.13905 -0.4206873,-0.44449 -1.1170015,-0.44449 -0.6962912,0 -1.1315194,0.43061 -0.4206621,0.43062 -0.5512553,1.15293 z m -1.4216392,4.47287 q -0.8704043,0 -1.6247578,-0.27783 Q 5.6919801,292.409 5.1407249,291.89501 4.6039852,291.38105 4.2993496,290.6865 3.9947148,289.97807 3.9947148,289.11683 v -0.0277 q 0,-0.7918 0.275604,-1.5002 0.290167,-0.70845 0.797876,-1.23631 0.5077105,-0.52786 1.2040497,-0.83345 0.7108064,-0.30561 1.5666973,-0.30561 0.9719653,0 1.6827722,0.3334 0.71081,0.33338 1.175041,0.90291 0.478703,0.55562 0.696318,1.29184 0.232103,0.72231 0.232103,1.51408 0,0.12489 -0.01468,0.26394 0,0.13884 -0.01468,0.2917 H 6.1848714 q 0.1595754,0.72231 0.6527919,1.09739 0.5077342,0.36117 1.2475955,0.36117 0.5512553,0 0.9864099,-0.1805 0.4352264,-0.18051 0.8994388,-0.58343 l 1.2620855,1.06959 q -0.55128,0.65288 -1.3345937,1.02794 -0.7833834,0.36116 -1.8423495,0.36116 z" />
    <path
       id="path10918-8-6-59-7-2-0"
       style="font-style:normal;font-variant:normal;font-weight:bold;font-stretch:normal;font-size:medium;line-height:125%;font-family:'Gotham Bold';-inkscape-font-specification:'Gotham Bold, Bold';letter-spacing:-1.4389019px;word-spacing:0px;fill:#ffffff;fill-opacity:1;stroke:none;stroke-width:0.18811029"
       d="m 28.788801,295.4257 q 0.160759,0 0.30184,-0.0623 l -0.374019,-0.31827 0.321523,-0.36088 0.377299,0.34121 q 0.06235,-0.13768 0.06235,-0.31497 v -0.007 q 0,-0.14771 -0.0525,-0.27886 -0.04922,-0.13114 -0.144354,-0.22959 -0.09185,-0.0983 -0.21982,-0.15423 -0.127958,-0.0591 -0.278871,-0.0591 -0.154199,0 -0.282151,0.0558 -0.124677,0.0558 -0.21654,0.15423 -0.08857,0.0983 -0.141087,0.22959 -0.04922,0.12794 -0.04922,0.27558 v 0.007 q 0,0.14771 0.04922,0.27887 0.0525,0.13114 0.144354,0.22961 0.09514,0.0983 0.219821,0.15746 0.127958,0.0559 0.282149,0.0559 z m 0.675854,0.26903 q -0.147639,0.0951 -0.31824,0.14771 -0.1706,0.0491 -0.364174,0.0491 -0.26575,0 -0.488843,-0.0919 -0.2231,-0.0951 -0.387139,-0.25262 -0.160759,-0.16074 -0.252625,-0.37402 -0.08857,-0.21656 -0.08857,-0.4626 v -0.007 q 0,-0.24607 0.09185,-0.45932 0.09186,-0.21658 0.252623,-0.37728 0.16404,-0.16399 0.387139,-0.25592 0.226379,-0.0951 0.492123,-0.0951 0.265751,0 0.488847,0.0951 0.2231,0.0919 0.383857,0.25261 0.16404,0.15748 0.252626,0.37404 0.09185,0.21331 0.09185,0.4593 v 0.007 q 0,0.18051 -0.0525,0.34778 -0.0525,0.16724 -0.15092,0.31168 l 0.23622,0.20005 -0.321524,0.35762 -0.252623,-0.22633 z"
       inkscape:connector-curvature="0" />
    <path
       id="path10920-5-95-0-7-7-0"
       style="font-style:normal;font-variant:normal;font-weight:bold;font-stretch:normal;font-size:medium;line-height:125%;font-family:'Gotham Bold';-inkscape-font-specification:'Gotham Bold, Bold';letter-spacing:-1.4389019px;word-spacing:0px;fill:#ffffff;fill-opacity:1;stroke:none;stroke-width:0.18811029"
       d="m 31.14152,295.88828 q -0.4626,0 -0.728347,-0.25588 -0.265747,-0.25591 -0.265747,-0.76444 v -1.31235 h 0.505249 v 1.29922 q 0,0.28216 0.13124,0.42653 0.131241,0.14101 0.364174,0.14101 0.232939,0 0.364175,-0.13767 0.131241,-0.13768 0.131241,-0.4134 v -1.31562 h 0.505248 v 1.29594 q 0,0.26245 -0.07218,0.45604 -0.0689,0.19353 -0.20014,0.3248 -0.13124,0.12794 -0.318238,0.19354 -0.187022,0.0623 -0.41667,0.0623 z"
       inkscape:connector-curvature="0" />
    <path
       id="path10922-0-8-05-1-9-7"
       style="font-style:normal;font-variant:normal;font-weight:bold;font-stretch:normal;font-size:medium;line-height:125%;font-family:'Gotham Bold';-inkscape-font-specification:'Gotham Bold, Bold';letter-spacing:-1.4389019px;word-spacing:0px;fill:#ffffff;fill-opacity:1;stroke:none;stroke-width:0.18811029"
       d="m 33.538473,294.89092 -0.305115,-0.74475 -0.30512,0.74475 z m -0.531496,-1.3517 h 0.46588 l 0.984252,2.31299 h -0.528214 l -0.209981,-0.5151 h -0.971132 l -0.209981,0.5151 h -0.515086 z"
       inkscape:connector-curvature="0" />
    <path
       id="path10924-2-3-5-8-7-4"
       style="font-style:normal;font-variant:normal;font-weight:bold;font-stretch:normal;font-size:medium;line-height:125%;font-family:'Gotham Bold';-inkscape-font-specification:'Gotham Bold, Bold';letter-spacing:-1.4389019px;word-spacing:0px;fill:#ffffff;fill-opacity:1;stroke:none;stroke-width:0.18811029"
       d="m 35.588005,294.67112 q 0.186998,0 0.285434,-0.0886 0.101701,-0.0886 0.101701,-0.23622 v -0.007 q 0,-0.16399 -0.104983,-0.24609 -0.104984,-0.082 -0.291994,-0.082 h -0.501967 v 0.65945 h 0.511812 z m -1.017062,-1.11551 h 1.049871 q 0.436354,0 0.669293,0.23297 0.196839,0.19678 0.196839,0.52492 v 0.007 q 0,0.27888 -0.137805,0.45604 -0.134522,0.17376 -0.35433,0.2559 l 0.561023,0.82022 h -0.59055 l -0.492124,-0.73491 h -0.0065 -0.39042 v 0.73491 h -0.505252 v -2.2966 z"
       inkscape:connector-curvature="0" />
    <path
       id="path10926-5-6-4-4-2-6"
       style="font-style:normal;font-variant:normal;font-weight:bold;font-stretch:normal;font-size:medium;line-height:125%;font-family:'Gotham Bold';-inkscape-font-specification:'Gotham Bold, Bold';letter-spacing:-1.4389019px;word-spacing:0px;fill:#ffffff;fill-opacity:1;stroke:none;stroke-width:0.18811029"
       d="m 37.267863,294.0215 h -0.698818 v -0.46589 h 1.902886 v 0.46589 h -0.698819 v 1.83071 h -0.505247 z"
       inkscape:connector-curvature="0" />
    <path
       id="path10928-8-4-7-3-5-3"
       style="font-style:normal;font-variant:normal;font-weight:bold;font-stretch:normal;font-size:medium;line-height:125%;font-family:'Gotham Bold';-inkscape-font-specification:'Gotham Bold, Bold';letter-spacing:-1.4389019px;word-spacing:0px;fill:#ffffff;fill-opacity:1;stroke:none;stroke-width:0.18811029"
       d="m 38.634472,293.55561 h 1.732282 v 0.44949 h -1.230317 v 0.46587 h 1.082678 v 0.44949 h -1.082678 v 0.48228 h 1.246722 v 0.44947 h -1.748687 z"
       inkscape:connector-curvature="0" />
    <path
       id="path10930-1-00-9-4-7-2"
       style="font-style:normal;font-variant:normal;font-weight:bold;font-stretch:normal;font-size:medium;line-height:125%;font-family:'Gotham Bold';-inkscape-font-specification:'Gotham Bold, Bold';letter-spacing:-1.4389019px;word-spacing:0px;fill:#ffffff;fill-opacity:1;stroke:none;stroke-width:0.18811029"
       d="m 41.562766,294.67112 q 0.186999,0 0.285433,-0.0886 0.101702,-0.0886 0.101702,-0.23622 v -0.007 q 0,-0.16399 -0.104984,-0.24609 -0.104983,-0.082 -0.291995,-0.082 h -0.501968 v 0.65945 h 0.511812 z m -1.017059,-1.11551 h 1.049867 q 0.436353,0 0.669291,0.23297 0.196861,0.19678 0.196861,0.52492 v 0.007 q 0,0.27888 -0.137805,0.45604 -0.134523,0.17376 -0.354327,0.2559 l 0.561025,0.82022 h -0.590556 l -0.492121,-0.73491 h -0.0065 -0.390417 v 0.73491 h -0.50525 v -2.2966 z"
       inkscape:connector-curvature="0" />
    <path
       id="path10932-9-9-8-7-3-4"
       style="font-style:normal;font-variant:normal;font-weight:bold;font-stretch:normal;font-size:medium;line-height:125%;font-family:'Gotham Bold';-inkscape-font-specification:'Gotham Bold, Bold';letter-spacing:-1.4389019px;word-spacing:0px;fill:#ffffff;fill-opacity:1;stroke:none;stroke-width:0.18811029"
       d="m 42.645953,293.55561 h 0.505252 v 1.83728 h 1.145008 v 0.45932 h -1.65026 z"
       inkscape:connector-curvature="0" />
    <path
       id="path10934-9-3-1-4-3-8"
       style="font-style:normal;font-variant:normal;font-weight:bold;font-stretch:normal;font-size:medium;line-height:125%;font-family:'Gotham Bold';-inkscape-font-specification:'Gotham Bold, Bold';letter-spacing:-1.4389019px;word-spacing:0px;fill:#ffffff;fill-opacity:1;stroke:none;stroke-width:0.18811029"
       d="m 44.478788,294.9467 -0.882542,-1.39109 h 0.590548 l 0.547902,0.92192 0.557745,-0.92192 h 0.574142 l -0.882542,1.38124 v 0.91536 h -0.505253 z"
       inkscape:connector-curvature="0" />
    <path
       inkscape:connector-curvature="0"
       id="path7369-5-2"
       style="font-style:normal;font-variant:normal;font-weight:normal;font-stretch:normal;font-size:medium;line-height:1.25;font-family:'Gotham Bold';-inkscape-font-specification:'Gotham Bold, ';letter-spacing:-5.35108709px;word-spacing:0px;fill:#ffffff;fill-opacity:1;stroke:none;stroke-width:0.34727082"
       d="m 15.833686,292.96462 q -0.833441,0 -1.555755,-0.30559 -0.708442,-0.30564 -1.222402,-0.81956 -0.513959,-0.52786 -0.805665,-1.22241 -0.291706,-0.70843 -0.291706,-1.50023 v -0.0277 q 0,-0.7918 0.291706,-1.5002 0.291706,-0.70845 0.805665,-1.23631 0.51396,-0.52786 1.222402,-0.83345 0.722314,-0.30561 1.583534,-0.30561 1.05572,0 1.750258,0.3334 0.69454,0.33338 1.222399,0.91679 l -1.29185,1.38908 q -0.361159,-0.37504 -0.750114,-0.59731 -0.375057,-0.22238 -0.944571,-0.22238 -0.402831,0 -0.736214,0.16679 -0.319485,0.15282 -0.569538,0.43061 -0.236129,0.27781 -0.375033,0.65286 -0.125025,0.36115 -0.125025,0.77789 v 0.0279 q 0,0.43061 0.125025,0.80565 0.138908,0.37506 0.388934,0.65285 0.25003,0.27785 0.597312,0.44454 0.347256,0.15282 0.77789,0.15282 0.527837,0 0.916796,-0.20843 0.402832,-0.22237 0.791766,-0.58342 l 1.236274,1.25019 q -0.541736,0.5973 -1.236274,0.98626 -0.69454,0.37505 -1.805814,0.37505 z" />
    <path
       inkscape:connector-curvature="0"
       id="path7371-9-5"
       style="font-style:normal;font-variant:normal;font-weight:normal;font-stretch:normal;font-size:medium;line-height:1.25;font-family:'Gotham Bold';-inkscape-font-specification:'Gotham Bold, ';letter-spacing:-5.35108709px;word-spacing:0px;fill:#ffffff;fill-opacity:1;stroke:none;stroke-width:0.34727082"
       d="m 19.264373,282.65762 h 2.11142 v 10.14028 h -2.11142 z" />
    <path
       inkscape:connector-curvature="0"
       id="path7373-1-7"
       style="font-style:normal;font-variant:normal;font-weight:normal;font-stretch:normal;font-size:medium;line-height:1.25;font-family:'Gotham Bold';-inkscape-font-specification:'Gotham Bold, ';letter-spacing:-5.35108709px;word-spacing:0px;fill:#ffffff;fill-opacity:1;stroke:none;stroke-width:0.34727082"
       d="m 22.016581,285.35244 h 2.111394 v 7.44546 h -2.111394 z m -0.05556,-2.69482 h 2.222544 v 1.87525 h -2.222544 z" />
    <path
       inkscape:connector-curvature="0"
       id="path7375-0-1"
       style="font-style:normal;font-variant:normal;font-weight:normal;font-stretch:normal;font-size:medium;line-height:1.25;font-family:'Gotham Bold';-inkscape-font-specification:'Gotham Bold, ';letter-spacing:-5.35108709px;word-spacing:0px;fill:#ffffff;fill-opacity:1;stroke:none;stroke-width:0.34727082"
       d="m 28.658169,291.1449 q 0.375058,0 0.694542,-0.13884 0.333378,-0.15284 0.58341,-0.41671 0.250054,-0.2778 0.388957,-0.65288 0.152803,-0.37504 0.152803,-0.84732 v -0.0279 q 0,-0.45839 -0.152803,-0.83344 -0.138894,-0.38894 -0.388957,-0.65289 -0.250032,-0.27781 -0.58341,-0.41671 -0.319484,-0.15282 -0.694542,-0.15282 -0.375057,0 -0.708441,0.15282 -0.319479,0.13884 -0.569512,0.41671 -0.236154,0.26395 -0.388931,0.65289 -0.138938,0.37505 -0.138938,0.83344 v 0.0279 q 0,0.45838 0.138938,0.84732 0.15278,0.37508 0.388931,0.65288 0.250033,0.26393 0.569512,0.41671 0.333384,0.13884 0.708441,0.13884 z m -3.889431,-5.79246 h 2.11142 v 1.06959 q 0.388932,-0.52786 0.930669,-0.86124 0.555636,-0.34726 1.389079,-0.34726 0.652886,0 1.264074,0.25004 0.611188,0.25003 1.083477,0.75007 0.472305,0.48622 0.750112,1.20853 0.291705,0.70842 0.291705,1.63911 v 0.0279 q 0,0.93069 -0.291704,1.653 -0.277808,0.70843 -0.750112,1.2085 -0.458387,0.48617 -1.069577,0.7362 -0.61121,0.25004 -1.277974,0.25004 -0.847342,0 -1.402957,-0.33338 -0.541757,-0.33337 -0.91679,-0.77789 v 3.19491 h -2.11142 z" />
    <path
       inkscape:connector-curvature="0"
       id="path7377-9-1"
       style="font-style:normal;font-variant:normal;font-weight:normal;font-stretch:normal;font-size:medium;line-height:1.25;font-family:'Gotham Bold';-inkscape-font-specification:'Gotham Bold, ';letter-spacing:-5.35108709px;word-spacing:0px;fill:#ffffff;fill-opacity:1;stroke:none;stroke-width:0.34727082"
       d="m 35.637615,292.93682 q -0.791768,0 -1.62521,-0.26393 -0.819569,-0.27781 -1.569683,-0.86122 l 0.902919,-1.38908 q 0.611188,0.4445 1.208501,0.66676 0.611185,0.22238 1.139047,0.22238 0.458386,0 0.666764,-0.15284 0.222262,-0.15282 0.222262,-0.40285 v -0.0277 q 0,-0.16679 -0.125024,-0.29173 -0.125025,-0.12489 -0.347283,-0.20841 -0.208351,-0.0972 -0.486162,-0.18052 -0.277831,-0.0832 -0.583412,-0.1805 -0.388956,-0.11124 -0.791792,-0.26393 -0.38893,-0.16678 -0.708437,-0.41673 -0.31948,-0.26392 -0.527836,-0.63896 -0.194487,-0.37505 -0.194487,-0.9168 v -0.0277 q 0,-0.56953 0.208351,-1.00016 0.222262,-0.44448 0.583413,-0.75009 0.375059,-0.3056 0.861242,-0.4584 0.500063,-0.15282 1.069599,-0.15282 0.70844,0 1.430754,0.23613 0.736216,0.22239 1.347404,0.62511 l -0.805667,1.45853 q -0.555638,-0.31949 -1.083473,-0.50007 -0.527859,-0.19445 -0.930694,-0.19445 -0.388934,0 -0.583413,0.15282 -0.194489,0.13883 -0.194489,0.36116 v 0.0277 q 0,0.15282 0.125024,0.2778 0.125011,0.11124 0.333382,0.22238 0.208352,0.0973 0.472285,0.19446 0.277807,0.0973 0.583413,0.19447 0.388934,0.12489 0.791768,0.30561 0.402833,0.16678 0.722338,0.41673 0.319481,0.25003 0.527836,0.6112 0.208376,0.36114 0.208376,0.87511 v 0.0277 q 0,0.62509 -0.222264,1.08348 -0.208375,0.44453 -0.59731,0.73623 -0.388935,0.2917 -0.916794,0.4445 -0.513962,0.13884 -1.111272,0.13884 z" />
    <path
       inkscape:connector-curvature="0"
       id="path7367-3-0-4"
       style="font-style:normal;font-variant:normal;font-weight:normal;font-stretch:normal;font-size:medium;line-height:1.25;font-family:'Gotham Bold';-inkscape-font-specification:'Gotham Bold, ';letter-spacing:-5.35108709px;word-spacing:0px;fill:#ffffff;fill-opacity:1;stroke:none;stroke-width:0.35488433"
       d="m 44.15257,288.49175 q -0.101556,-0.70842 -0.522248,-1.13905 -0.420687,-0.44449 -1.117001,-0.44449 -0.696291,0 -1.13152,0.43061 -0.420663,0.43062 -0.551257,1.15293 z m -1.421638,4.47287 q -0.870406,0 -1.624757,-0.27783 -0.739815,-0.27779 -1.291071,-0.79178 -0.536741,-0.51396 -0.841373,-1.20851 -0.304637,-0.70843 -0.304637,-1.56967 v -0.0277 q 0,-0.7918 0.275603,-1.5002 0.290168,-0.70845 0.797877,-1.23631 0.50771,-0.52786 1.204049,-0.83345 0.710808,-0.30561 1.566698,-0.30561 0.971964,0 1.682771,0.3334 0.710807,0.33338 1.175042,0.90291 0.478705,0.55562 0.696318,1.29184 0.232101,0.72231 0.232101,1.51408 0,0.12489 -0.01465,0.26394 0,0.13884 -0.01465,0.2917 h -5.410949 q 0.159573,0.72231 0.652794,1.09739 0.507728,0.36117 1.247595,0.36117 0.551254,0 0.98641,-0.1805 0.435225,-0.18051 0.899436,-0.58343 l 1.262085,1.06959 q -0.551278,0.65288 -1.334592,1.02794 -0.783385,0.36116 -1.84235,0.36116 z" />
    <path
       inkscape:connector-curvature="0"
       style="opacity:1;fill:#ffcc00;fill-opacity:1;stroke:none;stroke-width:1.09011137;stroke-linecap:butt;stroke-linejoin:miter;stroke-miterlimit:4;stroke-dasharray:none;stroke-opacity:1"
       d="m 7.8951119,281.25728 a 7.8714078,7.8714078 0 0 0 -7.87172581,7.87172 7.8714078,7.8714078 0 0 0 7.87172581,7.87099 7.8714078,7.8714078 0 0 0 0.7940023,-0.042 7.8714078,7.8714078 0 0 1 -6.6747195,-7.36291 5.901577,5.901577 0 0 1 -0.014261,-0.28218 7.8714078,7.8714078 0 0 1 -0.00675,-0.13056 7.8714078,7.8714078 0 0 1 7.685e-4,-0.0263 5.901577,5.901577 0 0 1 -7.685e-4,-0.027 5.901577,5.901577 0 0 1 0.00751,-0.14479 7.8714078,7.8714078 0 0 1 0.021014,-0.42628 5.901577,5.901577 0 0 1 0.00675,-0.0585 7.8714078,7.8714078 0 0 1 7.026692,-7.14602 7.8714078,7.8714078 0 0 0 -1.1602336,-0.096 z"
       id="path4508" />
    <g
       aria-label="BREAKING
NEWS ALERT"
       style="font-style:italic;font-variant:normal;font-weight:bold;font-stretch:normal;font-size:4.34899759px;line-height:1;font-family:'Gotham Black';-inkscape-font-specification:'Gotham Black, Bold Italic';letter-spacing:-0.1190625px;word-spacing:0px;fill:#ffcc00;fill-opacity:1;stroke:none;stroke-width:0.10872495"
       id="text6029-5">
      <path
         d="m 49.32015,287.76431 q 0.221798,0 0.34357,-0.087 0.126121,-0.0913 0.126121,-0.23485 0,-0.2392 -0.374013,-0.2392 h -0.582766 l -0.152215,0.56103 z m 0.243543,-1.15249 q 0.226148,0 0.343571,-0.0826 0.117423,-0.0826 0.117423,-0.22615 0,-0.10437 -0.08698,-0.16526 -0.08263,-0.0609 -0.278336,-0.0609 h -0.526228 l -0.139168,0.53493 z m -1.069853,-1.21337 h 1.265558 q 0.313128,0 0.52188,0.0609 0.213101,0.0565 0.339222,0.16091 0.13047,0.10003 0.182658,0.23485 0.05654,0.13047 0.05654,0.27398 0,0.29139 -0.182658,0.49579 -0.178309,0.2044 -0.500135,0.28268 0.204403,0.0739 0.330524,0.22615 0.13047,0.14787 0.13047,0.38271 0,0.19571 -0.08263,0.36532 -0.08263,0.16961 -0.256591,0.29573 -0.169611,0.12177 -0.430551,0.19571 -0.26094,0.0696 -0.613208,0.0696 h -1.578687 z"
         style="font-style:italic;font-variant:normal;font-weight:bold;font-stretch:normal;line-height:1;font-family:'Gotham Black';-inkscape-font-specification:'Gotham Black, Bold Italic';letter-spacing:-0.1190625px;fill:#ffcc00;fill-opacity:1;stroke-width:0.10872495"
         id="path6071" />
      <path
         d="m 52.337965,286.85971 q 0.287034,0 0.456645,-0.11307 0.169611,-0.11307 0.169611,-0.30878 0,-0.11742 -0.07828,-0.2044 -0.104376,-0.10438 -0.374014,-0.10438 h -0.456644 l -0.200054,0.73063 z m -0.935034,-1.46126 h 1.148135 q 0.382712,0 0.639303,0.0826 0.256591,0.0826 0.408806,0.23485 0.121772,0.12177 0.178309,0.28268 0.05654,0.15657 0.05654,0.33922 0,0.38272 -0.221799,0.66975 -0.221799,0.28268 -0.691491,0.40881 l 0.469692,1.02636 h -0.930686 l -0.404456,-0.92199 h -0.374014 l -0.247893,0.92199 h -0.848055 z"
         style="font-style:italic;font-variant:normal;font-weight:bold;font-stretch:normal;line-height:1;font-family:'Gotham Black';-inkscape-font-specification:'Gotham Black, Bold Italic';letter-spacing:-0.1190625px;fill:#ffcc00;fill-opacity:1;stroke-width:0.10872495"
         id="path6073" />
      <path
         d="m 54.384277,285.39845 h 2.439787 l -0.195705,0.71759 h -1.600431 l -0.126121,0.46099 h 1.452566 l -0.178309,0.6654 h -1.452566 l -0.130469,0.48273 h 1.626525 l -0.191356,0.71759 h -2.461533 z"
         style="font-style:italic;font-variant:normal;font-weight:bold;font-stretch:normal;line-height:1;font-family:'Gotham Black';-inkscape-font-specification:'Gotham Black, Bold Italic';letter-spacing:-0.1190625px;fill:#ffcc00;fill-opacity:1;stroke-width:0.10872495"
         id="path6075" />
      <path
         d="m 58.479052,287.24243 -0.108725,-0.87415 -0.569718,0.87415 z m -0.269637,-1.86572 h 0.826309 l 0.474041,3.06604 h -0.887196 l -0.07393,-0.54363 h -1.174229 l -0.365316,0.54363 h -0.917638 z"
         style="font-style:italic;font-variant:normal;font-weight:bold;font-stretch:normal;line-height:1;font-family:'Gotham Black';-inkscape-font-specification:'Gotham Black, Bold Italic';letter-spacing:-0.1190625px;fill:#ffcc00;fill-opacity:1;stroke-width:0.10872495"
         id="path6077" />
      <path
         d="m 60.330027,285.39845 h 0.848055 l -0.330524,1.21772 1.25686,-1.21772 h 1.074203 l -1.435169,1.33514 0.678443,1.70916 h -0.913289 l -0.439249,-1.17423 -0.526229,0.48274 -0.182658,0.69149 h -0.848054 z"
         style="font-style:italic;font-variant:normal;font-weight:bold;font-stretch:normal;line-height:1;font-family:'Gotham Black';-inkscape-font-specification:'Gotham Black, Bold Italic';letter-spacing:-0.1190625px;fill:#ffcc00;fill-opacity:1;stroke-width:0.10872495"
         id="path6079" />
      <path
         d="m 63.37554,285.39845 h 0.843705 l -0.817611,3.0443 h -0.843706 z"
         style="font-style:italic;font-variant:normal;font-weight:bold;font-stretch:normal;line-height:1;font-family:'Gotham Black';-inkscape-font-specification:'Gotham Black, Bold Italic';letter-spacing:-0.1190625px;fill:#ffcc00;fill-opacity:1;stroke-width:0.10872495"
         id="path6081" />
      <path
         d="m 64.509047,285.39845 h 0.787169 l 0.787168,1.69176 0.456645,-1.69176 h 0.839357 l -0.817612,3.0443 h -0.739329 l -0.821961,-1.75265 -0.469692,1.75265 h -0.839356 z"
         style="font-style:italic;font-variant:normal;font-weight:bold;font-stretch:normal;line-height:1;font-family:'Gotham Black';-inkscape-font-specification:'Gotham Black, Bold Italic';letter-spacing:-0.1190625px;fill:#ffcc00;fill-opacity:1;stroke-width:0.10872495"
         id="path6083" />
      <path
         d="m 68.647963,288.50363 q -0.273987,0 -0.539276,-0.0783 -0.26094,-0.0783 -0.469691,-0.24354 -0.204403,-0.16526 -0.330524,-0.4175 -0.126121,-0.25225 -0.126121,-0.60452 0,-0.36531 0.139168,-0.69149 0.143517,-0.33052 0.400108,-0.58276 0.260939,-0.25224 0.617557,-0.40011 0.360967,-0.14787 0.795867,-0.14787 0.226148,0 0.421853,0.0435 0.200053,0.0435 0.356617,0.11743 0.160913,0.0696 0.282685,0.16526 0.121772,0.0913 0.200054,0.19136 l -0.56537,0.54797 q -0.134819,-0.13482 -0.321825,-0.2218 -0.182658,-0.0913 -0.430551,-0.0913 -0.230497,0 -0.421853,0.0826 -0.187007,0.0826 -0.326175,0.22615 -0.134819,0.13917 -0.213101,0.33052 -0.07393,0.18701 -0.07393,0.39576 0,0.16092 0.05219,0.28269 0.05654,0.12177 0.147866,0.2044 0.09568,0.0783 0.21745,0.12177 0.126121,0.0391 0.265289,0.0391 0.126121,0 0.226148,-0.0217 0.100027,-0.0261 0.178309,-0.0609 l 0.121772,-0.4088 h -0.587115 l 0.160913,-0.61756 H 70.2223 l -0.4349,1.5352 q -0.226147,0.13047 -0.513181,0.21745 -0.287034,0.087 -0.626256,0.087 z"
         style="font-style:italic;font-variant:normal;font-weight:bold;font-stretch:normal;line-height:1;font-family:'Gotham Black';-inkscape-font-specification:'Gotham Black, Bold Italic';letter-spacing:-0.1190625px;fill:#ffcc00;fill-opacity:1;stroke-width:0.10872495"
         id="path6085" />
      <path
         d="m 48.49384,289.74745 h 0.787169 l 0.787168,1.69176 0.456645,-1.69176 h 0.839356 l -0.817611,3.0443 h -0.73933 l -0.82196,-1.75265 -0.469692,1.75265 h -0.839357 z"
         style="font-style:italic;font-variant:normal;font-weight:bold;font-stretch:normal;line-height:1;font-family:'Gotham Black';-inkscape-font-specification:'Gotham Black, Bold Italic';letter-spacing:-0.1190625px;fill:#ffcc00;fill-opacity:1;stroke-width:0.10872495"
         id="path6087" />
      <path
         d="m 51.670647,289.74745 h 2.439788 l -0.195705,0.71758 h -1.600431 l -0.126121,0.461 h 1.452565 l -0.178309,0.66539 h -1.452565 l -0.13047,0.48274 h 1.626525 l -0.191356,0.71759 h -2.461532 z"
         style="font-style:italic;font-variant:normal;font-weight:bold;font-stretch:normal;line-height:1;font-family:'Gotham Black';-inkscape-font-specification:'Gotham Black, Bold Italic';letter-spacing:-0.1190625px;fill:#ffcc00;fill-opacity:1;stroke-width:0.10872495"
         id="path6089" />
      <path
         d="m 54.208483,289.74745 h 0.874148 l 0.05654,1.76134 1.052457,-1.77004 h 0.730632 l 0.117423,1.77004 1.000269,-1.76134 h 0.917639 l -1.839626,3.06604 h -0.756726 l -0.139168,-1.7309 -1.065504,1.7309 h -0.752377 z"
         style="font-style:italic;font-variant:normal;font-weight:bold;font-stretch:normal;line-height:1;font-family:'Gotham Black';-inkscape-font-specification:'Gotham Black, Bold Italic';letter-spacing:-0.1190625px;fill:#ffcc00;fill-opacity:1;stroke-width:0.10872495"
         id="path6091" />
      <path
         d="m 59.582892,292.84393 q -0.447946,0 -0.808913,-0.14351 -0.356618,-0.14787 -0.604511,-0.41316 l 0.543625,-0.56102 q 0.447947,0.41316 0.939383,0.41316 0.152215,0 0.247893,-0.0609 0.09568,-0.0609 0.09568,-0.16526 0,-0.0435 -0.02174,-0.0783 -0.0174,-0.0391 -0.07393,-0.0739 -0.05654,-0.0391 -0.156564,-0.0826 -0.09568,-0.0478 -0.256591,-0.10872 -0.182658,-0.0696 -0.330523,-0.14352 -0.143517,-0.0783 -0.247893,-0.17396 -0.100027,-0.10003 -0.156564,-0.22615 -0.05654,-0.12612 -0.05654,-0.29573 0,-0.22615 0.09568,-0.4175 0.100027,-0.19136 0.269638,-0.32618 0.173959,-0.13916 0.408805,-0.2131 0.239195,-0.0783 0.517531,-0.0783 0.404457,0 0.713236,0.12177 0.313127,0.12177 0.534926,0.33053 l -0.521879,0.58276 q -0.17396,-0.15221 -0.374014,-0.24354 -0.195705,-0.0913 -0.430551,-0.0913 -0.152215,0 -0.243544,0.0652 -0.08698,0.0609 -0.08698,0.15222 0,0.0478 0.02174,0.0826 0.02175,0.0304 0.07393,0.0652 0.05654,0.0348 0.156564,0.0783 0.100027,0.0435 0.256591,0.10437 0.17396,0.0652 0.317477,0.14352 0.147866,0.0783 0.252242,0.17831 0.104376,0.0957 0.160913,0.22615 0.06089,0.13047 0.06089,0.30008 0,0.23484 -0.09568,0.43055 -0.09568,0.19135 -0.269638,0.33052 -0.169611,0.13917 -0.408806,0.21745 -0.239195,0.0739 -0.52188,0.0739 z"
         style="font-style:italic;font-variant:normal;font-weight:bold;font-stretch:normal;line-height:1;font-family:'Gotham Black';-inkscape-font-specification:'Gotham Black, Bold Italic';letter-spacing:-0.1190625px;fill:#ffcc00;fill-opacity:1;stroke-width:0.10872495"
         id="path6093" />
      <path
         d="m 64.106377,291.59142 -0.108725,-0.87415 -0.569719,0.87415 z m -0.269638,-1.86572 h 0.826309 l 0.474041,3.06605 h -0.887196 l -0.07393,-0.54363 h -1.17423 l -0.365316,0.54363 h -0.917638 z"
         style="font-style:italic;font-variant:normal;font-weight:bold;font-stretch:normal;line-height:1;font-family:'Gotham Black';-inkscape-font-specification:'Gotham Black, Bold Italic';letter-spacing:-0.1190625px;fill:#ffcc00;fill-opacity:1;stroke-width:0.10872495"
         id="path6095" />
      <path
         d="m 66.059136,289.74745 h 0.848055 l -0.617558,2.30497 h 1.452565 l -0.200054,0.73933 h -2.300619 z"
         style="font-style:italic;font-variant:normal;font-weight:bold;font-stretch:normal;line-height:1;font-family:'Gotham Black';-inkscape-font-specification:'Gotham Black, Bold Italic';letter-spacing:-0.1190625px;fill:#ffcc00;fill-opacity:1;stroke-width:0.10872495"
         id="path6097" />
      <path
         d="m 68.600835,289.74745 h 2.439787 l -0.195705,0.71758 h -1.600431 l -0.126121,0.461 h 1.452566 l -0.178309,0.66539 h -1.452566 l -0.130469,0.48274 h 1.626525 l -0.191356,0.71759 h -2.461533 z"
         style="font-style:italic;font-variant:normal;font-weight:bold;font-stretch:normal;line-height:1;font-family:'Gotham Black';-inkscape-font-specification:'Gotham Black, Bold Italic';letter-spacing:-0.1190625px;fill:#ffcc00;fill-opacity:1;stroke-width:0.10872495"
         id="path6099" />
      <path
         d="m 72.283523,291.20871 q 0.287034,0 0.456645,-0.11307 0.169611,-0.11308 0.169611,-0.30878 0,-0.11742 -0.07828,-0.2044 -0.104376,-0.10438 -0.374014,-0.10438 h -0.456645 l -0.200054,0.73063 z m -0.935034,-1.46126 h 1.148135 q 0.382712,0 0.639303,0.0826 0.25659,0.0826 0.408805,0.23485 0.121772,0.12177 0.178309,0.28268 0.05654,0.15656 0.05654,0.33922 0,0.38271 -0.221799,0.66975 -0.221798,0.28268 -0.69149,0.4088 l 0.469692,1.02637 h -0.930686 l -0.404457,-0.92199 h -0.374014 l -0.247892,0.92199 h -0.848055 z"
         style="font-style:italic;font-variant:normal;font-weight:bold;font-stretch:normal;line-height:1;font-family:'Gotham Black';-inkscape-font-specification:'Gotham Black, Bold Italic';letter-spacing:-0.1190625px;fill:#ffcc00;fill-opacity:1;stroke-width:0.10872495"
         id="path6101" />
      <path
         d="m 74.853556,290.48678 h -0.913289 l 0.200054,-0.73933 h 2.665935 l -0.195705,0.73933 h -0.913289 l -0.617558,2.30497 H 74.23165 Z"
         style="font-style:italic;font-variant:normal;font-weight:bold;font-stretch:normal;line-height:1;font-family:'Gotham Black';-inkscape-font-specification:'Gotham Black, Bold Italic';letter-spacing:-0.1190625px;fill:#ffcc00;fill-opacity:1;stroke-width:0.10872495"
         id="path6103" />
    </g>
  </g>
</svg>
