<?xml version="1.0" encoding="UTF-8" standalone="no"?>
<!-- Created with Inkscape (http://www.inkscape.org/) -->

<svg
   xmlns:dc="http://purl.org/dc/elements/1.1/"
   xmlns:cc="http://creativecommons.org/ns#"
   xmlns:rdf="http://www.w3.org/1999/02/22-rdf-syntax-ns#"
   xmlns:svg="http://www.w3.org/2000/svg"
   xmlns="http://www.w3.org/2000/svg"
   xmlns:sodipodi="http://sodipodi.sourceforge.net/DTD/sodipodi-0.dtd"
   xmlns:inkscape="http://www.inkscape.org/namespaces/inkscape"
   width="16"
   height="16"
   viewBox="0 0 4.2333333 4.2333335"
   version="1.1"
   id="svg8"
   inkscape:version="0.92.1 r15371"
   sodipodi:docname="gnn_favicon.svg"
   inkscape:export-filename="C:\Users\jedli\Dropbox\megagames\webassets\favicon_gnn.png"
   inkscape:export-xdpi="192"
   inkscape:export-ydpi="192">
  <defs
     id="defs2" />
  <sodipodi:namedview
     id="base"
     pagecolor="#ffffff"
     bordercolor="#666666"
     borderopacity="1.0"
     inkscape:pageopacity="0.0"
     inkscape:pageshadow="2"
     inkscape:zoom="16"
     inkscape:cx="16.670073"
     inkscape:cy="26.368178"
     inkscape:document-units="px"
     inkscape:current-layer="layer1"
     showgrid="false"
     units="px"
     inkscape:window-width="1920"
     inkscape:window-height="1137"
     inkscape:window-x="-8"
     inkscape:window-y="-8"
     inkscape:window-maximized="1"
     inkscape:snap-bbox="false"
     inkscape:object-paths="true"
     inkscape:bbox-nodes="true"
     inkscape:snap-intersection-paths="true"
     inkscape:snap-nodes="false">
    <inkscape:grid
       type="xygrid"
       id="grid4497" />
  </sodipodi:namedview>
  <metadata
     id="metadata5">
    <rdf:RDF>
      <cc:Work
         rdf:about="">
        <dc:format>image/svg+xml</dc:format>
        <dc:type
           rdf:resource="http://purl.org/dc/dcmitype/StillImage" />
        <dc:title />
      </cc:Work>
    </rdf:RDF>
  </metadata>
  <g
     inkscape:label="Layer 1"
     inkscape:groupmode="layer"
     id="layer1"
     transform="translate(0,-292.76664)">
    <rect
       style="opacity:1;fill:#d40000;fill-opacity:1;stroke:none;stroke-width:0.56444931;stroke-linecap:butt;stroke-linejoin:round;stroke-miterlimit:4;stroke-dasharray:none;stroke-opacity:1"
       id="rect4487-5"
       width="4.2333336"
       height="4.2333336"
       x="-1.2808837e-007"
       y="292.76663"
       inkscape:export-xdpi="96"
       inkscape:export-ydpi="96" />
    <path
       style="opacity:1;fill:#ffffff;fill-opacity:1;stroke:none;stroke-width:0.01143209;stroke-linecap:butt;stroke-linejoin:round;stroke-miterlimit:4;stroke-dasharray:none;stroke-opacity:1"
       d="m 2.0563881,293.56053 c -0.7305992,10e-6 -1.32304816,0.59245 -1.32304816,1.32305 0,0.73059 0.59246296,1.32252 1.32304816,1.32252 h 0.834004 c 0.316929,2.3e-4 0.520479,-0.18541 0.520069,-0.52796 v -0.54372 l -0.327081,-0.0689 v 0.61314 c 0,0.10713 -0.09418,0.20088 -0.201402,0.20088 h -0.82559 c -0.5492942,0 -0.9964922,-0.44672 -0.9964922,-0.99597 0,-0.54931 0.447198,-0.99649 0.9964922,-0.99649 h 1.047501 l 0.09623,-0.32656 z m 0,0.43541 c -0.4892372,0 -0.8876412,0.39838 -0.8876412,0.88764 0,0.48924 0.398394,0.88711 0.8876412,0.88711 h 0.82559 c 0.05202,0 0.09255,-0.0493 0.09255,-0.092 v -0.29027 -0.34549 l -0.01104,-0.003 -0.923399,-0.19404 c 0.490772,0.33982 0.692636,0.59789 0.472216,0.59789 h -0.45276 c -0.30962,0 -0.5605602,-0.25091 -0.5605602,-0.56056 0,-0.3096 0.2509402,-0.56056 0.5605602,-0.56056 h 0.916563 l 0.09623,-0.32708 z"
       id="rect5273-1-6-1-6-0-1-4-4-9"
       inkscape:connector-curvature="0"
       sodipodi:nodetypes="sssccccsssssccscssssccccssssccc" />
  </g>
</svg>
