<?xml version="1.0" encoding="UTF-8" standalone="no"?>
<!-- Created with Inkscape (http://www.inkscape.org/) -->

<svg
   xmlns:dc="http://purl.org/dc/elements/1.1/"
   xmlns:cc="http://creativecommons.org/ns#"
   xmlns:rdf="http://www.w3.org/1999/02/22-rdf-syntax-ns#"
   xmlns:svg="http://www.w3.org/2000/svg"
   xmlns="http://www.w3.org/2000/svg"
   xmlns:sodipodi="http://sodipodi.sourceforge.net/DTD/sodipodi-0.dtd"
   xmlns:inkscape="http://www.inkscape.org/namespaces/inkscape"
   width="500"
   height="60"
   viewBox="0 0 132.29166 15.875"
   version="1.1"
   id="svg8"
   inkscape:version="0.92.1 r15371"
   sodipodi:docname="hypnowars_breakingnews.svg"
   inkscape:export-filename="C:\Users\jedli\Dropbox\megagames\webassets\nnn_header.png"
   inkscape:export-xdpi="480"
   inkscape:export-ydpi="480">
  <defs
     id="defs2" />
  <sodipodi:namedview
     id="base"
     pagecolor="#ffffff"
     bordercolor="#666666"
     borderopacity="1.0"
     inkscape:pageopacity="0.0"
     inkscape:pageshadow="2"
     inkscape:zoom="2.8284271"
     inkscape:cx="337.13373"
     inkscape:cy="11.50368"
     inkscape:document-units="px"
     inkscape:current-layer="layer1"
     showgrid="false"
     units="px"
     inkscape:window-width="1920"
     inkscape:window-height="1137"
     inkscape:window-x="-8"
     inkscape:window-y="-8"
     inkscape:window-maximized="1">
    <inkscape:grid
       type="xygrid"
       id="grid4497" />
  </sodipodi:namedview>
  <metadata
     id="metadata5">
    <rdf:RDF>
      <cc:Work
         rdf:about="">
        <dc:format>image/svg+xml</dc:format>
        <dc:type
           rdf:resource="http://purl.org/dc/dcmitype/StillImage" />
        <dc:title></dc:title>
      </cc:Work>
    </rdf:RDF>
  </metadata>
  <g
     inkscape:label="Layer 1"
     inkscape:groupmode="layer"
     id="layer1"
     transform="translate(0,-281.12498)">
    <path
       sodipodi:nodetypes="ccccccccccccccccscccccccccccccccccccccccccccccccscccscccscc"
       inkscape:connector-curvature="0"
       id="path6662-4-1-5-1"
       d="m 2.7303019e-7,282.09993 v 13.94174 H 2.6676766 v -5.8666 H 7.510973 v 5.86076 l 2.666819,0.006 v -12.77482 l 3.9416,7.62551 v 5.14931 h 2.666836 v -5.14931 l 4.011284,-7.74436 v 12.89367 h 2.667684 v -5.31908 h 0.844744 c 0.377666,0 0.73685,-0.006 1.076756,-0.0186 0.352506,-0.0125 0.698603,-0.0508 1.038516,-0.11371 0.339904,-0.0754 0.672951,-0.18864 1.000273,-0.33954 0.327332,-0.15089 0.655109,-0.36425 0.982432,-0.64091 0.453214,-0.41499 0.787106,-0.88692 1.001123,-1.41511 0.03853,-0.0974 0.06952,-0.19856 0.101128,-0.29961 v 8.14669 h 2.667675 l 0.0019,-9.13906 5.82486,9.13906 h 2.566537 v -13.95732 h -2.763706 v 8.76809 l -5.704186,-8.76809 h -2.592879 v 2.8336 c -0.212239,-0.66693 -0.577277,-1.24213 -1.10227,-1.72158 -0.327322,-0.27661 -0.655095,-0.49085 -0.982422,-0.64175 -0.327313,-0.15085 -0.66036,-0.25714 -1.000264,-0.32002 -0.339918,-0.0754 -0.686015,-0.11983 -1.038519,-0.13244 -0.339914,-0.0125 -0.699089,-0.0186 -1.076755,-0.0186 h -5.812243 l -3.059467,6.41329 -3.039895,-6.41329 H 7.510999 v 5.67735 H 2.6677109 v -5.67735 z M 23.465196,284.49689 h 0.844744 c 0.264376,0 0.559913,0.013 0.887243,0.038 0.327321,0.025 0.635933,0.10008 0.925489,0.22579 0.28955,0.12576 0.529287,0.32081 0.718122,0.5849 0.201421,0.25148 0.301696,0.60414 0.301696,1.05688 0,0.45264 -0.100275,0.81054 -0.301696,1.07464 -0.201431,0.25152 -0.453395,0.44044 -0.755527,0.56625 -0.289556,0.12572 -0.604274,0.20061 -0.944179,0.22579 -0.339906,0.025 -0.64852,0.038 -0.925488,0.038 h -0.750404 z"
       style="font-style:normal;font-variant:normal;font-weight:bold;font-stretch:normal;font-size:medium;line-height:0%;font-family:'AvantGarde LT Book';-inkscape-font-specification:'AvantGarde LT Book, Bold';letter-spacing:0px;word-spacing:0px;fill:#2e3436;fill-opacity:1;stroke:none;stroke-width:0.15791886px;stroke-linecap:butt;stroke-linejoin:miter;stroke-opacity:1" />
    <path
       style="font-style:normal;font-variant:normal;font-weight:bold;font-stretch:normal;font-size:medium;line-height:0%;font-family:'AvantGarde LT Book';-inkscape-font-specification:'AvantGarde LT Book, Bold';letter-spacing:0px;word-spacing:0px;fill:#2e3436;fill-opacity:1;stroke:none;stroke-width:0.15814894px;stroke-linecap:butt;stroke-linejoin:miter;stroke-opacity:1"
       d="m 47.684132,281.78989 c 0.995993,0 1.935476,0.18943 2.818,0.56718 0.882539,0.36518 1.657611,0.87528 2.325803,1.53006 0.668206,0.65488 1.197967,1.42902 1.58879,2.32322 0.390842,0.89402 0.585703,1.85764 0.585703,2.89032 0,1.00739 -0.188775,1.95187 -0.566998,2.8335 -0.390847,0.86893 -0.914507,1.63097 -1.57009,2.2858 -0.66821,0.65478 -1.443278,1.171 -2.325803,1.54875 -0.895142,0.3778 -1.846794,0.56635 -2.855405,0.56635 -1.008597,0 -1.954163,-0.18855 -2.836701,-0.56635 -0.895133,-0.37775 -1.67106,-0.89397 -2.326652,-1.54875 -0.66821,-0.65483 -1.191021,-1.41687 -1.56924,-2.2858 -0.390832,-0.88163 -0.586553,-1.82611 -0.586553,-2.8335 0,-1.03268 0.195721,-1.9963 0.586553,-2.89032 0.390833,-0.8942 0.920598,-1.66834 1.58879,-2.32322 0.668196,-0.65478 1.443274,-1.16488 2.325803,-1.53006 0.882528,-0.37775 1.821998,-0.56718 2.818,-0.56718 z m -1.932217,2.83517 c 1.062455,-0.32558 2.246396,0.10675 2.825642,1.10891 0.673294,1.16483 0.273738,2.65516 -0.891721,3.32849 1.346435,0 2.438013,-1.09101 2.438013,-2.4361 0,-1.16214 -0.943421,-2.20339 -1.90757,-2.37066 -0.964145,-0.16731 -1.780931,0.0778 -2.464364,0.36936 z m 4.830974,0.5638 c 0.798903,0.75777 1.009424,1.9872 0.434385,2.98204 -0.673411,1.16506 -2.1657,1.56442 -3.332292,0.89244 v 0 h -9.29e-4 c 0.673605,-1.16539 0.275006,-2.65567 -0.891726,-3.32849 -1.007255,-0.58091 -2.383458,-0.2825 -3.009268,0.46442 -0.625806,0.74697 -0.805319,1.45823 -0.905329,2.28501 0.260647,-1.06564 1.219638,-1.85792 2.366611,-1.85792 1.34695,0 2.439252,1.09161 2.439712,2.43698 -0.67361,-1.16539 -2.165556,-1.56531 -3.332292,-0.8924 -1.011606,0.58337 -1.438051,1.93341 -1.0983,2.84876 0.339755,0.91531 0.864799,1.42072 1.531835,1.91811 -0.799033,-0.75777 -1.009461,-1.98799 -0.434385,-2.98291 0.673294,-1.16484 2.164948,-1.56309 3.331443,-0.89156 -1.34644,0 -2.438013,1.091 -2.438013,2.43609 0,1.16061 0.940356,2.20107 1.903317,2.36987 0.962961,0.16875 1.780392,-0.0752 2.464369,-0.36597 -1.061332,0.32307 -2.242952,-0.11065 -2.821404,-1.11146 -0.673419,-1.16502 -0.273366,-2.6546 0.892585,-3.32765 -0.672807,1.16525 -0.273826,2.65501 0.892575,3.32765 1.006527,0.58044 2.381295,0.28426 3.007565,-0.46192 0.62627,-0.74618 0.806665,-1.4586 0.907032,-2.28584 -0.260915,1.06522 -1.219921,1.85699 -2.36661,1.85699 -1.346667,0 -2.437939,-1.0912 -2.438867,-2.43605 0.674064,1.16409 2.164409,1.56406 3.330597,0.89156 1.011606,-0.58341 1.438896,-1.93346 1.099145,-2.84876 -0.339745,-0.9153 -0.864794,-1.42072 -1.531834,-1.91811 z m -2.899607,3.87448 h -9.28e-4 0.0019 v 0 z"
       id="path6670-2-7-3-3"
       inkscape:connector-curvature="0"
       sodipodi:nodetypes="scccscccscccscccscccszccccccczcscczcccszcccczcscczcccccc" />
    <path
       inkscape:connector-curvature="0"
       id="path6169-5-7-1-5-0-3-64"
       style="fill:#2e3436;fill-opacity:1;fill-rule:nonzero;stroke:none;stroke-width:0.57931405"
       d="m 92.604139,289.11973 c -0.62776,-0.52397 -0.923364,-0.64904 -2.622312,-1.12264 -2.047301,-0.57724 -2.70404,-1.16548 -2.70404,-2.41323 0,-1.36465 1.0335,-2.32345 2.35162,-2.32345 1.378979,0 2.374219,0.99413 2.476815,2.4769 l 0.0046,0.0567 h 1.585317 v -0.0567 c 0,-2.16365 -1.721539,-3.85663 -3.920707,-3.85663 -1.809078,0 -3.232672,0.86615 -3.779856,2.34896 -0.484009,-0.80192 -1.217247,-1.43996 -2.143532,-1.80357 -0.65673,-0.26692 -1.737769,-0.40237 -3.210068,-0.40237 H 77.01461 v 14.01778 h 1.527364 v -12.63866 h 2.393937 c 1.279266,0 2.035119,0.14246 2.697071,0.51297 0.882798,0.51706 1.478678,1.55404 1.478678,2.59154 0,1.3473 -0.761651,2.41958 -2.03745,2.87236 -0.663689,0.24953 -1.114071,0.2889 -3.207746,0.2889 h -0.121143 l 4.761764,6.35147 0.01797,0.0213 h 1.894288 l -3.878404,-5.14657 c 1.979483,-0.1604 3.463955,-1.36178 3.936361,-3.07617 0.08753,0.1106 0.176788,0.22115 0.278804,0.32076 0.566311,0.56681 1.16045,0.84472 2.64897,1.22975 2.129613,0.5344 3.077922,1.42202 3.077922,2.8764 0,1.48972 -1.247976,2.55912 -2.727805,2.55912 -1.607931,0 -2.647809,-1.04102 -2.854166,-2.85845 l -0.0069,-0.0538 h -1.60736 l 0.0023,0.0643 c 0.105488,2.52726 1.876298,4.22714 4.40355,4.22714 2.382915,0 4.31893,-1.69292 4.31893,-4.00251 0,-1.16548 -0.526325,-2.31302 -1.407378,-3.06166" />
    <path
       inkscape:connector-curvature="0"
       id="path6173-8-0-6-5-5-3-9"
       style="fill:#2e3436;fill-opacity:1;fill-rule:nonzero;stroke:none;stroke-width:0.57931405"
       d="m 74.582094,282.08398 -7.974162,13.9576 h 1.754008 l 2.029915,-3.55729 h 4.190239 v 3.55729 h 1.511133 v -13.9576 z m -3.328309,8.88917 3.328309,-5.8379 v 5.8379 z" />
    <path
       inkscape:connector-curvature="0"
       id="path6177-0-5-2-7-4-7-8"
       style="fill:#2e3436;fill-opacity:1;fill-rule:nonzero;stroke:none;stroke-width:0.57931405"
       d="M 72.087024,282.08398 H 71.77401 l -6.492588,11.35911 V 282.08398 H 63.99404 l -0.0058,0.0111 -0.01388,-0.0111 -6.759807,11.82228 0.0058,-11.82228 h -1.44911 v 13.9576 h 0.228381 1.594022 0.164044 l 5.99467,-10.52134 v 10.52134 h 0.04928 1.742402 0.01332 l 7.957927,-13.9576 z" />
    <g
       aria-label="BREAKING
NEWS"
       style="font-style:normal;font-variant:normal;font-weight:normal;font-stretch:normal;font-size:8.01785278px;line-height:1;font-family:'AvantGarde LT ExtraLight';-inkscape-font-specification:'AvantGarde LT ExtraLight, ';letter-spacing:0px;word-spacing:0px;fill:#2e3436;fill-opacity:1;stroke:none;stroke-width:0.20044631"
       id="text5835">
      <path
         d="m 95.914497,287.79914 h 1.250786 q 0.232517,0 0.448999,-0.0321 0.216482,-0.0321 0.400893,-0.0962 0.33675,-0.14432 0.553232,-0.44098 0.2245,-0.29667 0.232517,-0.79377 0,-0.449 -0.216482,-0.77773 -0.216482,-0.33675 -0.585303,-0.49711 -0.120268,-0.0481 -0.2245,-0.0802 -0.104232,-0.0321 -0.2245,-0.0401 -0.11225,-0.016 -0.248553,-0.016 -0.136303,-0.008 -0.312696,-0.008 h -1.074393 z m 0,-2.99867 h 1.074393 q 0.264589,0 0.473053,-0.0321 0.208464,-0.0321 0.368821,-0.12026 0.368822,-0.20847 0.481071,-0.49711 0.120268,-0.29666 0.120268,-0.60936 0,-0.40891 -0.18441,-0.68151 -0.184411,-0.28063 -0.416929,-0.38486 -0.128285,-0.0722 -0.320714,-0.12027 -0.192428,-0.0481 -0.577285,-0.0561 h -1.018268 z m 1.018268,-2.71806 q 0.384857,0 0.625392,0.0561 0.240536,0.0561 0.416929,0.16036 0.200446,0.11225 0.336749,0.26459 0.136304,0.14432 0.216482,0.32071 0.08018,0.16837 0.11225,0.34477 0.03207,0.17639 0.03207,0.34476 0,0.0641 -0.01604,0.2245 -0.008,0.15234 -0.0882,0.34477 -0.07216,0.19243 -0.240536,0.39288 -0.168375,0.19243 -0.473053,0.32873 v 0.016 q 0.40891,0.12027 0.641428,0.33675 0.240536,0.21649 0.360803,0.45702 0.120268,0.23252 0.15234,0.449 0.03207,0.20847 0.03207,0.3127 -0.008,0.55323 -0.256571,0.90602 -0.248554,0.35278 -0.681518,0.53719 -0.392875,0.1363 -0.946106,0.1363 h -1.483303 v -5.93321 z"
         style="font-style:normal;font-variant:normal;font-weight:normal;font-stretch:normal;line-height:1;font-family:'AvantGarde LT ExtraLight';-inkscape-font-specification:'AvantGarde LT ExtraLight, ';fill:#2e3436;fill-opacity:1;stroke-width:0.20044631"
         id="path5844" />
      <path
         d="m 101.27092,282.08241 q 0.34477,0 0.59333,0.016 0.24855,0.016 0.43296,0.0481 0.18441,0.024 0.3127,0.0722 0.12828,0.0481 0.24053,0.11225 0.17639,0.0882 0.33675,0.24855 0.16036,0.16036 0.27261,0.37684 0.11225,0.20846 0.17639,0.45702 0.0722,0.24053 0.0722,0.4971 0.008,0.28063 -0.0802,0.60134 -0.0882,0.32072 -0.29666,0.60134 -0.20846,0.28063 -0.55323,0.47306 -0.33675,0.18441 -0.81782,0.18441 l -0.23252,0.008 1.59555,2.23698 h -0.30467 l -1.73988,-2.45346 h 0.36882 q 0.20847,0 0.38486,-0.008 0.17639,-0.016 0.32873,-0.0561 0.16036,-0.0401 0.30468,-0.11225 0.15234,-0.0802 0.29666,-0.20045 0.28063,-0.29666 0.39288,-0.60134 0.11225,-0.31269 0.11225,-0.66548 0,-0.38485 -0.18441,-0.76971 -0.1764,-0.38486 -0.52117,-0.60936 -0.1363,-0.0882 -0.28864,-0.1363 -0.15234,-0.0481 -0.33675,-0.0722 -0.17639,-0.0241 -0.39287,-0.0241 -0.20847,-0.008 -0.47306,-0.008 h -1.11448 v 5.71672 h -0.240533 v -5.93321 z"
         style="font-style:normal;font-variant:normal;font-weight:normal;font-stretch:normal;line-height:1;font-family:'AvantGarde LT ExtraLight';-inkscape-font-specification:'AvantGarde LT ExtraLight, ';fill:#2e3436;fill-opacity:1;stroke-width:0.20044631"
         id="path5846" />
      <path
         d="m 107.69874,282.08241 v 0.21649 h -3.01472 v 2.62183 h 3.01472 v 0.21649 h -3.01472 v 2.66192 h 3.01472 v 0.21648 h -3.25525 v -5.93321 z"
         style="font-style:normal;font-variant:normal;font-weight:normal;font-stretch:normal;line-height:1;font-family:'AvantGarde LT ExtraLight';-inkscape-font-specification:'AvantGarde LT ExtraLight, ';fill:#2e3436;fill-opacity:1;stroke-width:0.20044631"
         id="path5848" />
      <path
         d="m 109.51779,285.73054 h 2.89444 l -1.45123,-3.42363 z m -0.99422,2.28508 H 108.267 l 2.54166,-5.93321 h 0.3127 l 2.54166,5.93321 h -0.25657 l -0.88999,-2.0686 h -3.10291 z"
         style="font-style:normal;font-variant:normal;font-weight:normal;font-stretch:normal;line-height:1;font-family:'AvantGarde LT ExtraLight';-inkscape-font-specification:'AvantGarde LT ExtraLight, ';fill:#2e3436;fill-opacity:1;stroke-width:0.20044631"
         id="path5850" />
      <path
         d="m 114.69331,286.09134 h 0.016 l 3.02273,-4.00893 h 0.28864 l -2.21293,2.92652 2.21293,3.00669 h -0.28864 l -2.07663,-2.81426 -0.96214,1.26682 v 1.54744 h -0.24054 v -5.93321 h 0.24054 z"
         style="font-style:normal;font-variant:normal;font-weight:normal;font-stretch:normal;line-height:1;font-family:'AvantGarde LT ExtraLight';-inkscape-font-specification:'AvantGarde LT ExtraLight, ';fill:#2e3436;fill-opacity:1;stroke-width:0.20044631"
         id="path5852" />
      <path
         d="m 118.87186,288.01562 h -0.24053 v -5.93321 h 0.24053 z"
         style="font-style:normal;font-variant:normal;font-weight:normal;font-stretch:normal;line-height:1;font-family:'AvantGarde LT ExtraLight';-inkscape-font-specification:'AvantGarde LT ExtraLight, ';fill:#2e3436;fill-opacity:1;stroke-width:0.20044631"
         id="path5854" />
      <path
         d="m 124.54487,287.69491 h 0.016 v -5.6125 h 0.24053 v 5.93321 h -0.30468 l -4.12117,-5.69267 h -0.016 v 5.69267 h -0.24053 v -5.93321 h 0.3608 z"
         style="font-style:normal;font-variant:normal;font-weight:normal;font-stretch:normal;line-height:1;font-family:'AvantGarde LT ExtraLight';-inkscape-font-specification:'AvantGarde LT ExtraLight, ';fill:#2e3436;fill-opacity:1;stroke-width:0.20044631"
         id="path5856" />
      <path
         d="m 131.98769,285.50604 q -0.0641,0.53719 -0.33675,1.01826 -0.26459,0.47306 -0.68953,0.82584 -0.41693,0.35279 -0.96214,0.56125 -0.54522,0.20847 -1.17061,0.20847 -0.64143,0 -1.20268,-0.2245 -0.55323,-0.23252 -0.97818,-0.64143 -0.41692,-0.40891 -0.65746,-0.97016 -0.24054,-0.56927 -0.24054,-1.23475 0,-0.66548 0.24054,-1.22673 0.24054,-0.56927 0.65746,-0.97818 0.42495,-0.40891 0.97818,-0.63341 0.56125,-0.23252 1.20268,-0.23252 0.40891,0 0.80178,0.0962 0.4009,0.0962 0.75368,0.28062 0.35279,0.18441 0.64143,0.449 0.29666,0.26459 0.49711,0.59332 h -0.28864 q -0.449,-0.5853 -1.06638,-0.88998 -0.60936,-0.3127 -1.33898,-0.3127 -0.59332,0 -1.11448,0.21649 -0.51314,0.21648 -0.898,0.60133 -0.38486,0.37684 -0.60936,0.898 -0.21648,0.52116 -0.21648,1.13854 0,0.61737 0.21648,1.13853 0.2245,0.52116 0.60936,0.90602 0.38486,0.37684 0.898,0.59332 0.52116,0.21649 1.11448,0.21649 0.56125,0 1.05034,-0.18442 0.48909,-0.18441 0.86593,-0.48908 0.37684,-0.30468 0.62539,-0.69756 0.24855,-0.39287 0.32873,-0.8098 h -3.53587 v -0.21648 z"
         style="font-style:normal;font-variant:normal;font-weight:normal;font-stretch:normal;line-height:1;font-family:'AvantGarde LT ExtraLight';-inkscape-font-specification:'AvantGarde LT ExtraLight, ';fill:#2e3436;fill-opacity:1;stroke-width:0.20044631"
         id="path5858" />
      <path
         d="m 100.09982,295.71276 h 0.016 v -5.61249 h 0.24054 v 5.93321 h -0.30468 l -4.121177,-5.69268 h -0.01604 v 5.69268 h -0.240535 v -5.93321 h 0.360803 z"
         style="font-style:normal;font-variant:normal;font-weight:normal;font-stretch:normal;line-height:1;font-family:'AvantGarde LT ExtraLight';-inkscape-font-specification:'AvantGarde LT ExtraLight, ';fill:#2e3436;fill-opacity:1;stroke-width:0.20044631"
         id="path5860" />
      <path
         d="m 104.84864,290.10027 v 0.21648 h -3.01471 v 2.62184 h 3.01471 v 0.21648 h -3.01471 v 2.66193 h 3.01471 v 0.21648 h -3.25525 v -5.93321 z"
         style="font-style:normal;font-variant:normal;font-weight:normal;font-stretch:normal;line-height:1;font-family:'AvantGarde LT ExtraLight';-inkscape-font-specification:'AvantGarde LT ExtraLight, ';fill:#2e3436;fill-opacity:1;stroke-width:0.20044631"
         id="path5862" />
      <path
         d="m 107.3011,295.70475 h 0.016 l 1.51537,-5.60448 h 0.16838 l 1.53141,5.60448 h 0.016 l 1.58754,-5.60448 h 0.24855 l -1.69979,5.93321 h -0.31269 l -1.45123,-5.2998 h -0.016 l -1.43519,5.2998 h -0.32072 l -1.69177,-5.93321 h 0.25658 z"
         style="font-style:normal;font-variant:normal;font-weight:normal;font-stretch:normal;line-height:1;font-family:'AvantGarde LT ExtraLight';-inkscape-font-specification:'AvantGarde LT ExtraLight, ';fill:#2e3436;fill-opacity:1;stroke-width:0.20044631"
         id="path5864" />
      <path
         d="m 113.08736,294.53414 q 0.0561,0.42495 0.2245,0.69755 0.17639,0.27261 0.39287,0.42495 0.21649,0.15234 0.449,0.20846 0.23252,0.0561 0.4009,0.0561 0.28062,0 0.54521,-0.0962 0.27261,-0.10423 0.48107,-0.28864 0.20847,-0.18441 0.33675,-0.44098 0.12829,-0.26459 0.12829,-0.5853 0,-0.40891 -0.16036,-0.66549 -0.15234,-0.26459 -0.38486,-0.41692 -0.23251,-0.16036 -0.4971,-0.24054 -0.25657,-0.0882 -0.47306,-0.14432 -0.19242,-0.0481 -0.46503,-0.12829 -0.26459,-0.0882 -0.51314,-0.24855 -0.24054,-0.16036 -0.40892,-0.42495 -0.16837,-0.2726 -0.16837,-0.68953 -0.008,-0.36882 0.12027,-0.65747 0.12828,-0.28864 0.35278,-0.48107 0.2245,-0.20044 0.52116,-0.30468 0.29666,-0.10423 0.61738,-0.10423 0.26459,0 0.51314,0.0802 0.25657,0.0802 0.46504,0.24855 0.20846,0.16838 0.35278,0.43297 0.15234,0.25657 0.20045,0.61737 h -0.24054 q -0.0321,-0.17639 -0.11225,-0.37684 -0.0722,-0.20846 -0.21648,-0.37683 -0.14432,-0.1764 -0.38486,-0.28865 -0.23251,-0.12027 -0.59332,-0.12027 -0.28062,0 -0.52918,0.0962 -0.24855,0.0882 -0.43296,0.25657 -0.18441,0.16837 -0.28864,0.40891 -0.10423,0.24054 -0.10423,0.52918 0,0.35278 0.12828,0.5853 0.1363,0.2245 0.3608,0.37684 0.2245,0.15234 0.51315,0.24855 0.28864,0.0882 0.59332,0.16838 0.0722,0.024 0.20846,0.0561 0.13631,0.0321 0.29666,0.10424 0.16838,0.0722 0.33675,0.18441 0.1764,0.10423 0.3127,0.2726 0.14432,0.16838 0.23252,0.40891 0.0882,0.24054 0.0882,0.56125 0,0.36883 -0.14432,0.6735 -0.14432,0.30468 -0.38486,0.52918 -0.24053,0.21648 -0.55323,0.33675 -0.31269,0.12027 -0.64143,0.12027 -0.26458,0 -0.56124,-0.0962 -0.28865,-0.0882 -0.5372,-0.28063 -0.24054,-0.20045 -0.41693,-0.49711 -0.16837,-0.30467 -0.20045,-0.72962 z"
         style="font-style:normal;font-variant:normal;font-weight:normal;font-stretch:normal;line-height:1;font-family:'AvantGarde LT ExtraLight';-inkscape-font-specification:'AvantGarde LT ExtraLight, ';fill:#2e3436;fill-opacity:1;stroke-width:0.20044631"
         id="path5866" />
    </g>
  </g>
</svg>
