<?xml version="1.0" encoding="UTF-8" standalone="no"?>
<!-- Created with Inkscape (http://www.inkscape.org/) -->

<svg
   xmlns:dc="http://purl.org/dc/elements/1.1/"
   xmlns:cc="http://creativecommons.org/ns#"
   xmlns:rdf="http://www.w3.org/1999/02/22-rdf-syntax-ns#"
   xmlns:svg="http://www.w3.org/2000/svg"
   xmlns="http://www.w3.org/2000/svg"
   xmlns:sodipodi="http://sodipodi.sourceforge.net/DTD/sodipodi-0.dtd"
   xmlns:inkscape="http://www.inkscape.org/namespaces/inkscape"
   width="82"
   height="60"
   viewBox="0 0 21.695833 15.875"
   version="1.1"
   id="svg8"
   inkscape:version="0.92.1 r15371"
   sodipodi:docname="hypnowars_ticker_stacked.svg"
   inkscape:export-filename="C:\Users\jedli\Dropbox\megagames\webassets\hypnowars_ticker_stacked.png"
   inkscape:export-xdpi="96"
   inkscape:export-ydpi="96">
  <defs
     id="defs2" />
  <sodipodi:namedview
     id="base"
     pagecolor="#ffffff"
     bordercolor="#666666"
     borderopacity="1.0"
     inkscape:pageopacity="0.0"
     inkscape:pageshadow="2"
     inkscape:zoom="1"
     inkscape:cx="5.2308704"
     inkscape:cy="-19.548602"
     inkscape:document-units="px"
     inkscape:current-layer="layer1"
     showgrid="false"
     units="px"
     inkscape:window-width="1920"
     inkscape:window-height="1137"
     inkscape:window-x="-8"
     inkscape:window-y="-8"
     inkscape:window-maximized="1"
     inkscape:showpageshadow="false"
     showborder="false">
    <inkscape:grid
       type="xygrid"
       id="grid4497" />
  </sodipodi:namedview>
  <metadata
     id="metadata5">
    <rdf:RDF>
      <cc:Work
         rdf:about="">
        <dc:format>image/svg+xml</dc:format>
        <dc:type
           rdf:resource="http://purl.org/dc/dcmitype/StillImage" />
        <dc:title></dc:title>
      </cc:Work>
    </rdf:RDF>
  </metadata>
  <g
     inkscape:label="Layer 1"
     inkscape:groupmode="layer"
     id="layer1"
     transform="translate(0,-281.12498)">
    <rect
       inkscape:export-ydpi="90"
       inkscape:export-xdpi="90"
       y="281.12497"
       x="3.3068005e-008"
       height="15.875"
       width="21.695833"
       id="rect8374-7-3-9-0-3-2-5-2-9-7-7-7-37-2-1-8-79-6-3-8-6-6"
       style="opacity:1;fill:#ccff00;fill-opacity:1;stroke:none;stroke-width:0.49896902;stroke-linecap:square;stroke-linejoin:round;stroke-miterlimit:4;stroke-dasharray:none;stroke-dashoffset:0;stroke-opacity:1" />
    <g
       id="g4582"
       transform="matrix(0.50643687,0,0,0.50483576,-19.729586,158.16301)">
      <g
         id="g4573">
        <path
           sodipodi:nodetypes="ccccccccccccccccscccccccccccccccccccccccccccccccscccscccscc"
           inkscape:connector-curvature="0"
           id="path6662-4-1-5-1-9"
           d="m 43.92083,248.7359 v 8.4849 h 1.621692 v -3.5704 h 2.944261 v 3.56684 l 1.621171,0.004 v -7.77471 l 2.396116,4.64086 v 3.13385 h 1.621181 v -3.13385 l 2.438477,-4.7132 v 7.84705 h 1.621697 v -3.23717 h 0.513524 c 0.229585,0 0.447934,-0.004 0.654564,-0.0113 0.214291,-0.008 0.424684,-0.0309 0.631319,-0.0692 0.206629,-0.0459 0.40909,-0.11481 0.60807,-0.20665 0.198987,-0.0918 0.398244,-0.22168 0.597225,-0.39006 0.275511,-0.25256 0.478485,-0.53977 0.608587,-0.86123 0.02342,-0.0593 0.04226,-0.12084 0.06148,-0.18234 v 4.95805 h 1.621692 l 0.0011,-5.562 3.540958,5.562 h 1.560209 v -8.49438 h -1.680069 v 5.33623 l -3.467599,-5.33623 h -1.576223 v 1.72452 c -0.12902,-0.40589 -0.350929,-0.75596 -0.670074,-1.04775 -0.198981,-0.16834 -0.398236,-0.29873 -0.597219,-0.39057 -0.198975,-0.0918 -0.401436,-0.15649 -0.608065,-0.19476 -0.206637,-0.0459 -0.417031,-0.0729 -0.63132,-0.0806 -0.206636,-0.008 -0.42498,-0.0113 -0.654564,-0.0113 h -3.533288 l -1.859864,3.90311 -1.847965,-3.90311 h -2.971128 v 3.45522 h -2.944256 v -3.45522 z m 14.264595,1.45878 h 0.513524 c 0.160715,0 0.340373,0.008 0.539359,0.0231 0.19898,0.0152 0.386586,0.0609 0.562608,0.13741 0.17602,0.0765 0.321756,0.19524 0.43655,0.35597 0.122445,0.15305 0.183402,0.36768 0.183402,0.64321 0,0.27548 -0.06096,0.4933 -0.183402,0.65402 -0.12245,0.15308 -0.275621,0.26806 -0.459288,0.34463 -0.176022,0.0765 -0.367341,0.12209 -0.573971,0.13741 -0.20663,0.0152 -0.394238,0.0231 -0.562608,0.0231 h -0.456174 z"
           style="font-style:normal;font-variant:normal;font-weight:bold;font-stretch:normal;font-size:medium;line-height:0%;font-family:'AvantGarde LT Book';-inkscape-font-specification:'AvantGarde LT Book, Bold';letter-spacing:0px;word-spacing:0px;fill:#2e3436;fill-opacity:1;stroke:none;stroke-width:0.09605423px;stroke-linecap:butt;stroke-linejoin:miter;stroke-opacity:1" />
        <path
           style="font-style:normal;font-variant:normal;font-weight:bold;font-stretch:normal;font-size:medium;line-height:0%;font-family:'AvantGarde LT Book';-inkscape-font-specification:'AvantGarde LT Book, Bold';letter-spacing:0px;word-spacing:0px;fill:#2e3436;fill-opacity:1;stroke:none;stroke-width:0.09619419px;stroke-linecap:butt;stroke-linejoin:miter;stroke-opacity:1"
           d="m 72.908223,248.5472 c 0.605468,0 1.176584,0.11529 1.713074,0.34519 0.536499,0.22225 1.007669,0.5327 1.413866,0.93119 0.406205,0.39856 0.728249,0.8697 0.965832,1.41391 0.237595,0.54409 0.356052,1.13055 0.356052,1.75903 0,0.6131 -0.114757,1.1879 -0.344681,1.72447 -0.237597,0.52882 -0.555933,0.9926 -0.954464,1.39113 -0.406208,0.39849 -0.877376,0.71266 -1.413866,0.94256 -0.544161,0.22993 -1.122674,0.34468 -1.735813,0.34468 -0.613131,0 -1.187944,-0.11475 -1.724443,-0.34468 -0.544156,-0.2299 -1.015845,-0.54407 -1.414382,-0.94256 -0.406208,-0.39853 -0.724027,-0.86231 -0.953948,-1.39113 -0.237589,-0.53657 -0.356568,-1.11137 -0.356568,-1.72447 0,-0.62848 0.118979,-1.21494 0.356568,-1.75903 0.237589,-0.54421 0.559635,-1.01535 0.965832,-1.41391 0.4062,-0.39849 0.877373,-0.70894 1.413866,-0.93119 0.536493,-0.2299 1.107601,-0.34519 1.713075,-0.34519 z m -1.174604,1.72548 c 0.645872,-0.19814 1.365595,0.065 1.717721,0.67488 0.409298,0.70892 0.166406,1.61592 -0.542082,2.02571 0.818504,0 1.482079,-0.66399 1.482079,-1.4826 0,-0.70728 -0.573509,-1.34098 -1.15962,-1.44278 -0.586108,-0.10182 -1.082635,0.0473 -1.498098,0.22479 z m 2.936771,0.34313 c 0.485656,0.46118 0.613633,1.20941 0.264064,1.81486 -0.409369,0.70905 -1.316538,0.9521 -2.025715,0.54313 v 0 h -5.64e-4 c 0.409487,-0.70925 0.167177,-1.61623 -0.542084,-2.0257 -0.612315,-0.35354 -1.448915,-0.17193 -1.829348,0.28264 -0.38043,0.45461 -0.489557,0.88748 -0.550353,1.39065 0.158448,-0.64854 0.741423,-1.13072 1.438673,-1.13072 0.818817,0 1.482832,0.66435 1.483112,1.48313 -0.409491,-0.70925 -1.316451,-0.95264 -2.025715,-0.5431 -0.61496,0.35503 -0.874198,1.17666 -0.667662,1.73374 0.206539,0.55705 0.525715,0.86465 0.931209,1.16736 -0.485735,-0.46118 -0.613655,-1.20989 -0.264064,-1.8154 0.409299,-0.70891 1.316081,-0.95128 2.025199,-0.5426 -0.818507,0 -1.482079,0.66399 -1.482079,1.4826 0,0.70635 0.571647,1.33957 1.157035,1.4423 0.585388,0.1027 1.082308,-0.0458 1.4981,-0.22273 -0.645188,0.19662 -1.3635,-0.0673 -1.715143,-0.67643 -0.409375,-0.70903 -0.166181,-1.61558 0.542606,-2.0252 -0.409002,0.70917 -0.16646,1.61584 0.5426,2.0252 0.611872,0.35326 1.4476,0.173 1.828312,-0.28112 0.380712,-0.45413 0.490375,-0.8877 0.551389,-1.39116 -0.158612,0.64829 -0.741595,1.13016 -1.438673,1.13016 -0.818645,0 -1.482033,-0.6641 -1.482598,-1.48257 0.409767,0.70846 1.315754,0.95188 2.024685,0.5426 0.614959,-0.35507 0.874711,-1.1767 0.668175,-1.73375 -0.206533,-0.55705 -0.525712,-0.86464 -0.931209,-1.16735 z m -1.762684,2.35799 h -5.64e-4 0.0011 v 0 z"
           id="path6670-2-7-3-3-7"
           inkscape:connector-curvature="0"
           sodipodi:nodetypes="scccscccscccscccscccszccccccczcscczcccszcccczcscczcccccc" />
      </g>
      <g
         transform="matrix(1.4383397,0,0,1.4383397,-68.017166,-100.06005)"
         id="g4569">
        <path
           inkscape:connector-curvature="0"
           id="path6169-5-7-1-5-0-3-64-1"
           style="fill:#2e3436;fill-opacity:1;fill-rule:nonzero;stroke:none;stroke-width:0.35236812"
           d="m 100.21529,253.00812 c -0.381616,-0.31888 -0.561315,-0.395 -1.594113,-0.68323 -1.244564,-0.35131 -1.643798,-0.70931 -1.643798,-1.46868 0,-0.83053 0.628269,-1.41405 1.42956,-1.41405 0.838288,0 1.443299,0.60503 1.505667,1.50743 l 0.0028,0.0345 h 0.963724 v -0.0345 c 0,-1.31679 -1.046534,-2.34713 -2.383417,-2.34713 -1.099747,0 -1.965156,0.52714 -2.297792,1.42957 -0.294231,-0.48804 -0.739969,-0.87635 -1.303062,-1.09764 -0.399229,-0.16245 -1.056397,-0.24489 -1.951414,-0.24489 h -2.205118 v 8.53118 h 0.928491 v -7.69185 h 1.455285 c 0.777671,0 1.237157,0.0867 1.639561,0.31219 0.536657,0.31468 0.898895,0.94579 0.898895,1.5772 0,0.81997 -0.463011,1.47255 -1.238575,1.74812 -0.403459,0.15186 -0.677248,0.17582 -1.950003,0.17582 h -0.07364 l 2.894697,3.86549 0.01092,0.013 h 1.151546 l -2.357699,-3.13219 c 1.203336,-0.0976 2.105753,-0.82877 2.392931,-1.87215 0.05321,0.0673 0.107471,0.13459 0.169486,0.19521 0.344263,0.34496 0.705443,0.5141 1.610321,0.74843 1.294601,0.32523 1.871087,0.86543 1.871087,1.75057 0,0.90664 -0.758655,1.55747 -1.65825,1.55747 -0.977468,0 -1.609615,-0.63356 -1.735059,-1.73965 l -0.0042,-0.0328 H 95.767 l 0.0014,0.0391 c 0.06413,1.53809 1.14061,2.57263 2.676938,2.57263 1.448584,0 2.625492,-1.03031 2.625492,-2.43592 0,-0.70931 -0.31996,-1.40769 -0.85555,-1.86331" />
        <path
           inkscape:connector-curvature="0"
           id="path6173-8-0-6-5-5-3-9-9"
           style="fill:#2e3436;fill-opacity:1;fill-rule:nonzero;stroke:none;stroke-width:0.35236812"
           d="m 89.259611,248.72619 -4.847528,8.49455 h 1.06627 l 1.233994,-2.16495 h 2.547264 v 2.16495 h 0.918625 v -8.49455 z m -2.023293,5.40992 2.023293,-3.55293 v 3.55293 z" />
        <path
           inkscape:connector-curvature="0"
           id="path6177-0-5-2-7-4-7-8-9"
           style="fill:#2e3436;fill-opacity:1;fill-rule:nonzero;stroke:none;stroke-width:0.35236812"
           d="m 87.742847,248.72619 h -0.190282 l -3.946872,6.91312 v -6.91312 h -0.782606 l -0.0035,0.007 -0.0084,-0.007 -4.109316,7.195 0.0035,-7.195 h -0.88092 v 8.49455 h 0.138833 0.969013 0.09972 l 3.644186,-6.40325 v 6.40325 h 0.02996 1.059214 0.0081 l 4.837659,-8.49455 z" />
      </g>
    </g>
  </g>
</svg>
