<?xml version="1.0" encoding="UTF-8" standalone="no"?>
<svg
   xmlns:dc="http://purl.org/dc/elements/1.1/"
   xmlns:cc="http://creativecommons.org/ns#"
   xmlns:rdf="http://www.w3.org/1999/02/22-rdf-syntax-ns#"
   xmlns:svg="http://www.w3.org/2000/svg"
   xmlns="http://www.w3.org/2000/svg"
   id="svg18"
   version="1.1"
   width="60"
   viewBox="0 0 60 60"
   height="60">
  <metadata
     id="metadata24">
    <rdf:RDF>
      <cc:Work
         rdf:about="">
        <dc:format>image/svg+xml</dc:format>
        <dc:type
           rdf:resource="http://purl.org/dc/dcmitype/StillImage" />
        <dc:title></dc:title>
      </cc:Work>
    </rdf:RDF>
  </metadata>
  <defs
     id="defs22">
    <style
       id="style7276">
      .cls-1 {
        fill: #036;
      }

      .cls-1, .cls-2, .cls-3 {
        fill-rule: evenodd;
      }

      .cls-2 {
        fill: #c20017;
      }

      .cls-3, .cls-4 {
        fill: #fff;
      }
    </style>
  </defs>
  <rect
     y="0"
     x="5.3290705e-015"
     height="60"
     width="60"
     id="rect23476"
     style="opacity:1;fill:#fef204;fill-opacity:1;stroke:none;stroke-width:0.02333494;stroke-linecap:round;stroke-linejoin:round;stroke-miterlimit:4;stroke-dasharray:none;stroke-opacity:1" />
  <path
     id="path17259-2-7-1-96-1-5-5-7-6-2-7-7-9"
     d="m 11.82849,10.032322 -0.195155,0.535397 h 1.363831 c 1.656234,0 2.289262,1.022954 2.483887,3.02 l 3.750472,36.140641 h 8.913534 L 43.049173,18.166666 c 2.240638,-4.725294 4.627146,-7.598947 7.014184,-7.598947 h 1.218095 l 0.145869,-0.535397 H 36.376543 l -0.146532,0.535397 h 2.19228 c 1.899217,0 3.409581,1.314825 3.409581,3.945641 0,1.461065 -0.631173,3.360348 -1.654776,5.649729 l -9.692563,21.53024 -2.387435,-27.957727 c -0.19489,-2.191578 0.876276,-3.165829 3.36162,-3.165829 h 1.411793 l 0.145074,-0.537451 z"
     style="fill:#333333;fill-opacity:1;stroke-width:0.35054135" />
</svg>
