<?xml version="1.0" encoding="UTF-8" standalone="no"?>
<svg
   xmlns:dc="http://purl.org/dc/elements/1.1/"
   xmlns:cc="http://creativecommons.org/ns#"
   xmlns:rdf="http://www.w3.org/1999/02/22-rdf-syntax-ns#"
   xmlns:svg="http://www.w3.org/2000/svg"
   xmlns="http://www.w3.org/2000/svg"
   xmlns:sodipodi="http://sodipodi.sourceforge.net/DTD/sodipodi-0.dtd"
   xmlns:inkscape="http://www.inkscape.org/namespaces/inkscape"
   height="46"
   viewBox="0 0 333 46"
   width="333"
   version="1.1"
   id="svg18"
   sodipodi:docname="wolf_logo.svg"
   inkscape:version="0.92.1 r15371">
  <metadata
     id="metadata24">
    <rdf:RDF>
      <cc:Work
         rdf:about="">
        <dc:format>image/svg+xml</dc:format>
        <dc:type
           rdf:resource="http://purl.org/dc/dcmitype/StillImage" />
        <dc:title></dc:title>
      </cc:Work>
    </rdf:RDF>
  </metadata>
  <defs
     id="defs22">
    <style
       id="style7276">
      .cls-1 {
        fill: #036;
      }

      .cls-1, .cls-2, .cls-3 {
        fill-rule: evenodd;
      }

      .cls-2 {
        fill: #c20017;
      }

      .cls-3, .cls-4 {
        fill: #fff;
      }
    </style>
  </defs>
  <sodipodi:namedview
     pagecolor="#ffffff"
     bordercolor="#666666"
     borderopacity="1"
     objecttolerance="10"
     gridtolerance="10"
     guidetolerance="10"
     inkscape:pageopacity="0"
     inkscape:pageshadow="2"
     inkscape:window-width="1920"
     inkscape:window-height="1137"
     id="namedview20"
     showgrid="false"
     inkscape:zoom="4.0000001"
     inkscape:cx="172.91425"
     inkscape:cy="20.811885"
     inkscape:window-x="-8"
     inkscape:window-y="-8"
     inkscape:window-maximized="1"
     inkscape:current-layer="svg18"
     inkscape:snap-bbox="true"
     showborder="true"
     inkscape:snap-global="true"
     inkscape:pagecheckerboard="true">
    <inkscape:grid
       type="xygrid"
       id="grid4504" />
  </sodipodi:namedview>
  <path
     sodipodi:nodetypes="ccccccccccccc"
     inkscape:connector-curvature="0"
     id="path4863-3-8-9-1-4-3-2-5-4-4"
     d="M 212.96298,0.97438673 V 45.100629 h 30.42233 v -9.738561 h -19.17523 v -7.942362 h 16.86902 v -9.364224 h -16.86902 v -7.342504 h 19.17523 l -2.01902,-9.73859127 z"
     style="font-style:normal;font-variant:normal;font-weight:900;font-stretch:normal;font-size:medium;line-height:0.64999998;font-family:National;-inkscape-font-specification:'National Heavy';letter-spacing:-64.40000153px;word-spacing:0px;fill:#ffffff;fill-opacity:1;stroke:none;stroke-width:1.87370336" />
  <path
     sodipodi:nodetypes="cccccccccccccc"
     d="m 276.03368,0.97402516 7.49825,29.18262084 6.67303,-29.18262084 h 10.36603 L 291.4237,45.100911 h -11.6409 l -7.49821,-26.335733 -7.49824,26.335733 H 252.6956 L 243.54833,0.97402516 h 10.81588 l 6.67303,29.18262084 7.49823,-29.18262084 z"
     style="font-style:normal;font-variant:normal;font-weight:900;font-stretch:normal;font-size:medium;line-height:0.64999998;font-family:National;-inkscape-font-specification:'National Heavy';letter-spacing:-64.40000153px;word-spacing:0px;fill:#ffffff;fill-opacity:1;stroke:none;stroke-width:1.87370336"
     id="path4865-4-2-9-4-5-2-2-3-2-0-3-8"
     inkscape:connector-curvature="0" />
  <path
     id="path4567-9-26-8-5-0-4-6-1-7-3-9-7"
     d="M 316.25405,3.919825e-4 C 315.27885,0.00641818 314.24519,0.07150115 313.14743,0.2030029 305.30389,1.1420155 301.58135,5.612874 300.1981,11.556817 c -1.01946,7.61058 1.22073,9.882919 3.49076,11.923692 2.84965,2.561849 6.86088,3.772221 11.23599,5.010435 2.69605,0.762977 5.82367,1.555432 5.39506,4.567348 -0.19868,1.395989 -1.08895,2.605659 -4.6338,2.409877 -4.90515,0.03676 -5.86074,-2.671234 -6.98279,-5.263997 l -10.47354,2.347045 c 1.38089,6.638774 5.50377,10.951535 10.66327,12.366798 7.76736,2.130684 12.75475,0.867974 16.82906,-1.648045 5.35083,-3.303995 8.13339,-10.142447 5.88593,-17.453043 -0.9366,-3.046535 -3.23552,-5.431866 -6.76693,-6.73907 -2.17626,-0.805401 -4.32062,-1.86315 -9.59968,-2.954897 -2.17747,-0.450238 -3.87112,-1.583716 -3.68171,-3.17164 0.12276,-1.028943 0.8694,-3.2790465 4.5698,-3.2344827 2.98004,0.035755 4.25478,2.5214527 5.58719,4.5033797 l 9.77513,-3.107702 C 329.56771,5.4884129 325.68144,-0.05342199 316.25522,3.919825e-4 Z"
     style="fill:#ffffff;fill-rule:evenodd;stroke-width:0.151711"
     inkscape:connector-curvature="0" />
  <path
     id="path4561-9-2-7-5-4-1-6-3-3-2-6-8"
     d="M 199.57901,0.91932734 V 23.255621 L 186.19918,0.97401511 H 173.3095 V 45.100901 h 11.31326 l 0.0536,-25.323703 15.13114,25.323703 h 10.86593 V 0.91932734 Z"
     style="fill:#ffffff;fill-rule:evenodd;stroke-width:0.15222441"
     inkscape:connector-curvature="0" />
  <path
     inkscape:connector-curvature="0"
     style="fill:#ffffff;stroke-width:2.03567219"
     d="M 79.884346,0.01038942 A 23.878435,23.878435 0 0 0 55.321906,22.892291 23.491657,23.491657 0 0 0 79.180126,45.997093 h 0.0411 A 23.491657,23.491657 0 0 0 103.03824,22.892291 23.878435,23.878435 0 0 0 79.884256,0.01038942 Z m -0.80597,8.59142998 a 4.3766951,4.3766951 0 0 1 4.29512,4.2139686 v 19.481887 a 4.1934846,4.1934846 0 0 1 -8.36619,0 V 12.815788 a 4.2545546,4.2545546 0 0 1 4.07107,-4.2139686 z"
     id="path5780-0-7" />
  <path
     inkscape:connector-curvature="0"
     style="fill:#ffffff;stroke-width:1.95680654"
     d="m 149.00409,30.776169 h 12.85624 V 18.761383 h -12.85624 v -5.733436 h 15.65444 L 163.79756,0.97401511 H 135.91302 V 45.100015 h 13.09107 z"
     id="path5784-1-5" />
  <path
     inkscape:connector-curvature="0"
     style="fill:#ffffff;stroke-width:1.95680654"
     d="m 117.96915,33.046079 h 15.65432 V 45.100015 H 104.87808 V 0.97401511 h 13.09107 z"
     id="path5784-1-4-8"
     sodipodi:nodetypes="ccccccc" />
  <path
     sodipodi:nodetypes="cccccccccccccc"
     d="m 33.094193,0.973129 7.498243,29.182621 6.67303,-29.182621 h 10.36603 l -9.14729,44.126886 h -11.6409 L 29.345103,18.764282 21.846863,45.100015 H 9.756113 L 0.608843,0.973129 h 10.81588 l 6.67303,29.182621 7.49823,-29.182621 z"
     style="font-style:normal;font-variant:normal;font-weight:900;font-stretch:normal;font-size:medium;line-height:0.64999998;font-family:National;-inkscape-font-specification:'National Heavy';letter-spacing:-64.40000153px;word-spacing:0px;fill:#ffffff;fill-opacity:1;stroke:none;stroke-width:1.87370336"
     id="path4865-4-2-9-4-5-2-2-3-2-0-3-8-9"
     inkscape:connector-curvature="0" />
</svg>
