<?xml version="1.0" encoding="UTF-8" standalone="no"?>
<!-- Created with Inkscape (http://www.inkscape.org/) -->

<svg
   width="210mm"
   height="297mm"
   viewBox="0 0 210 297"
   version="1.1"
   id="svg5"
   inkscape:version="1.1.1 (c3084ef, 2021-09-22)"
   sodipodi:docname="inc_logo_2.svg"
   xmlns:inkscape="http://www.inkscape.org/namespaces/inkscape"
   xmlns:sodipodi="http://sodipodi.sourceforge.net/DTD/sodipodi-0.dtd"
   xmlns="http://www.w3.org/2000/svg"
   xmlns:svg="http://www.w3.org/2000/svg">
  <sodipodi:namedview
     id="namedview7"
     pagecolor="#ffffff"
     bordercolor="#999999"
     borderopacity="1"
     inkscape:pageshadow="0"
     inkscape:pageopacity="0"
     inkscape:pagecheckerboard="0"
     inkscape:document-units="mm"
     showgrid="false"
     inkscape:zoom="0.55658778"
     inkscape:cx="356.63736"
     inkscape:cy="514.7436"
     inkscape:window-width="1728"
     inkscape:window-height="1051"
     inkscape:window-x="0"
     inkscape:window-y="38"
     inkscape:window-maximized="1"
     inkscape:current-layer="g9148" />
  <defs
     id="defs2" />
  <g
     inkscape:label="Layer 1"
     inkscape:groupmode="layer"
     id="layer1">
    <g
       id="g9148">
      <path
         id="path4656-4"
         style="font-weight:900;font-stretch:semi-expanded;font-size:53.6043px;line-height:1.25;font-family:'Tofino Wide';-inkscape-font-specification:'Tofino Wide Heavy Semi-Expanded';stroke-width:1.34011"
         d="m 254.52539,94.435855 1.90116,5.345928 5.12424,-2.436027 -2.43551,5.124754 5.34593,1.90117 -5.34593,1.90118 2.43551,5.12423 -5.12424,-2.43602 -1.90116,5.34592 v 19.47427 h 13.40125 V 94.435855 Z" />
      <path
         d="m 295.52867,133.78148 h 15.54525 V 94.435925 h -12.91864 l 0.58965,22.299385 -11.95376,-22.299385 h -15.43804 v 39.345555 h 12.86503 l -0.53604,-21.65614 z"
         style="font-weight:900;font-stretch:semi-expanded;font-size:53.6043px;line-height:1.25;font-family:'Tofino Wide';-inkscape-font-specification:'Tofino Wide Heavy Semi-Expanded';stroke-width:1.34011"
         id="path4658-04" />
      <path
         d="m 333.90837,134.74636 c 11.73934,0 19.08313,-4.07393 19.13673,-18.17186 h -13.18666 c -0.32162,6.00368 -2.94823,6.86135 -6.05728,6.86135 -4.44916,0 -6.53973,-1.82254 -6.53973,-9.32715 0,-7.45099 2.19778,-9.27354 6.70054,-9.27354 3.05545,0 5.57485,0.85767 5.89647,6.2181 h 13.13306 c -0.0536,-13.454681 -7.451,-17.582212 -19.08313,-17.582212 -13.40108,0 -20.26243,5.521243 -20.26243,20.637652 0,15.11642 6.86135,20.63766 20.26243,20.63766 z"
         style="font-weight:900;font-stretch:semi-expanded;font-size:53.6043px;line-height:1.25;font-family:'Tofino Wide';-inkscape-font-specification:'Tofino Wide Heavy Semi-Expanded';stroke-width:1.34011"
         id="path4660-3" />
      <path
         id="path2746-3-5-5-6-1"
         style="fill:#ffcc00;stroke-width:0.369729;stroke-linecap:square;stroke-linejoin:round"
         inkscape:transform-center-x="-9.8067021e-06"
         inkscape:transform-center-y="3.5671331e-06"
         d="m 254.52539,94.435855 -1.90119,5.345928 -5.12424,-2.436027 2.43551,5.124754 -5.34593,1.90117 5.34593,1.90118 -2.43551,5.12423 5.12424,-2.43602 1.90119,5.34592 z" />
      <g
         aria-label="INTERSTELLAR NEWS CORPORATION"
         id="text7006"
         style="font-size:4.85529px;line-height:1.25;stroke-width:0.121383">
        <path
           d="m 254.5254,140.0769 h 0.74285 v -3.51037 h -0.74285 z"
           style="font-weight:600;font-stretch:semi-expanded;font-family:'Tofino Wide';-inkscape-font-specification:'Tofino Wide Semi-Bold Semi-Expanded'"
           id="path9266" />
        <path
           d="m 258.49019,140.0769 h 0.89823 v -3.51037 h -0.71858 l 0.0437,2.60729 -1.77704,-2.60729 h -0.88852 l -0.0243,3.51037 h 0.72344 l -0.0291,-2.57815 z"
           style="font-weight:600;font-stretch:semi-expanded;font-family:'Tofino Wide';-inkscape-font-specification:'Tofino Wide Semi-Bold Semi-Expanded'"
           id="path9268" />
        <path
           d="m 261.05189,140.0769 h 0.74286 v -2.8452 h 1.24295 v -0.66517 h -3.22391 v 0.66517 h 1.2381 z"
           style="font-weight:600;font-stretch:semi-expanded;font-family:'Tofino Wide';-inkscape-font-specification:'Tofino Wide Semi-Bold Semi-Expanded'"
           id="path9270" />
        <path
           d="m 263.45837,140.0769 h 2.78694 v -0.66517 h -2.04408 v -0.76714 H 265.92 v -0.67003 h -1.71877 v -0.738 h 2.00523 v -0.67003 h -2.74809 z"
           style="font-weight:600;font-stretch:semi-expanded;font-family:'Tofino Wide';-inkscape-font-specification:'Tofino Wide Semi-Bold Semi-Expanded'"
           id="path9272" />
        <path
           d="m 266.74897,140.0769 h 0.74286 v -1.13613 h 0.83996 c 0.0728,0 0.14566,0 0.21363,-0.005 l 0.66032,1.14099 h 0.79627 l -0.74771,-1.21867 c 0.52922,-0.12624 0.76228,-0.43698 0.76228,-1.0973 0,-0.9662 -0.49524,-1.1944 -1.66537,-1.1944 h -1.60224 z m 0.74286,-1.80131 v -1.03903 h 0.8254 c 0.66032,0 0.93707,0.0146 0.93707,0.51952 0,0.50009 -0.2719,0.51951 -0.93222,0.51951 z"
           style="font-weight:600;font-stretch:semi-expanded;font-family:'Tofino Wide';-inkscape-font-specification:'Tofino Wide Semi-Bold Semi-Expanded'"
           id="path9274" />
        <path
           d="m 272.08941,140.14973 c 1.01475,0 1.59739,-0.3253 1.59739,-1.06816 0,-1.54884 -2.38881,-0.81083 -2.38881,-1.57311 0,-0.21849 0.19907,-0.38357 0.74286,-0.38357 0.70402,0 0.85939,0.26704 0.85939,0.48067 h 0.73315 c 0,-0.66032 -0.42241,-1.11186 -1.58768,-1.11186 -1.11186,0 -1.53913,0.40299 -1.54398,1.07302 -0.0146,1.52456 2.39365,0.78656 2.39365,1.5634 0,0.28161 -0.35929,0.38843 -0.79626,0.38843 -0.60691,0 -0.94193,-0.20878 -0.94193,-0.53894 h -0.73315 c 0,0.7817 0.58749,1.17012 1.66537,1.17012 z"
           style="font-weight:600;font-stretch:semi-expanded;font-family:'Tofino Wide';-inkscape-font-specification:'Tofino Wide Semi-Bold Semi-Expanded'"
           id="path9276" />
        <path
           d="m 275.06775,140.0769 h 0.74286 v -2.8452 h 1.24295 v -0.66517 h -3.22391 v 0.66517 h 1.2381 z"
           style="font-weight:600;font-stretch:semi-expanded;font-family:'Tofino Wide';-inkscape-font-specification:'Tofino Wide Semi-Bold Semi-Expanded'"
           id="path9278" />
        <path
           d="m 277.47423,140.0769 h 2.78693 v -0.66517 h -2.04407 v -0.76714 h 1.71877 v -0.67003 h -1.71877 v -0.738 h 2.00523 v -0.67003 h -2.74809 z"
           style="font-weight:600;font-stretch:semi-expanded;font-family:'Tofino Wide';-inkscape-font-specification:'Tofino Wide Semi-Bold Semi-Expanded'"
           id="path9280" />
        <path
           d="m 280.76482,140.0769 h 2.48591 v -0.66517 h -1.74305 v -2.8452 h -0.74286 z"
           style="font-weight:600;font-stretch:semi-expanded;font-family:'Tofino Wide';-inkscape-font-specification:'Tofino Wide Semi-Bold Semi-Expanded'"
           id="path9282" />
        <path
           d="m 283.69507,140.0769 h 2.48591 v -0.66517 h -1.74305 v -2.8452 h -0.74286 z"
           style="font-weight:600;font-stretch:semi-expanded;font-family:'Tofino Wide';-inkscape-font-specification:'Tofino Wide Semi-Bold Semi-Expanded'"
           id="path9284" />
        <path
           d="m 286.26602,140.0769 h 0.79627 l 0.24276,-0.62633 h 1.7916 l 0.24762,0.62633 h 0.79141 l -1.48571,-3.51037 h -0.89338 z m 1.30122,-1.2915 0.62633,-1.60225 0.63604,1.60225 z"
           style="font-weight:600;font-stretch:semi-expanded;font-family:'Tofino Wide';-inkscape-font-specification:'Tofino Wide Semi-Bold Semi-Expanded'"
           id="path9286" />
        <path
           d="m 290.5323,140.0769 h 0.74286 v -1.13613 h 0.83996 c 0.0728,0 0.14566,0 0.21364,-0.005 l 0.66032,1.14099 h 0.79626 l -0.74771,-1.21867 c 0.52923,-0.12624 0.76228,-0.43698 0.76228,-1.0973 0,-0.9662 -0.49524,-1.1944 -1.66536,-1.1944 h -1.60225 z m 0.74286,-1.80131 v -1.03903 h 0.8254 c 0.66032,0 0.93707,0.0146 0.93707,0.51952 0,0.50009 -0.2719,0.51951 -0.93222,0.51951 z"
           style="font-weight:600;font-stretch:semi-expanded;font-family:'Tofino Wide';-inkscape-font-specification:'Tofino Wide Semi-Bold Semi-Expanded'"
           id="path9288" />
        <path
           d="m 298.05322,140.0769 h 0.89823 v -3.51037 h -0.71858 l 0.0437,2.60729 -1.77704,-2.60729 h -0.88852 l -0.0243,3.51037 h 0.72343 l -0.0291,-2.57815 z"
           style="font-weight:600;font-stretch:semi-expanded;font-family:'Tofino Wide';-inkscape-font-specification:'Tofino Wide Semi-Bold Semi-Expanded'"
           id="path9290" />
        <path
           d="m 299.71183,140.0769 h 2.78694 v -0.66517 h -2.04408 v -0.76714 h 1.71878 v -0.67003 h -1.71878 v -0.738 h 2.00524 v -0.67003 h -2.7481 z"
           style="font-weight:600;font-stretch:semi-expanded;font-family:'Tofino Wide';-inkscape-font-specification:'Tofino Wide Semi-Bold Semi-Expanded'"
           id="path9292" />
        <path
           d="m 302.68198,136.56653 1.00505,3.51037 h 1.06816 l 0.62148,-2.64127 0.58749,2.64127 h 1.0536 l 1.08273,-3.51037 h -0.84483 l -0.72829,2.88404 -0.60205,-2.88404 h -1.04389 l -0.67489,2.94716 -0.65061,-2.94716 z"
           style="font-weight:600;font-stretch:semi-expanded;font-family:'Tofino Wide';-inkscape-font-specification:'Tofino Wide Semi-Bold Semi-Expanded'"
           id="path9294" />
        <path
           d="m 309.96446,140.14973 c 1.01476,0 1.59739,-0.3253 1.59739,-1.06816 0,-1.54884 -2.3888,-0.81083 -2.3888,-1.57311 0,-0.21849 0.19907,-0.38357 0.74286,-0.38357 0.70402,0 0.85938,0.26704 0.85938,0.48067 h 0.73315 c 0,-0.66032 -0.42241,-1.11186 -1.58768,-1.11186 -1.11186,0 -1.53912,0.40299 -1.54398,1.07302 -0.0146,1.52456 2.39366,0.78656 2.39366,1.5634 0,0.28161 -0.35929,0.38843 -0.79627,0.38843 -0.60691,0 -0.94192,-0.20878 -0.94192,-0.53894 h -0.73315 c 0,0.7817 0.58749,1.17012 1.66536,1.17012 z"
           style="font-weight:600;font-stretch:semi-expanded;font-family:'Tofino Wide';-inkscape-font-specification:'Tofino Wide Semi-Bold Semi-Expanded'"
           id="path9296" />
        <path
           d="m 314.94599,140.14973 c 1.02932,0 1.6071,-0.39327 1.62652,-1.39832 h -0.738 c -0.034,0.57292 -0.36901,0.76714 -0.89338,0.76714 -0.72344,0 -1.00504,-0.39814 -1.00504,-1.19441 0,-0.79141 0.28646,-1.1944 1.01475,-1.1944 0.53894,0 0.86425,0.21364 0.89338,0.75743 h 0.73315 c -0.0146,-0.97106 -0.59721,-1.39347 -1.63138,-1.39347 -1.25752,0 -1.76733,0.66032 -1.76733,1.83044 0,1.16527 0.50981,1.82559 1.76733,1.82559 z"
           style="font-weight:600;font-stretch:semi-expanded;font-family:'Tofino Wide';-inkscape-font-specification:'Tofino Wide Semi-Bold Semi-Expanded'"
           id="path9298" />
        <path
           d="m 318.77734,140.14973 c 1.25267,0 1.77218,-0.66032 1.77218,-1.82559 0,-1.17012 -0.51951,-1.83044 -1.77218,-1.83044 -1.25752,0 -1.77703,0.66032 -1.77703,1.83044 0,1.16527 0.51951,1.82559 1.77703,1.82559 z m -1.01961,-1.82559 c 0,-0.79141 0.30103,-1.1944 1.01961,-1.1944 0.71373,0 1.0099,0.40299 1.0099,1.1944 0,0.79627 -0.29617,1.19441 -1.0099,1.19441 -0.71858,0 -1.01961,-0.39814 -1.01961,-1.19441 z"
           style="font-weight:600;font-stretch:semi-expanded;font-family:'Tofino Wide';-inkscape-font-specification:'Tofino Wide Semi-Bold Semi-Expanded'"
           id="path9300" />
        <path
           d="m 321.14338,140.0769 h 0.74286 v -1.13613 h 0.83997 c 0.0728,0 0.14566,0 0.21363,-0.005 l 0.66032,1.14099 h 0.79627 l -0.74772,-1.21867 c 0.52923,-0.12624 0.76228,-0.43698 0.76228,-1.0973 0,-0.9662 -0.49524,-1.1944 -1.66536,-1.1944 h -1.60225 z m 0.74286,-1.80131 v -1.03903 h 0.8254 c 0.66032,0 0.93707,0.0146 0.93707,0.51952 0,0.50009 -0.27189,0.51951 -0.93221,0.51951 z"
           style="font-weight:600;font-stretch:semi-expanded;font-family:'Tofino Wide';-inkscape-font-specification:'Tofino Wide Semi-Bold Semi-Expanded'"
           id="path9302" />
        <path
           d="m 325.00296,140.0769 h 0.74286 v -1.05845 h 0.78656 c 1.29636,0 1.71392,-0.24276 1.71392,-1.22839 0,-0.98562 -0.41756,-1.22353 -1.71392,-1.22353 h -1.52942 z m 0.74286,-1.72362 v -1.11672 h 0.88367 c 0.5972,0 0.84967,0.0291 0.84967,0.54865 0,0.51466 -0.23791,0.56807 -0.84967,0.56807 z"
           style="font-weight:600;font-stretch:semi-expanded;font-family:'Tofino Wide';-inkscape-font-specification:'Tofino Wide Semi-Bold Semi-Expanded'"
           id="path9304" />
        <path
           d="m 330.39401,140.14973 c 1.25266,0 1.77218,-0.66032 1.77218,-1.82559 0,-1.17012 -0.51952,-1.83044 -1.77218,-1.83044 -1.25752,0 -1.77704,0.66032 -1.77704,1.83044 0,1.16527 0.51952,1.82559 1.77704,1.82559 z m -1.01961,-1.82559 c 0,-0.79141 0.30102,-1.1944 1.01961,-1.1944 0.71373,0 1.0099,0.40299 1.0099,1.1944 0,0.79627 -0.29617,1.19441 -1.0099,1.19441 -0.71859,0 -1.01961,-0.39814 -1.01961,-1.19441 z"
           style="font-weight:600;font-stretch:semi-expanded;font-family:'Tofino Wide';-inkscape-font-specification:'Tofino Wide Semi-Bold Semi-Expanded'"
           id="path9306" />
        <path
           d="m 332.76005,140.0769 h 0.74285 v -1.13613 h 0.83997 c 0.0728,0 0.14566,0 0.21363,-0.005 l 0.66032,1.14099 h 0.79627 l -0.74772,-1.21867 c 0.52923,-0.12624 0.76229,-0.43698 0.76229,-1.0973 0,-0.9662 -0.49524,-1.1944 -1.66537,-1.1944 h -1.60224 z m 0.74285,-1.80131 v -1.03903 h 0.8254 c 0.66032,0 0.93707,0.0146 0.93707,0.51952 0,0.50009 -0.27189,0.51951 -0.93221,0.51951 z"
           style="font-weight:600;font-stretch:semi-expanded;font-family:'Tofino Wide';-inkscape-font-specification:'Tofino Wide Semi-Bold Semi-Expanded'"
           id="path9308" />
        <path
           d="m 336.26033,140.0769 h 0.79627 l 0.24277,-0.62633 h 1.7916 l 0.24762,0.62633 H 340.13 l -1.48572,-3.51037 h -0.89337 z m 1.30122,-1.2915 0.62633,-1.60225 0.63605,1.60225 z"
           style="font-weight:600;font-stretch:semi-expanded;font-family:'Tofino Wide';-inkscape-font-specification:'Tofino Wide Semi-Bold Semi-Expanded'"
           id="path9310" />
        <path
           d="m 340.97452,140.0769 h 0.74285 v -2.8452 h 1.24296 v -0.66517 h -3.22391 v 0.66517 h 1.2381 z"
           style="font-weight:600;font-stretch:semi-expanded;font-family:'Tofino Wide';-inkscape-font-specification:'Tofino Wide Semi-Bold Semi-Expanded'"
           id="path9312" />
        <path
           d="m 343.38099,140.0769 h 0.74286 v -3.51037 h -0.74286 z"
           style="font-weight:600;font-stretch:semi-expanded;font-family:'Tofino Wide';-inkscape-font-specification:'Tofino Wide Semi-Bold Semi-Expanded'"
           id="path9314" />
        <path
           d="m 346.49612,140.14973 c 1.25266,0 1.77218,-0.66032 1.77218,-1.82559 0,-1.17012 -0.51952,-1.83044 -1.77218,-1.83044 -1.25752,0 -1.77704,0.66032 -1.77704,1.83044 0,1.16527 0.51952,1.82559 1.77704,1.82559 z m -1.01961,-1.82559 c 0,-0.79141 0.30103,-1.1944 1.01961,-1.1944 0.71373,0 1.0099,0.40299 1.0099,1.1944 0,0.79627 -0.29617,1.19441 -1.0099,1.19441 -0.71858,0 -1.01961,-0.39814 -1.01961,-1.19441 z"
           style="font-weight:600;font-stretch:semi-expanded;font-family:'Tofino Wide';-inkscape-font-specification:'Tofino Wide Semi-Bold Semi-Expanded'"
           id="path9316" />
        <path
           d="m 351.32865,140.0769 h 0.89823 v -3.51037 h -0.71858 l 0.0437,2.60729 -1.77704,-2.60729 h -0.88852 l -0.0243,3.51037 h 0.72344 l -0.0291,-2.57815 z"
           style="font-weight:600;font-stretch:semi-expanded;font-family:'Tofino Wide';-inkscape-font-specification:'Tofino Wide Semi-Bold Semi-Expanded'"
           id="path9318" />
      </g>
    </g>
  </g>
</svg>
