<?xml version="1.0" encoding="UTF-8" standalone="no"?>
<!-- Generator: Adobe Illustrator 15.0.2, SVG Export Plug-In  -->

<svg
   inkscape:version="1.1.1 (c3084ef, 2021-09-22)"
   sodipodi:docname="logo-gnn-red.svg"
   id="svg49111"
   xml:space="preserve"
   enable-background="new 0 0 520 241"
   overflow="visible"
   viewBox="0 0 591 275"
   height="275"
   width="591"
   y="0px"
   x="0px"
   version="1.1"
   xmlns:inkscape="http://www.inkscape.org/namespaces/inkscape"
   xmlns:sodipodi="http://sodipodi.sourceforge.net/DTD/sodipodi-0.dtd"
   xmlns="http://www.w3.org/2000/svg"
   xmlns:svg="http://www.w3.org/2000/svg"><sodipodi:namedview
   id="namedview49113"
   pagecolor="#ffffff"
   bordercolor="#999999"
   borderopacity="1"
   inkscape:pageshadow="0"
   inkscape:pageopacity="0"
   inkscape:pagecheckerboard="0"
   showgrid="false"
   inkscape:zoom="0.61291534"
   inkscape:cx="343.44058"
   inkscape:cy="294.49418"
   inkscape:window-width="1728"
   inkscape:window-height="1051"
   inkscape:window-x="0"
   inkscape:window-y="38"
   inkscape:window-maximized="1"
   inkscape:current-layer="svg49111"
   width="591px" />
<defs
   id="defs49087" />


<path
   d="m 245.12302,0 c -10.944,0.10712 -21.1648,4.15085 -29.4576,10.84576 -7.293,5.92722 -12.9078,14.01467 -15.9339,23.74466 -1.5353,5.0167 -2.6155,10.31907 -2.6155,16.11237 v 84.27556 l 4.0437,0.94626 29.4934,6.3378 V 51.7472 c 0,-8.81941 5.5166,-16.2195 13.7112,-18.45118 7.0073,-1.91026 16.9068,0.0716 23.5303,11.30101 0.3482,0.52689 28.9399,49.93514 56.6301,97.66538 24.307,41.88337 47.2839,81.428 47.6677,82.12427 2.8922,4.90958 6.9717,7.24838 10.8815,6.20398 2.5084,-0.73203 5.4363,-3.14219 5.4363,-7.70364 V 51.67583 c 0,-8.81947 5.5433,-16.21066 13.7022,-18.44227 6.9716,-1.88348 16.73733,0.0984 23.36083,11.29211 0.3126,0.52689 25.4942,43.90074 52.0953,89.75641 25.4586,43.90081 51.7473,89.30121 52.2025,90.1046 2.8922,4.90958 6.9716,7.21263 10.8815,6.13254 2.5083,-0.73195 5.4362,-3.07075 5.4362,-7.6322 V 1.11585 h -33.6441 v 132.0147 c 0,0 -54.7823,-94.31792 -57.2907,-98.57588 -34.7688,-59.03126 -100.45933,-34.6261 -100.45933,16.21065 v 82.36523 c 0,0 -54.7108,-94.31792 -57.2192,-98.57588 -7.9178,-13.42551 -17.4425,-22.13781 -27.4134,-27.61874 -0.1694,-0.0984 -0.3127,-0.0984 -0.4908,-0.20553 -3.7223,-2.02628 -7.525,-3.62416 -11.3277,-4.74 -0.034,0 -0.034,0 -0.072,0 -3.9723,-1.15152 -7.9446,-1.78526 -11.8901,-1.84779 -0.4198,0 -0.8391,0 -1.2587,0 z M 136.15662,0.93729 V 1.15153 C 60.98617,1.15153 0,62.06634 0,137.2814 0,212.49653 60.98617,273.447 136.15662,273.447 h 85.8556 c 32.5997,0.0335 53.595,-19.07602 53.5593,-54.327 v -77.68776 c 0,0 54.7733,94.31792 57.2905,98.57588 34.76,59.03132 100.45943,34.66184 100.45943,-16.14813 v -82.42775 c 0,0 54.7019,94.31792 57.2192,98.57588 34.76,59.03132 100.4594,34.66184 100.4594,-16.14813 V 1.15153 h -33.5817 v 221.73549 c 0,8.78373 -5.5434,16.17491 -13.738,18.44228 -1.4996,0.41977 -3.1064,0.52688 -4.8113,0.52688 -6.2397,0 -13.4256,-3.10643 -18.6565,-11.96153 -0.2765,-0.52689 -20.8525,-35.94725 -52.2739,-90.06892 -25.3425,-43.72219 -51.56873,-88.98877 -52.02403,-89.75641 -2.8922,-4.90965 -6.9001,-7.2127 -10.7743,-6.16829 -3.276,0.93729 -5.3648,3.93661 -5.3648,7.70364 v 171.13982 c 0,8.81941 -5.5792,16.21949 -13.7737,18.45117 -7.0073,1.91026 -16.8444,-0.0335 -23.4679,-11.30101 -0.2765,-0.52689 -22.2449,-38.35742 -47.6678,-82.22248 -26.3244,-45.36473 -56.1747,-96.79946 -56.63,-97.60285 -2.8922,-4.90965 -6.9716,-7.2127 -10.8815,-6.16829 -2.5083,0.73202 -5.4362,3.10644 -5.4362,7.6322 v 167.44423 c 0,11.02431 -9.6943,20.68279 -20.7453,20.68279 h -85.0165 c -56.52291,0 -102.54816,-45.96277 -102.54816,-102.52139 0,-56.55861 46.02525,-102.54818 102.54816,-102.58393 h 52.0686 c 3.5884,-13.90754 11.5688,-25.5567 22.2806,-33.58169 z m 0,44.98982 c -50.34572,-0.0716 -91.31858,40.96396 -91.31858,91.3186 0,50.35465 40.97286,91.3186 91.31858,91.3186 h 85.0165 c 5.3648,0 9.5157,-5.05245 9.5157,-9.40856 v -65.41377 l -31.8678,-6.83772 -6.3825,-1.32117 -57.9511,-12.03297 c 50.5242,34.97422 71.341,61.53964 48.6764,61.53964 h -46.6501 c -31.87673,0 -57.67443,-25.86914 -57.67443,-57.73693 0,-31.87668 25.7977,-57.71014 57.67443,-57.71014 h 49.4798 V 50.66711 c 0,-1.60678 0.2765,-3.10644 0.375,-4.64178 z"
   style="fill:#cc0000;fill-opacity:1;fill-rule:nonzero;stroke:none;stroke-width:1.33333"
   id="path943" /></svg>
