<?xml version="1.0" encoding="UTF-8" standalone="no"?>
<!-- Generator: Adobe Illustrator 15.0.2, SVG Export Plug-In  -->

<svg
   inkscape:version="1.1.1 (c3084ef, 2021-09-22)"
   sodipodi:docname="logo-cnn-ticker.svg"
   id="svg49111"
   xml:space="preserve"
   enable-background="new 0 0 520 241"
   overflow="visible"
   viewBox="0 0 591 313"
   height="313"
   width="591"
   y="0px"
   x="0px"
   version="1.1"
   xmlns:inkscape="http://www.inkscape.org/namespaces/inkscape"
   xmlns:sodipodi="http://sodipodi.sourceforge.net/DTD/sodipodi-0.dtd"
   xmlns="http://www.w3.org/2000/svg"
   xmlns:svg="http://www.w3.org/2000/svg"><sodipodi:namedview
   id="namedview49113"
   pagecolor="#ffffff"
   bordercolor="#999999"
   borderopacity="1"
   inkscape:pageshadow="0"
   inkscape:pageopacity="0"
   inkscape:pagecheckerboard="0"
   showgrid="false"
   inkscape:zoom="0.76625898"
   inkscape:cx="242.08525"
   inkscape:cy="306.0323"
   inkscape:window-width="1296"
   inkscape:window-height="969"
   inkscape:window-x="1997"
   inkscape:window-y="89"
   inkscape:window-maximized="0"
   inkscape:current-layer="svg49111"
   width="591px" />
<defs
   id="defs49087" />


<rect
   style="fill:#000000;fill-opacity:1;stroke-width:4.74358;stroke-linecap:square;stroke-linejoin:round"
   id="rect64970"
   width="556.77606"
   height="144.56146"
   x="-1.1315427"
   y="84.219269" /><path
   id="rect64970-9"
   style="fill:#000000;fill-opacity:1;stroke-width:0.677573;stroke-linecap:square;stroke-linejoin:round"
   d="M 250.90625 36.197266 C 236.01749 36.505266 222.38892 44.667418 214.95898 57.767578 L 194.28516 37.097656 L 155.47266 37.097656 C 89.293656 37.097656 35.644531 90.739922 35.644531 156.91992 C 35.644531 190.00692 49.055281 219.96444 70.738281 241.64844 L 106.0957 277.00195 C 127.7797 298.68695 157.73716 312.09961 190.82617 312.09961 L 266.34766 312.09961 C 295.05566 312.11861 313.51942 295.29458 313.48242 264.26758 L 313.48242 221.4375 C 319.82273 232.353 327.85248 246.19374 328.51172 247.31445 C 332.02972 253.29045 335.90758 258.2953 340.01758 262.4043 L 375.37305 297.75977 C 406.98205 329.36877 452.24014 308.00465 452.24414 268.43164 L 452.24219 221.43945 C 458.58174 232.35364 466.61035 246.19383 467.26953 247.31445 C 470.78753 253.29045 474.66639 258.29334 478.77539 262.40234 L 514.13086 297.75977 C 545.74086 329.36977 590.998 308.00566 591 268.43164 L 591 72.447266 L 555.64453 37.097656 L 555.64453 66.615234 L 526.12109 37.097656 L 526.12109 46.960938 L 516.25586 37.097656 L 486.59766 37.097656 L 486.59766 127.75391 C 480.25632 116.83727 472.22658 102.99578 471.56641 101.875 C 468.04841 95.898 464.16955 90.895156 460.06055 86.785156 L 424.70508 51.427734 C 393.09608 19.817734 347.83789 41.187812 347.83789 80.757812 L 347.83789 127.75 C 341.49834 116.83597 333.47032 102.9956 332.81055 101.875 C 329.29255 95.899 325.41369 90.894156 321.30469 86.785156 L 285.94727 51.427734 C 275.08167 40.561794 262.60456 35.955266 250.90625 36.197266 z M 434.18555 73.144531 C 435.87881 72.992451 438.02025 73.314768 440.6582 74.173828 C 449.40393 89.201228 486.59766 153.26953 486.59766 153.26953 C 516.22488 209.76086 499.96639 197.62526 477.28125 167.92773 L 431.25 90.751953 C 427.81343 80.569093 428.01463 73.698751 434.18555 73.144531 z M 191.10938 141.49609 L 209.08008 141.49609 L 209.08008 199.60352 C 209.09508 203.92452 205.84423 207.69117 201.11523 207.70117 L 155.75391 207.70117 C 151.0493 207.70117 146.50119 207.04884 142.17773 205.85156 C 140.98083 201.52859 140.32812 196.97955 140.32812 192.27539 C 140.32812 164.23037 163.06337 141.49609 191.10938 141.49609 z M 420.69531 145.11328 L 457.74219 207.22266 C 447.23164 192.96332 435.70854 179.38822 422.7168 166.39648 C 421.61908 158.01657 420.98248 151.03156 420.69531 145.11328 z M 111.19336 181.28125 C 113.52452 185.53648 116.44398 189.42445 119.84766 192.82812 C 215.15646 274.43576 106.50283 222.75313 111.19336 181.28125 z M 324.11328 196.19922 C 328.68403 202.773 333.8522 209.78368 339.36133 216.99609 L 336.61328 223.16211 C 332.22426 213.53601 327.89021 204.08001 324.11328 196.19922 z M 349.04492 251.20312 L 366.67578 276.93555 C 364.25924 276.505 361.83502 275.88315 359.41992 275.01562 C 355.64913 266.11033 352.47723 259.05583 349.04492 251.20312 z M 519.74414 262.15234 C 523.28629 267.95635 526.34756 272.62343 528.35352 274.69727 C 519.14128 278.32851 508.56211 278.74598 498.17773 275.01562 L 519.74414 262.15234 z " /><path
   style="fill:#b9ae3d;fill-opacity:1"
   d="m 75.06658,156.92492 c 0,44.31599 36.055,80.36799 80.372,80.36799 h 74.798 v 0 c 4.712,0 8.367,-4.484 8.367,-8.341 v 0 l 0.001,-147.34199 v 0 c 0,-7.748 4.851,-14.277 12.069,-16.244 v 0 c 6.171,-1.681 14.839,0.048 20.667,9.947 v 0 c 0.314,0.53 25.5,43.948 49.854,85.938 v 0 c 21.389,36.86799 41.586,71.68999 41.935,72.28599 v 0 c 2.551,4.332 6.13,6.363 9.569,5.425 v 0 c 2.213,-0.604 4.797,-2.728 4.797,-6.729 v 0 -150.62199 c 0.004,-7.759 4.835,-14.29 12.025,-16.249 6.135,-1.671 14.758,0.066 20.579,9.952 0.295,0.502 22.409,38.623 45.82,78.982 22.4,38.61999 45.566,78.55299 45.965,79.23599 2.553,4.335 6.133,6.368 9.571,5.43 2.216,-0.604 4.801,-2.728 4.801,-6.729 V 37.09692 h -29.659 v 116.177 c 0,0 -48.173,-82.992 -50.386,-86.749 -30.583,-51.947 -88.373,-30.479 -88.373,14.239 v 72.51 c 0,0 -48.172,-82.992 -50.384,-86.749 -30.584,-51.947 -88.372,-30.479 -88.375,14.239 v 118.84399 c 0.015,4.321 -3.235,8.088 -7.964,8.098 h -45.361 c -28.046,0 -50.781,-22.735 -50.781,-50.78199 0,-28.045 22.735,-50.779 50.781,-50.779 h 38.529 v -29.593 h -38.846 c -44.316,0 -80.371,36.056 -80.371,80.373 m 451.055,-119.827 -0.003,195.13599 c 0,7.749 -4.85,14.276 -12.068,16.244 -1.324,0.359 -2.763,0.565 -4.261,0.565 -5.497,0 -11.827,-2.737 -16.405,-10.512 -0.25,-0.422 -18.373,-31.666 -45.997,-79.28599 -22.316,-38.473 -45.394,-78.253 -45.791,-78.933 -2.545,-4.326 -6.085,-6.358 -9.482,-5.435 -2.885,0.788 -4.753,3.43 -4.753,6.734 v 150.62299 c 0,7.75 -4.85,14.278 -12.069,16.244 -6.172,1.683 -14.84,-0.049 -20.666,-9.946 -0.253,-0.429 -19.581,-33.751 -41.961,-72.33099 -23.159,-39.922 -49.404,-85.168 -49.826,-85.888 -2.552,-4.334 -6.129,-6.367 -9.57,-5.429 -2.215,0.603 -4.8,2.726 -4.8,6.727 l -0.001,147.34199 c 0,9.699 -8.519,18.205 -18.231,18.205 h -74.798 c -49.756,0 -90.236,-40.479 -90.236,-90.23199 0,-49.758 40.48,-90.237 90.236,-90.237 h 38.846 v -29.591 h -38.814 c -66.179,0 -119.828,53.647 -119.828,119.827 0,66.17699 53.649,119.82399 119.827,119.82399 h 75.522 c 28.708,0.019 47.172,-16.806 47.135,-47.833 v -68.34599 c 0,0 48.173,82.99099 50.383,86.74799 30.583,51.947 88.373,30.48 88.378,-14.238 l -0.003,-72.50999 c 0,0 48.173,82.99099 50.383,86.74799 30.586,51.947 88.373,30.48 88.376,-14.238 V 37.09792 Z"
   id="path55511-9-0" /></svg>
