<?xml version="1.0" encoding="UTF-8" standalone="no"?>
<!-- Generator: Adobe Illustrator 15.0.2, SVG Export Plug-In  -->

<svg
   inkscape:version="1.1.1 (c3084ef, 2021-09-22)"
   sodipodi:docname="logo-cnn.svg"
   id="svg49111"
   xml:space="preserve"
   enable-background="new 0 0 520 241"
   overflow="visible"
   viewBox="0 0 591 313"
   height="313"
   width="591"
   y="0px"
   x="0px"
   version="1.1"
   xmlns:inkscape="http://www.inkscape.org/namespaces/inkscape"
   xmlns:sodipodi="http://sodipodi.sourceforge.net/DTD/sodipodi-0.dtd"
   xmlns:xlink="http://www.w3.org/1999/xlink"
   xmlns="http://www.w3.org/2000/svg"
   xmlns:svg="http://www.w3.org/2000/svg"><sodipodi:namedview
   id="namedview49113"
   pagecolor="#ffffff"
   bordercolor="#999999"
   borderopacity="1"
   inkscape:pageshadow="0"
   inkscape:pageopacity="0"
   inkscape:pagecheckerboard="0"
   showgrid="false"
   inkscape:zoom="0.54182692"
   inkscape:cx="229.77817"
   inkscape:cy="495.5457"
   inkscape:window-width="1296"
   inkscape:window-height="969"
   inkscape:window-x="1997"
   inkscape:window-y="89"
   inkscape:window-maximized="0"
   inkscape:current-layer="svg49111"
   width="591px" />
<defs
   id="defs49087">
<clipPath
   id="SVGID_3_-9"><use
     xlink:href="#SVGID_2_-6"
     overflow="visible"
     id="use49092-6"
     x="0"
     y="0"
     width="100%"
     height="100%" /></clipPath><clipPath
   id="clipPath54691"><use
     xlink:href="#SVGID_2_-6"
     overflow="visible"
     id="use54689"
     x="0"
     y="0"
     width="100%"
     height="100%" /></clipPath><rect
   id="SVGID_2_-6"
   x="0.030999999"
   y="0.018999999"
   width="519.96899"
   height="241.43401" /><clipPath
   id="SVGID_3_-9-4"><use
     xlink:href="#SVGID_2_-6"
     overflow="visible"
     id="use49092-6-1"
     x="0"
     y="0"
     width="100%"
     height="100%" /></clipPath><clipPath
   id="clipPath54917"><use
     xlink:href="#SVGID_2_-6"
     overflow="visible"
     id="use54915"
     x="0"
     y="0"
     width="100%"
     height="100%" /></clipPath><rect
   id="rect54739-1"
   x="0.030999999"
   y="0.018999999"
   width="519.96899"
   height="241.43401" /><defs
   id="defs49090-6-8"><rect
     id="rect54963"
     x="0.030999999"
     y="0.018999999"
     width="519.96899"
     height="241.43401" /></defs><clipPath
   id="clipPath54699-4"><use
     xlink:href="#SVGID_2_-6"
     overflow="visible"
     id="use54697-8"
     x="0"
     y="0"
     width="100%"
     height="100%" /></clipPath><defs
   id="defs49090-6"><rect
     id="rect54739"
     x="0.030999999"
     y="0.018999999"
     width="519.96899"
     height="241.43401" /></defs><clipPath
   id="clipPath54699"><use
     xlink:href="#SVGID_2_-6"
     overflow="visible"
     id="use54697"
     x="0"
     y="0"
     width="100%"
     height="100%" /></clipPath><clipPath
   id="SVGID_3_-9-5"><use
     xlink:href="#SVGID_2_-6"
     overflow="visible"
     id="use49092-6-3"
     x="0"
     y="0"
     width="100%"
     height="100%" /></clipPath></defs>


<g
   id="g64759"
   transform="translate(756.15472,772.35378)"><g
     id="g61228"><path
       id="path61037"
       style="fill:#000000;fill-opacity:1"
       d="m -505.24842,-736.15625 c -14.88876,0.308 -28.51732,8.47015 -35.94726,21.57031 l -20.67383,-20.66992 h -38.8125 c -66.179,0 -119.82813,53.64227 -119.82813,119.82227 0,33.087 13.41075,63.04451 35.09375,84.72851 l 35.35743,35.35352 c 21.684,21.685 51.64146,35.09765 84.73047,35.09765 h 75.52148 c 28.708,0.019 47.17176,-16.80503 47.13476,-47.83203 v -42.83008 c 6.34031,10.9155 14.37006,24.75625 15.0293,25.87696 3.518,5.976 7.39586,10.98084 11.50586,15.08984 l 35.35547,35.35547 c 31.609,31.609 76.86709,10.24488 76.87109,-29.32813 l -0.002,-46.99218 c 6.33955,10.91419 14.36816,24.75438 15.02734,25.875 3.518,5.976 7.39686,10.97889 11.50586,15.08789 l 35.35547,35.35742 c 31.61,31.61 76.86714,10.24589 76.86914,-29.32813 v -195.98437 l -35.35547,-35.34961 v 29.51758 l -29.52343,-29.51758 v 9.86328 l -9.86524,-9.86328 h -29.6582 v 90.65625 c -6.34134,-10.91664 -14.37108,-24.75813 -15.03125,-25.87891 -3.518,-5.977 -7.39686,-10.97984 -11.50586,-15.08984 l -35.35547,-35.35742 c -31.609,-31.61 -76.86719,-10.23992 -76.86719,29.33008 v 46.99218 c -6.33955,-10.91403 -14.36757,-24.7544 -15.02734,-25.875 -3.518,-5.976 -7.39686,-10.98084 -11.50586,-15.08984 l -35.35742,-35.35742 c -10.8656,-10.86594 -23.34271,-15.47247 -35.04102,-15.23047 z m 183.2793,36.94727 c 1.69326,-0.15208 3.83471,0.17023 6.47266,1.02929 8.74573,15.0274 45.93945,79.09571 45.93945,79.09571 29.62722,56.49133 13.36873,44.35573 -9.31641,14.6582 l -46.03125,-77.17578 c -3.43657,-10.18286 -3.23537,-17.0532 2.93555,-17.60742 z m -243.07617,68.35156 h 17.9707 V -572.75 c 0.015,4.321 -3.23584,8.08766 -7.96484,8.09766 h -45.36133 c -4.70461,0 -9.25271,-0.65233 -13.57617,-1.84961 -1.1969,-4.32297 -1.84961,-8.87201 -1.84961,-13.57617 0,-28.04502 22.73525,-50.7793 50.78125,-50.7793 z m 229.58594,3.61719 37.04687,62.10937 c -10.51055,-14.25934 -22.03365,-27.83443 -35.02539,-40.82617 -1.09772,-8.37991 -1.73431,-15.36492 -2.02148,-21.2832 z m -309.50196,36.16796 c 2.33116,4.25523 5.25062,8.1432 8.6543,11.54688 95.3088,81.60764 -13.34483,29.925 -8.6543,-11.54688 z m 212.91992,14.91797 c 15.98125,22.98468 37.6159,50.41568 65.48047,78.49805 -9.21198,3.63062 -19.79036,4.04818 -30.17383,0.31836 -14.00943,-33.08536 -25.61811,-58.60072 -35.30664,-78.81641 z m 195.63086,65.95313 c 3.54215,5.80401 6.60342,10.47108 8.60938,12.54492 -9.21224,3.63124 -19.7914,4.04871 -30.17578,0.31836 z" /><path
       style="fill:#b9ae3d;fill-opacity:1"
       d="m -681.08814,-615.42886 c 0,44.31599 36.055,80.36799 80.372,80.36799 h 74.798 v 0 c 4.712,0 8.367,-4.484 8.367,-8.341 v 0 l 10e-4,-147.34199 v 0 c 0,-7.748 4.851,-14.277 12.069,-16.244 v 0 c 6.171,-1.681 14.839,0.048 20.667,9.947 v 0 c 0.314,0.53 25.5,43.948 49.854,85.938 v 0 c 21.389,36.86799 41.586,71.68999 41.935,72.28599 v 0 c 2.551,4.332 6.13,6.363 9.569,5.425 v 0 c 2.213,-0.604 4.797,-2.728 4.797,-6.729 v 0 -150.62199 c 0.004,-7.759 4.835,-14.29 12.025,-16.249 6.135,-1.671 14.758,0.066 20.579,9.952 0.295,0.502 22.409,38.623 45.82,78.982 22.4,38.61999 45.566,78.55299 45.965,79.23599 2.553,4.335 6.133,6.368 9.571,5.43 2.216,-0.604 4.801,-2.728 4.801,-6.729 v -195.13599 h -29.659 v 116.177 c 0,0 -48.173,-82.992 -50.386,-86.749 -30.583,-51.947 -88.373,-30.479 -88.373,14.239 v 72.51 c 0,0 -48.172,-82.992 -50.384,-86.749 -30.584,-51.947 -88.372,-30.479 -88.375,14.239 v 118.84399 c 0.015,4.321 -3.235,8.088 -7.964,8.098 h -45.361 c -28.046,0 -50.781,-22.735 -50.781,-50.78199 0,-28.045 22.735,-50.779 50.781,-50.779 h 38.529 v -29.593 h -38.846 c -44.316,0 -80.371,36.056 -80.371,80.373 m 451.055,-119.827 -0.003,195.13599 c 0,7.749 -4.85,14.276 -12.068,16.244 -1.324,0.359 -2.763,0.565 -4.261,0.565 -5.497,0 -11.827,-2.737 -16.405,-10.512 -0.25,-0.422 -18.373,-31.666 -45.997,-79.28599 -22.316,-38.473 -45.394,-78.253 -45.791,-78.933 -2.545,-4.326 -6.085,-6.358 -9.482,-5.435 -2.885,0.788 -4.753,3.43 -4.753,6.734 v 150.62299 c 0,7.75 -4.85,14.278 -12.069,16.244 -6.172,1.683 -14.84,-0.049 -20.666,-9.946 -0.253,-0.429 -19.581,-33.751 -41.961,-72.33099 -23.159,-39.922 -49.404,-85.168 -49.826,-85.888 -2.552,-4.334 -6.129,-6.367 -9.57,-5.429 -2.215,0.603 -4.8,2.726 -4.8,6.727 l -0.001,147.34199 c 0,9.699 -8.519,18.205 -18.231,18.205 h -74.798 c -49.756,0 -90.236,-40.479 -90.236,-90.23199 0,-49.758 40.48,-90.237 90.236,-90.237 h 38.846 v -29.591 h -38.814 c -66.179,0 -119.828,53.647 -119.828,119.827 0,66.17699 53.649,119.82399 119.827,119.82399 h 75.522 c 28.708,0.019 47.172,-16.806 47.135,-47.833 v -68.34599 c 0,0 48.173,82.99099 50.383,86.74799 30.583,51.947 88.373,30.48 88.378,-14.238 l -0.003,-72.50999 c 0,0 48.173,82.99099 50.383,86.74799 30.586,51.947 88.373,30.48 88.376,-14.238 v -195.98199 z"
       id="path55511-9-0" /></g></g></svg>
