<?xml version="1.0" encoding="UTF-8" standalone="no"?>
<svg
   width="386.5914pt"
   height="290.97617pt"
   viewBox="0 0 386.5914 290.97617"
   version="1.1"
   id="svg882"
   sodipodi:docname="Big_Cheese_Says.svg"
   inkscape:version="1.1.1 (c3084ef, 2021-09-22)"
   xmlns:inkscape="http://www.inkscape.org/namespaces/inkscape"
   xmlns:sodipodi="http://sodipodi.sourceforge.net/DTD/sodipodi-0.dtd"
   xmlns="http://www.w3.org/2000/svg"
   xmlns:svg="http://www.w3.org/2000/svg">
  <defs
     id="defs886" />
  <sodipodi:namedview
     id="namedview884"
     pagecolor="#ffffff"
     bordercolor="#999999"
     borderopacity="1"
     inkscape:pageshadow="0"
     inkscape:pageopacity="0"
     inkscape:pagecheckerboard="0"
     inkscape:document-units="pt"
     showgrid="false"
     fit-margin-top="0"
     fit-margin-left="0"
     fit-margin-right="0"
     fit-margin-bottom="0"
     inkscape:zoom="0.87075"
     inkscape:cx="502.44042"
     inkscape:cy="299.16738"
     inkscape:window-width="1728"
     inkscape:window-height="1051"
     inkscape:window-x="0"
     inkscape:window-y="38"
     inkscape:window-maximized="1"
     inkscape:current-layer="svg882" />
  <g
     id="g1078"
     transform="translate(-300.29038,-57.038732)">
    <g
       id="#fd893bff">
      <path
         fill="#fd893b"
         opacity="1"
         d="m 451.03,59.11 c 30.89,-2.9 62.06,-2.75 92.93,0.42 23.83,2.51 47.56,6.8 70.39,14.17 16.04,5.31 31.98,11.97 45.28,22.6 9.28,7.2 16.8,17.96 16.33,30.16 -0.33,3.52 -0.81,7.08 -2.09,10.4 -1.7,4.3 -5.26,7.47 -8.78,10.3 -6.19,4.84 -12.86,9.02 -19.24,13.6 -18.37,-7.47 -37.37,-13.26 -56.26,-19.26 -22.65,-6.93 -45.39,-13.75 -68.58,-18.64 -5.98,-1.17 -12.11,-2.44 -18.21,-1.44 0.69,3.73 4.43,5.58 7.17,7.71 16.8,11.1 34.83,20.16 52.61,29.55 8.08,4.26 16.28,8.28 24.47,12.32 3.28,1.63 6.62,3.14 9.87,4.85 -20.09,4.69 -40.41,8.41 -60.81,11.45 -9.78,1.4 -19.62,3.01 -29.53,2.22 16.16,-3.81 33.07,-3.07 49.08,-7.68 3.87,-1.08 7.44,-2.97 10.81,-5.12 -50.13,7.4 -101.79,8.5 -151.43,-2.86 -21.59,-4.95 -42.73,-12.21 -62.39,-22.47 -11.19,-5.89 -21.99,-12.66 -31.48,-21.04 2.22,5.62 4.39,11.39 8.16,16.19 3.86,5.05 9.12,8.74 14.25,12.37 -7.6,-2.34 -13.65,-7.8 -19.09,-13.4 -5.37,-5.63 -9.04,-12.92 -9.79,-20.72 0.04,-7.92 3.53,-15.49 8.79,-21.3 9.57,-10.79 22.58,-17.73 35.63,-23.42 29.17,-12.17 60.59,-17.89 91.91,-20.96 m 39.27,90.62 c 1.31,0.7 2.65,-0.63 3.97,-0.8 -0.76,-1.27 -1.12,-3.83 -3.14,-3.38 -2.13,-0.11 -2.81,3.42 -0.83,4.18 m -41.05,4.03 c 3.81,4.92 1.06,11.6 2.72,17.22 0.27,0.22 0.82,0.68 1.1,0.91 4.56,0.96 9.37,0.98 13.95,0.04 2.39,-0.5 5.35,-2.09 5.18,-4.92 -0.09,-3.04 -2.99,-4.76 -5.06,-6.52 1.62,-1.58 3.83,-3.02 4.16,-5.46 0.78,-4.07 -2.13,-8.4 -6.24,-9.09 -6.08,-1.26 -14.43,0.84 -15.81,7.82 m 67.65,-5.96 c -7.67,4.21 -8.44,16.53 -1.48,21.76 5.74,4.26 13.63,3.06 19.89,0.69 0.92,-2.31 1.36,-4.79 1.65,-7.25 0.04,-1.28 0.5,-3.34 -1.36,-3.43 -3.4,-0.7 -6.96,-0.79 -10.38,-0.23 -0.97,0.72 -0.84,2.06 -1.1,3.11 2.76,0.19 5.51,0.38 8.27,0.61 -0.09,1.37 -0.18,2.74 -0.26,4.11 -4.94,1.24 -11.22,1.99 -14.86,-2.42 -3.9,-3.77 -2.07,-10.53 2.34,-13.06 3.24,-2.3 7.38,-1.84 11.1,-1.35 0.38,1.92 0.78,3.86 1.19,5.79 1.13,-0.29 2.26,-0.58 3.4,-0.87 -0.05,-2.5 -0.07,-5 -0.04,-7.49 -5.64,-2.85 -12.76,-2.93 -18.36,0.03 m -27.96,5.22 c -0.13,6.53 0.35,13.06 0.78,19.57 1.11,-0.52 3.77,0.15 3.79,-1.67 0.51,-6.74 0.24,-13.52 -0.16,-20.25 -1.59,0.29 -4.53,-0.05 -4.41,2.35 z"
         id="path827" />
      <path
         fill="#fd893b"
         opacity="1"
         d="m 455.07,151.18 c 3.72,-1.84 8.83,-2.52 12.01,0.71 1.78,1.74 0.27,4.52 -1.59,5.5 -3.27,1.72 -7.08,1.45 -10.66,1.56 0.05,-2.59 0.13,-5.18 0.24,-7.77 z"
         id="path829" />
      <path
         fill="#fd893b"
         opacity="1"
         d="m 455.22,163 c 4.66,-0.17 10.2,-0.4 13.09,4.05 -4.01,1.64 -8.38,1.65 -12.63,1.41 -0.16,-1.83 -0.32,-3.65 -0.46,-5.46 z"
         id="path831" />
      <path
         fill="#fd893b"
         opacity="1"
         d="m 314.06,182.92 c 0.36,-6.2 1.62,-12.7 5.69,-17.61 4.01,10.32 7.62,20.93 13.63,30.32 7.55,11.78 17.38,21.85 27.2,31.74 17.91,17.75 39.35,31.21 59.78,45.78 -0.79,2.71 -0.09,5.51 -0.39,8.23 -1.35,2.24 -3.09,5.23 -0.78,7.49 -1.09,1.05 -2.17,2.1 -3.26,3.15 0.88,0.28 1.77,0.56 2.66,0.84 -2.19,3.11 -3.03,6.88 -2.95,10.63 0.09,4.4 -2.25,8.28 -3.94,12.18 0.79,0.42 1.59,0.85 2.39,1.29 -8.21,-0.42 -16.21,-2.37 -24.23,-3.96 -18.34,-3.88 -37.35,-10.4 -50.08,-24.87 -16.2,-18.75 -22.37,-43.9 -23.77,-68.13 -0.48,-12.37 -2.52,-24.68 -1.95,-37.08 z"
         id="path833" />
    </g>
    <g
       id="#ffd634ff">
      <path
         fill="#ffd634"
         opacity="1"
         d="m 502.8,121.42 c 6.1,-1 12.23,0.27 18.21,1.44 23.19,4.89 45.93,11.71 68.58,18.64 18.89,6 37.89,11.79 56.26,19.26 3.96,4.11 4.87,9.98 5.85,15.36 2.34,15.16 2.53,30.55 2.73,45.86 0.04,29.11 -1.25,58.2 -2.99,87.24 -5.05,4.51 -11.4,7.6 -17.35,10.89 -14.29,7.39 -29.57,12.71 -45.1,16.83 7.89,-17.14 11.68,-35.85 13.67,-54.52 2.75,-27.06 1.59,-54.37 -1.5,-81.35 -0.08,-0.54 -0.25,-1.63 -0.34,-2.17 -0.49,-0.5 -0.99,-0.99 -1.5,-1.45 l 1.47,0.31 c -1.32,-7.3 -1.62,-14.81 -3.87,-21.91 -3.25,-1.71 -6.59,-3.22 -9.87,-4.85 0.56,-4.09 1.34,-8.55 -0.75,-12.37 -2.26,-4.91 -8,-7.76 -13.29,-6.64 -4.3,0.6 -7.49,3.77 -10.43,6.69 -17.78,-9.39 -35.81,-18.45 -52.61,-29.55 -2.74,-2.13 -6.48,-3.98 -7.17,-7.71 m 120.61,43.06 c -6.34,1.83 -11.38,8.43 -9.92,15.16 1.78,8.42 11.75,12.99 19.65,10.51 6.79,-1.61 12.38,-8.75 10.41,-15.84 -2.12,-8.41 -12.3,-12.53 -20.14,-9.83 m -4.08,59.94 c -7.43,1.34 -13.32,8.06 -14.1,15.49 -1.21,7.64 3.72,16.15 11.71,17.28 11.13,2.08 21.15,-9.42 19.33,-20.17 -0.72,-8.02 -9,-14.36 -16.94,-12.6 m 19.04,50.04 c -7.68,0.68 -13.66,7.28 -15.63,14.42 -1.54,5.32 -0.72,11.93 3.84,15.58 3.32,2.82 8.23,2.92 12.06,1.11 8.42,-3.86 13.65,-14.19 10.96,-23.2 -1.41,-4.77 -6.19,-8.4 -11.23,-7.91 z"
         id="path836" />
    </g>
    <g
       id="#fd6225ff">
      <path
         fill="#fd6225"
         opacity="1"
         d="m 305.41,153.41 c 2.35,-9.75 5.09,-19.49 9.29,-28.62 0.75,7.8 4.42,15.09 9.79,20.72 5.44,5.6 11.49,11.06 19.09,13.4 12.24,7.5 25.89,12.25 39.65,16.09 25.15,6.89 50.81,12.05 76.79,14.42 15.47,1.37 31.1,1.99 46.56,0.1 9.91,0.79 19.75,-0.82 29.53,-2.22 20.4,-3.04 40.72,-6.76 60.81,-11.45 2.25,7.1 2.55,14.61 3.87,21.91 l -1.47,-0.31 c -5.34,-1.18 -10.94,-1.36 -16.31,-0.31 -0.23,0.25 -0.68,0.76 -0.91,1.02 -0.47,3.92 -0.27,7.9 -0.94,11.81 0.56,3.47 0.47,7.06 1.49,10.44 0.88,2 3.34,2.15 5.23,2.29 3.35,0.11 6.8,0.08 10.05,-0.86 1.95,-0.27 2.01,-2.55 2.8,-3.93 -4.51,-0.36 -9.31,1.72 -13.62,0.06 -0.48,-2.17 -0.44,-4.42 -0.57,-6.62 4.4,-0.18 8.81,-0.04 13.22,-0.11 -1.67,-5.76 -8.78,-4.02 -13.31,-4.52 0.03,-1.83 0.06,-3.66 0.1,-5.49 4.86,-0.35 9.74,-0.29 14.61,-0.16 3.09,26.98 4.25,54.29 1.5,81.35 -1.99,18.67 -5.78,37.38 -13.67,54.52 -43.94,11.3 -89.88,13.02 -134.94,9.32 -31.62,-2.9 -63.36,-8.42 -92.92,-20.38 -11.92,-4.96 -23.63,-11 -33.25,-19.72 -6.08,-5.61 -11.48,-12.69 -12.62,-21.1 -0.58,-5.48 -2.93,-10.5 -4.5,-15.72 -11.19,-37.39 -14.1,-77.72 -5.35,-115.93 m 8.65,29.51 c -0.57,12.4 1.47,24.71 1.95,37.08 1.4,24.23 7.57,49.38 23.77,68.13 12.73,14.47 31.74,20.99 50.08,24.87 8.02,1.59 16.02,3.54 24.23,3.96 -0.8,-0.44 -1.6,-0.87 -2.39,-1.29 1.69,-3.9 4.03,-7.78 3.94,-12.18 -0.08,-3.75 0.76,-7.52 2.95,-10.63 -0.89,-0.28 -1.78,-0.56 -2.66,-0.84 1.09,-1.05 2.17,-2.1 3.26,-3.15 -2.31,-2.26 -0.57,-5.25 0.78,-7.49 0.3,-2.72 -0.4,-5.52 0.39,-8.23 -20.43,-14.57 -41.87,-28.03 -59.78,-45.78 -9.82,-9.89 -19.65,-19.96 -27.2,-31.74 -6.01,-9.39 -9.62,-20 -13.63,-30.32 -4.07,4.91 -5.33,11.41 -5.69,17.61 m 77.04,16.2 c -7.74,4.52 -7.95,17.36 -0.41,22.16 5.47,3.29 12.66,2.39 18.03,-0.68 1.74,-0.55 1.12,-3.02 -0.53,-3.21 -3.71,0.7 -7.43,2.3 -11.27,1.46 -4.02,-0.88 -7.99,-4.41 -7.65,-8.84 0.11,-4.2 3.98,-7.13 7.71,-8.18 3.6,-0.99 7,1.12 10.21,2.46 0.58,-1.1 2.57,-1.82 1.88,-3.29 -4.33,-5.26 -12.56,-5.77 -17.97,-1.88 m 37.03,-0.98 c -0.74,3.93 0.35,8.13 -1.49,11.85 2.14,4.07 0.55,8.74 1.28,13.08 1.34,0.66 2.54,0.52 3.62,-0.42 0.68,-3.63 0.56,-7.35 0.74,-11.02 3.89,-0.44 7.81,-0.58 11.73,-0.43 0.09,3.57 -0.19,7.17 0.37,10.71 0.34,2.18 2.95,1.05 4.47,1.41 0.01,-4.46 -0.52,-8.96 0.47,-13.36 -1.32,-3.83 -0.84,-7.93 -1.41,-11.88 -0.69,-1.64 -2.91,-1.38 -3.85,-0.14 -0.31,3.02 -0.04,6.06 0.03,9.08 -3.9,-0.18 -7.8,-0.28 -11.69,-0.15 0.09,-3.34 0.12,-6.69 -0.06,-10.03 -1.4,0.35 -3.27,-0.08 -4.21,1.3 m 40.12,-0.83 c -1.5,4.04 0.09,8.62 -1.56,12.7 1.21,3.19 0.73,6.66 1.48,9.93 1.38,3.44 5.87,2.66 8.84,2.78 3.2,-0.4 8.18,0.3 9.36,-3.66 -3.81,-3.29 -9.9,1.81 -13.7,-1.48 -0.33,-2.05 -0.27,-4.14 -0.33,-6.22 3.99,-0.31 8,0.06 12,-0.08 l 0.94,-1.22 c -2.55,-4.44 -8.78,-2.82 -13.09,-3.29 0.02,-1.84 0.05,-3.67 0.09,-5.51 4.79,-0.59 9.61,0.01 14.41,-0.39 1.39,-2.38 -1.72,-3.62 -3.59,-3.86 -4.9,-0.74 -10.01,-0.83 -14.85,0.3 m 37.46,-0.37 c -1.2,4.27 -0.22,8.81 -1.52,13.06 1.64,3.81 -0.32,8.98 3.03,11.94 4.08,1.34 8.53,0.81 12.71,0.23 2.06,-0.1 4.66,-1.89 3.25,-4.16 -4.38,-0.44 -8.77,1.4 -13.09,0.12 -0.05,-2.25 -0.13,-4.5 -0.19,-6.74 4.23,-0.3 8.48,-0.1 12.72,-0.03 -0.2,-1.49 -0.54,-3.31 -2.29,-3.63 -3.42,-1.1 -7.06,-0.88 -10.59,-0.97 0.01,-1.82 0.04,-3.65 0.07,-5.47 4.88,-0.52 9.78,-0.33 14.68,-0.17 -0.24,-1.37 -0.2,-3.25 -1.92,-3.59 -5.46,-1.69 -11.26,-0.89 -16.86,-0.59 m 41.71,0.61 c -4.31,1.45 -6.88,7.21 -4.12,11.09 4.43,4.64 12.09,2.75 16.66,7.19 -4.65,4.82 -11.93,1.97 -17.28,-0.01 -0.52,0.94 -1.41,1.74 -1.51,2.86 1.44,2.4 4.4,3.14 6.94,3.78 4.67,0.91 10.2,1.08 14.02,-2.23 2.88,-2.48 2.49,-7.56 -0.72,-9.59 -4.32,-2.68 -10.25,-1.48 -14.16,-5.02 -1.35,-1.59 0.06,-3.72 1.81,-4.18 4.27,-1.3 8.6,0.49 12.87,0.89 1.68,-0.21 1.28,-2.75 -0.02,-3.23 -4.28,-2.52 -9.78,-3.08 -14.49,-1.55 m -97.62,50.27 c -4.19,1.74 -6.37,7.96 -2.96,11.4 4.63,3.88 11.7,2.37 16.12,6.62 -4.62,4.8 -11.85,1.95 -17.19,0.03 -0.69,0.97 -1.38,1.94 -2.04,2.92 4.14,3.7 9.97,4.66 15.34,4.06 3.02,-0.45 6.42,-1.85 7.61,-4.9 1.2,-2.87 -0.23,-6.44 -3.02,-7.76 -4.26,-2.06 -9.68,-1.26 -13.38,-4.53 -1.4,-1.57 0,-3.72 1.73,-4.21 4.32,-1.31 8.71,0.44 13.01,0.94 2.48,-1.18 0.29,-3.4 -1.36,-4.02 -4.32,-1.8 -9.47,-2.4 -13.86,-0.55 m 35.22,0.29 c -0.46,3.95 0.18,8.02 -1.04,11.88 1.21,3.35 0.43,7.05 1.64,10.38 1.88,3.21 6.3,2.16 9.41,2.31 3.27,-0.23 8.66,-0.08 8.43,-4.73 -4.09,-0.24 -8.14,0.95 -12.2,0.62 -2.62,-1.19 -1.18,-4.91 -1.65,-7.19 4.3,-0.29 8.61,-0.06 12.92,-0.09 -0.25,-0.69 -0.74,-2.07 -0.99,-2.76 -3.57,-2.23 -8.06,-1.54 -12.08,-1.77 0.02,-1.83 0.04,-3.66 0.08,-5.48 4.93,-0.51 9.89,-0.27 14.84,-0.24 -0.37,-1.22 -0.34,-2.92 -1.79,-3.39 -4.33,-1.48 -9.03,-1.25 -13.53,-0.97 -1.41,0.24 -3.26,-0.08 -4.04,1.43 m 37.35,-0.57 c -1.98,0.16 -1.13,2.31 -0.24,3.25 4.84,0.55 9.73,0.02 14.6,0.23 -1.35,1.9 -2.56,3.91 -4.19,5.59 -2.13,1.21 -5.77,0.39 -6.42,3.39 0.63,0.84 1.43,1.5 2.41,1.99 -2.84,3.39 -5.57,6.95 -7.07,11.15 6.7,1.33 13.65,0.87 20.38,-0.01 -0.27,-0.71 -0.83,-2.12 -1.1,-2.82 -4.06,-0.99 -8.31,-0.45 -12.44,-0.8 1.99,-2.83 4.04,-5.63 6.11,-8.4 1.91,-0.07 3.82,-0.12 5.74,-0.2 0.05,-0.71 0.15,-2.14 0.2,-2.86 -0.75,-0.19 -2.24,-0.58 -2.98,-0.78 2.12,-2.88 5.15,-5.56 5.1,-9.44 -6.63,-1.05 -13.46,-1.21 -20.1,-0.29 z"
         id="path839" />
      <path
         fill="#fd6225"
         opacity="1"
         d="m 675.96,126.46 c 3.63,11.19 5.08,22.96 7.01,34.53 4.78,33.86 6.22,68.82 -1.71,102.33 -2.64,10.12 -5.39,20.62 -11.87,29.06 -4.98,6.55 -10.98,12.43 -17.95,16.84 1.74,-29.04 3.03,-58.13 2.99,-87.24 -0.2,-15.31 -0.39,-30.7 -2.73,-45.86 -0.98,-5.38 -1.89,-11.25 -5.85,-15.36 6.38,-4.58 13.05,-8.76 19.24,-13.6 3.52,-2.83 7.08,-6 8.78,-10.3 1.28,-3.32 1.76,-6.88 2.09,-10.4 z"
         id="path841" />
    </g>
    <g
       id="#fce2caff">
      <path
         fill="#fce2ca"
         opacity="1"
         d="m 321.17,130.35 c 9.49,8.38 20.29,15.15 31.48,21.04 19.66,10.26 40.8,17.52 62.39,22.47 49.64,11.36 101.3,10.26 151.43,2.86 -3.37,2.15 -6.94,4.04 -10.81,5.12 -16.01,4.61 -32.92,3.87 -49.08,7.68 -15.46,1.89 -31.09,1.27 -46.56,-0.1 -25.98,-2.37 -51.64,-7.53 -76.79,-14.42 -13.76,-3.84 -27.41,-8.59 -39.65,-16.09 -5.13,-3.63 -10.39,-7.32 -14.25,-12.37 -3.77,-4.8 -5.94,-10.57 -8.16,-16.19 z"
         id="path844" />
      <path
         fill="#fce2ca"
         opacity="1"
         d="m 490.3,149.73 c -1.98,-0.76 -1.3,-4.29 0.83,-4.18 2.02,-0.45 2.38,2.11 3.14,3.38 -1.32,0.17 -2.66,1.5 -3.97,0.8 z"
         id="path846" />
      <path
         fill="#fce2ca"
         opacity="1"
         d="m 449.25,153.76 c 1.38,-6.98 9.73,-9.08 15.81,-7.82 4.11,0.69 7.02,5.02 6.24,9.09 -0.33,2.44 -2.54,3.88 -4.16,5.46 2.07,1.76 4.97,3.48 5.06,6.52 0.17,2.83 -2.79,4.42 -5.18,4.92 -4.58,0.94 -9.39,0.92 -13.95,-0.04 -0.28,-0.23 -0.83,-0.69 -1.1,-0.91 -1.66,-5.62 1.09,-12.3 -2.72,-17.22 m 5.82,-2.58 c -0.11,2.59 -0.19,5.18 -0.24,7.77 3.58,-0.11 7.39,0.16 10.66,-1.56 1.86,-0.98 3.37,-3.76 1.59,-5.5 -3.18,-3.23 -8.29,-2.55 -12.01,-0.71 m 0.15,11.82 c 0.14,1.81 0.3,3.63 0.46,5.46 4.25,0.24 8.62,0.23 12.63,-1.41 -2.89,-4.45 -8.43,-4.22 -13.09,-4.05 z"
         id="path848" />
      <path
         fill="#fce2ca"
         opacity="1"
         d="m 516.9,147.8 c 5.6,-2.96 12.72,-2.88 18.36,-0.03 -0.03,2.49 -0.01,4.99 0.04,7.49 -1.14,0.29 -2.27,0.58 -3.4,0.87 -0.41,-1.93 -0.81,-3.87 -1.19,-5.79 -3.72,-0.49 -7.86,-0.95 -11.1,1.35 -4.41,2.53 -6.24,9.29 -2.34,13.06 3.64,4.41 9.92,3.66 14.86,2.42 0.08,-1.37 0.17,-2.74 0.26,-4.11 -2.76,-0.23 -5.51,-0.42 -8.27,-0.61 0.26,-1.05 0.13,-2.39 1.1,-3.11 3.42,-0.56 6.98,-0.47 10.38,0.23 1.86,0.09 1.4,2.15 1.36,3.43 -0.29,2.46 -0.73,4.94 -1.65,7.25 -6.26,2.37 -14.15,3.57 -19.89,-0.69 -6.96,-5.23 -6.19,-17.55 1.48,-21.76 z"
         id="path850" />
      <path
         fill="#fce2ca"
         opacity="1"
         d="m 488.94,153.02 c -0.12,-2.4 2.82,-2.06 4.41,-2.35 0.4,6.73 0.67,13.51 0.16,20.25 -0.02,1.82 -2.68,1.15 -3.79,1.67 -0.43,-6.51 -0.91,-13.04 -0.78,-19.57 z"
         id="path852" />
      <path
         fill="#fce2ca"
         opacity="1"
         d="m 391.1,199.12 c 5.41,-3.89 13.64,-3.38 17.97,1.88 0.69,1.47 -1.3,2.19 -1.88,3.29 -3.21,-1.34 -6.61,-3.45 -10.21,-2.46 -3.73,1.05 -7.6,3.98 -7.71,8.18 -0.34,4.43 3.63,7.96 7.65,8.84 3.84,0.84 7.56,-0.76 11.27,-1.46 1.65,0.19 2.27,2.66 0.53,3.21 -5.37,3.07 -12.56,3.97 -18.03,0.68 -7.54,-4.8 -7.33,-17.64 0.41,-22.16 z"
         id="path854" />
      <path
         fill="#fce2ca"
         opacity="1"
         d="m 428.13,198.14 c 0.94,-1.38 2.81,-0.95 4.21,-1.3 0.18,3.34 0.15,6.69 0.06,10.03 3.89,-0.13 7.79,-0.03 11.69,0.15 -0.07,-3.02 -0.34,-6.06 -0.03,-9.08 0.94,-1.24 3.16,-1.5 3.85,0.14 0.57,3.95 0.09,8.05 1.41,11.88 -0.99,4.4 -0.46,8.9 -0.47,13.36 -1.52,-0.36 -4.13,0.77 -4.47,-1.41 -0.56,-3.54 -0.28,-7.14 -0.37,-10.71 -3.92,-0.15 -7.84,-0.01 -11.73,0.43 -0.18,3.67 -0.06,7.39 -0.74,11.02 -1.08,0.94 -2.28,1.08 -3.62,0.42 -0.73,-4.34 0.86,-9.01 -1.28,-13.08 1.84,-3.72 0.75,-7.92 1.49,-11.85 z"
         id="path856" />
      <path
         fill="#fce2ca"
         opacity="1"
         d="m 468.25,197.31 c 4.84,-1.13 9.95,-1.04 14.85,-0.3 1.87,0.24 4.98,1.48 3.59,3.86 -4.8,0.4 -9.62,-0.2 -14.41,0.39 -0.04,1.84 -0.07,3.67 -0.09,5.51 4.31,0.47 10.54,-1.15 13.09,3.29 l -0.94,1.22 c -4,0.14 -8.01,-0.23 -12,0.08 0.06,2.08 0,4.17 0.33,6.22 3.8,3.29 9.89,-1.81 13.7,1.48 -1.18,3.96 -6.16,3.26 -9.36,3.66 -2.97,-0.12 -7.46,0.66 -8.84,-2.78 -0.75,-3.27 -0.27,-6.74 -1.48,-9.93 1.65,-4.08 0.06,-8.66 1.56,-12.7 z"
         id="path858" />
      <path
         fill="#fce2ca"
         opacity="1"
         d="m 505.71,196.94 c 5.6,-0.3 11.4,-1.1 16.86,0.59 1.72,0.34 1.68,2.22 1.92,3.59 -4.9,-0.16 -9.8,-0.35 -14.68,0.17 -0.03,1.82 -0.06,3.65 -0.07,5.47 3.53,0.09 7.17,-0.13 10.59,0.97 1.75,0.32 2.09,2.14 2.29,3.63 -4.24,-0.07 -8.49,-0.27 -12.72,0.03 0.06,2.24 0.14,4.49 0.19,6.74 4.32,1.28 8.71,-0.56 13.09,-0.12 1.41,2.27 -1.19,4.06 -3.25,4.16 -4.18,0.58 -8.63,1.11 -12.71,-0.23 -3.35,-2.96 -1.39,-8.13 -3.03,-11.94 1.3,-4.25 0.32,-8.79 1.52,-13.06 z"
         id="path860" />
      <path
         fill="#fce2ca"
         opacity="1"
         d="m 547.42,197.55 c 4.71,-1.53 10.21,-0.97 14.49,1.55 1.3,0.48 1.7,3.02 0.02,3.23 -4.27,-0.4 -8.6,-2.19 -12.87,-0.89 -1.75,0.46 -3.16,2.59 -1.81,4.18 3.91,3.54 9.84,2.34 14.16,5.02 3.21,2.03 3.6,7.11 0.72,9.59 -3.82,3.31 -9.35,3.14 -14.02,2.23 -2.54,-0.64 -5.5,-1.38 -6.94,-3.78 0.1,-1.12 0.99,-1.92 1.51,-2.86 5.35,1.98 12.63,4.83 17.28,0.01 -4.57,-4.44 -12.23,-2.55 -16.66,-7.19 -2.76,-3.88 -0.19,-9.64 4.12,-11.09 z"
         id="path862" />
      <path
         fill="#fce2ca"
         opacity="1"
         d="m 583.01,197.14 c 5.37,-1.05 10.97,-0.87 16.31,0.31 0.51,0.46 1.01,0.95 1.5,1.45 0.09,0.54 0.26,1.63 0.34,2.17 -4.87,-0.13 -9.75,-0.19 -14.61,0.16 -0.04,1.83 -0.07,3.66 -0.1,5.49 4.53,0.5 11.64,-1.24 13.31,4.52 -4.41,0.07 -8.82,-0.07 -13.22,0.11 0.13,2.2 0.09,4.45 0.57,6.62 4.31,1.66 9.11,-0.42 13.62,-0.06 -0.79,1.38 -0.85,3.66 -2.8,3.93 -3.25,0.94 -6.7,0.97 -10.05,0.86 -1.89,-0.14 -4.35,-0.29 -5.23,-2.29 -1.02,-3.38 -0.93,-6.97 -1.49,-10.44 0.67,-3.91 0.47,-7.89 0.94,-11.81 0.23,-0.26 0.68,-0.77 0.91,-1.02 z"
         id="path864" />
      <path
         fill="#fce2ca"
         opacity="1"
         d="m 449.8,247.82 c 4.39,-1.85 9.54,-1.25 13.86,0.55 1.65,0.62 3.84,2.84 1.36,4.02 -4.3,-0.5 -8.69,-2.25 -13.01,-0.94 -1.73,0.49 -3.13,2.64 -1.73,4.21 3.7,3.27 9.12,2.47 13.38,4.53 2.79,1.32 4.22,4.89 3.02,7.76 -1.19,3.05 -4.59,4.45 -7.61,4.9 -5.37,0.6 -11.2,-0.36 -15.34,-4.06 0.66,-0.98 1.35,-1.95 2.04,-2.92 5.34,1.92 12.57,4.77 17.19,-0.03 -4.42,-4.25 -11.49,-2.74 -16.12,-6.62 -3.41,-3.44 -1.23,-9.66 2.96,-11.4 z"
         id="path866" />
      <path
         fill="#fce2ca"
         opacity="1"
         d="m 485.02,248.11 c 0.78,-1.51 2.63,-1.19 4.04,-1.43 4.5,-0.28 9.2,-0.51 13.53,0.97 1.45,0.47 1.42,2.17 1.79,3.39 -4.95,-0.03 -9.91,-0.27 -14.84,0.24 -0.04,1.82 -0.06,3.65 -0.08,5.48 4.02,0.23 8.51,-0.46 12.08,1.77 0.25,0.69 0.74,2.07 0.99,2.76 -4.31,0.03 -8.62,-0.2 -12.92,0.09 0.47,2.28 -0.97,6 1.65,7.19 4.06,0.33 8.11,-0.86 12.2,-0.62 0.23,4.65 -5.16,4.5 -8.43,4.73 -3.11,-0.15 -7.53,0.9 -9.41,-2.31 -1.21,-3.33 -0.43,-7.03 -1.64,-10.38 1.22,-3.86 0.58,-7.93 1.04,-11.88 z"
         id="path868" />
      <path
         fill="#fce2ca"
         opacity="1"
         d="m 522.37,247.54 c 6.64,-0.92 13.47,-0.76 20.1,0.29 0.05,3.88 -2.98,6.56 -5.1,9.44 0.74,0.2 2.23,0.59 2.98,0.78 -0.05,0.72 -0.15,2.15 -0.2,2.86 -1.92,0.08 -3.83,0.13 -5.74,0.2 -2.07,2.77 -4.12,5.57 -6.11,8.4 4.13,0.35 8.38,-0.19 12.44,0.8 0.27,0.7 0.83,2.11 1.1,2.82 -6.73,0.88 -13.68,1.34 -20.38,0.01 1.5,-4.2 4.23,-7.76 7.07,-11.15 -0.98,-0.49 -1.78,-1.15 -2.41,-1.99 0.65,-3 4.29,-2.18 6.42,-3.39 1.63,-1.68 2.84,-3.69 4.19,-5.59 -4.87,-0.21 -9.76,0.32 -14.6,-0.23 -0.89,-0.94 -1.74,-3.09 0.24,-3.25 z"
         id="path870" />
    </g>
    <g
       id="#fe971dff">
      <path
         fill="#fe971d"
         opacity="1"
         d="m 562.58,158.68 c 2.94,-2.92 6.13,-6.09 10.43,-6.69 5.29,-1.12 11.03,1.73 13.29,6.64 2.09,3.82 1.31,8.28 0.75,12.37 -8.19,-4.04 -16.39,-8.06 -24.47,-12.32 z"
         id="path873" />
      <path
         fill="#fe971d"
         opacity="1"
         d="m 623.41,164.48 c 7.84,-2.7 18.02,1.42 20.14,9.83 1.97,7.09 -3.62,14.23 -10.41,15.84 -7.9,2.48 -17.87,-2.09 -19.65,-10.51 -1.46,-6.73 3.58,-13.33 9.92,-15.16 z"
         id="path875" />
      <path
         fill="#fe971d"
         opacity="1"
         d="m 619.33,224.42 c 7.94,-1.76 16.22,4.58 16.94,12.6 1.82,10.75 -8.2,22.25 -19.33,20.17 -7.99,-1.13 -12.92,-9.64 -11.71,-17.28 0.78,-7.43 6.67,-14.15 14.1,-15.49 z"
         id="path877" />
      <path
         fill="#fe971d"
         opacity="1"
         d="m 638.37,274.46 c 5.04,-0.49 9.82,3.14 11.23,7.91 2.69,9.01 -2.54,19.34 -10.96,23.2 -3.83,1.81 -8.74,1.71 -12.06,-1.11 -4.56,-3.65 -5.38,-10.26 -3.84,-15.58 1.97,-7.14 7.95,-13.74 15.63,-14.42 z"
         id="path879" />
    </g>
  </g>
</svg>
