<?xml version="1.0" encoding="UTF-8" standalone="no"?>
<svg
   width="563.1662pt"
   height="265.03436pt"
   viewBox="0 0 563.1662 265.03436"
   version="1.1"
   id="svg1210"
   sodipodi:docname="revenenant_report.svg"
   inkscape:version="1.1.1 (c3084ef, 2021-09-22)"
   xmlns:inkscape="http://www.inkscape.org/namespaces/inkscape"
   xmlns:sodipodi="http://sodipodi.sourceforge.net/DTD/sodipodi-0.dtd"
   xmlns="http://www.w3.org/2000/svg"
   xmlns:svg="http://www.w3.org/2000/svg">
  <defs
     id="defs1214" />
  <sodipodi:namedview
     id="namedview1212"
     pagecolor="#ffffff"
     bordercolor="#999999"
     borderopacity="1"
     inkscape:pageshadow="0"
     inkscape:pageopacity="0"
     inkscape:pagecheckerboard="0"
     inkscape:document-units="pt"
     showgrid="false"
     fit-margin-top="0"
     fit-margin-left="0"
     fit-margin-right="0"
     fit-margin-bottom="0"
     inkscape:zoom="0.42246684"
     inkscape:cx="197.64865"
     inkscape:cy="285.22949"
     inkscape:window-width="1296"
     inkscape:window-height="969"
     inkscape:window-x="0"
     inkscape:window-y="38"
     inkscape:window-maximized="0"
     inkscape:current-layer="svg1210" />
  <g
     id="#000000ff"
     transform="translate(-48,-197.76)">
    <path
       fill="#000000"
       opacity="1"
       d="m 321.6,199.61 c 2.53,-0.79 5,0.57 7.42,1.17 1.42,1.56 2.89,3.07 4.41,4.55 1.57,3.83 2.73,7.81 4.03,11.75 -0.34,5.65 2.79,10.46 5.12,15.33 1.91,-0.64 3.82,-1.27 5.74,-1.91 1.18,2.2 2.1,4.56 3.62,6.56 4.07,2.35 8.92,3.31 12.54,6.49 2.96,2.65 6.88,5.26 7.43,9.52 0.96,8.98 2.65,17.91 2.35,26.98 0.19,5.53 4.5,9.64 5.53,14.93 1.03,5.19 3.04,10.09 4.83,15.05 3.03,3.93 3.77,9.06 4.65,13.82 0.13,4.86 -0.06,9.72 0.12,14.58 -1.53,0.19 -1.59,0.79 -0.2,1.81 0.02,2.46 -0.03,4.93 -0.03,7.4 -1.85,-2.22 -2.93,-4.93 -4.34,-7.41 -2.02,-3.15 -1.96,-7.02 -3.02,-10.5 -1.29,1.34 -2.45,2.79 -3.5,4.32 -1.2,1.21 -2.42,2.41 -3.64,3.61 -1.96,-2.09 -3.69,-4.39 -5.4,-6.67 -0.12,5.43 0.27,10.9 -0.46,16.31 -0.71,-5.5 0.38,-11.19 -1.81,-16.46 -2.83,9.44 -2.26,19.42 -2.33,29.16 -0.83,-3.29 0.56,-7.43 -1.52,-10.14 l -0.47,0.12 c -0.5,6.15 0.18,12.35 -0.56,18.51 -0.77,-5.46 -0.45,-11.01 -1.27,-16.46 -1.21,6.41 -0.35,13.02 -1.93,19.4 -0.41,-4.71 -0.21,-9.48 -1.13,-14.14 -1.06,-4.1 2.1,-8.85 -1.39,-12.3 -0.08,-0.74 -0.24,-2.2 -0.32,-2.93 -1.87,0.58 -2.81,2.26 -3.7,3.86 2.03,4.1 1.58,8.74 1.24,13.15 0.41,0.38 1.23,1.16 1.64,1.54 -1.61,3.36 -0.57,7 -0.03,10.47 0.63,3.34 -0.34,6.66 -0.44,10 -0.36,2.2 1.82,3.38 3.03,4.84 0.5,4.32 4.21,6.94 6.03,10.63 1.94,0.49 3.9,0.97 5.85,1.46 2.58,2.56 5.75,4.34 8.95,6.02 -0.78,4.09 1.23,7.95 1.12,12.04 -1.47,-2.94 -2.86,-5.91 -4.39,-8.8 -0.62,-0.02 -1.84,-0.06 -2.45,-0.09 -0.33,-1.33 -0.64,-2.66 -0.94,-3.98 -0.47,0.09 -1.39,0.28 -1.86,0.37 0.65,2.24 2,4.12 3.72,5.68 0.26,1.42 0.42,2.88 0.85,4.28 1.19,1.61 3.19,2.6 4.03,4.48 0.46,2.35 -0.21,4.72 -0.56,7.05 1.94,1.28 4.53,1.96 5.86,3.94 0.55,4.05 0.16,8.33 1.81,12.17 2.33,4.19 5.4,7.91 8.33,11.69 1.41,2 2.13,4.96 0.9,7.21 -5.62,2.04 -12.07,1.36 -17.55,-0.86 -0.68,-4.89 -3.07,-9.25 -5.4,-13.52 -0.14,0.92 -0.44,2.76 -0.59,3.67 0,-1.14 0.02,-2.29 0.04,-3.42 -1.3,-0.61 -2.59,-1.2 -3.88,-1.78 -1.05,-1.21 -2.11,-2.4 -3.18,-3.58 0.02,1.92 0.09,3.87 0.17,5.8 0,-6.46 -5.37,-10.84 -6.63,-16.9 -0.83,-0.04 -2.5,-0.12 -3.33,-0.16 1.58,-0.59 3.3,-1.01 4.61,-2.14 -0.7,-6.57 -3.71,-12.92 -8.55,-17.45 -0.1,2.79 0.49,5.53 2.08,7.86 -0.3,2.29 -0.68,4.58 -1.27,6.82 0.07,-4.86 -1.13,-9.58 -1.6,-14.38 -0.11,-1.99 -1.58,-3.44 -2.61,-5 0.16,1.89 0.35,3.77 0.55,5.66 -0.43,-0.04 -1.29,-0.13 -1.72,-0.18 -0.31,3.37 -0.56,6.74 -0.8,10.12 -1.33,-6.74 -0.79,-13.72 -2.58,-20.4 -0.56,1.53 -1.1,3.08 -1.61,4.64 -1.31,-1.92 -2.78,-3.76 -4.89,-4.83 0.12,-0.33 0.35,-0.98 0.47,-1.31 -1.42,-0.19 -2.84,-0.37 -4.26,-0.55 3.19,-0.74 1.84,-3.85 2.12,-5.97 0.45,-0.3 1.36,-0.88 1.81,-1.18 -1.35,-0.42 -2.67,-0.82 -4,-1.24 0.91,0 2.75,0 3.66,0 -0.4,-2.87 1.54,-7.12 -1.71,-8.86 -0.06,-0.67 -0.18,-2.01 -0.24,-2.68 -0.37,0.15 -1.13,0.46 -1.5,0.62 -0.14,-2.57 -0.56,-5.09 -1.17,-7.57 -0.69,0.19 -1.37,0.39 -2.05,0.59 -0.67,-2.19 -1.58,-4.29 -2.98,-6.11 0.78,-1 1.56,-1.98 2.36,-2.96 -1.05,-3.12 -2.82,-5.95 -5.82,-7.51 -4.06,5.06 -7.34,10.69 -10.3,16.46 -1.04,2.15 -2.23,4.62 -1.28,7.03 1.44,3.95 2.44,8.04 3.17,12.18 -0.49,-0.68 -1.49,-2.05 -1.99,-2.74 -1.19,2.37 -2.93,4.84 -1.97,7.64 1.34,5.01 0.41,10.12 -0.81,15.06 -1.17,-4.99 -1.75,-10.07 -1.46,-15.19 -0.44,-0.08 -1.31,-0.25 -1.74,-0.34 -0.1,-0.89 -0.28,-2.69 -0.38,-3.59 -1.85,5.22 -0.23,10.63 -0.72,15.97 -1.16,-2.24 -1.37,-4.77 -1.76,-7.21 -0.64,5.44 -1.36,10.93 -0.58,16.39 0.73,5.29 -0.89,10.56 -3.59,15.07 1.13,1.9 2.28,3.78 3.43,5.67 -0.73,1.4 -1.56,2.77 -2.02,4.3 0.35,5.22 2.46,10.39 1.4,15.67 -2.43,3.27 -6.93,3.05 -10.53,3.87 -5.9,1.27 -11.95,0.71 -17.91,1.18 -6.54,0.34 -13.06,-0.8 -19.59,-0.34 -0.95,0.37 -3.99,1.01 -3.09,-0.95 1.92,-0.73 4.05,-0.06 6.06,-0.1 0.19,-1.69 -0.94,-4.02 0.83,-5.15 2.35,-1.74 5.28,-2.35 8.02,-3.19 0.51,-0.52 1.03,-1.04 1.55,-1.54 5.62,-1.59 9.62,-6.27 14.15,-9.69 0.53,-1.45 1.08,-2.89 1.66,-4.32 -5.25,-5.04 -3.7,-14.25 0.87,-19.29 -0.98,-7.6 -3.24,-15.02 -2.56,-22.8 -0.37,2.03 -1.11,6.1 -1.48,8.13 0.14,-2.64 0.2,-5.3 0.15,-7.94 -0.51,0.32 -1.51,0.97 -2.01,1.29 -1.38,4.31 -1.96,8.84 -2.63,13.31 -0.02,-3.48 -2.36,-7.32 -0.16,-10.56 1.64,-3.22 3.18,-8.53 -0.41,-10.94 -0.47,-3.06 -0.71,-6.16 -0.57,-9.25 -1.67,0.44 -3.34,0.88 -5.02,1.27 2.87,-1.58 6.06,-2.42 9.31,-2.74 2.36,-2.63 4.81,-5.24 6.63,-8.29 1.1,-3.14 0.96,-6.58 1.82,-9.79 3.84,-4.13 8.3,-8.74 8.37,-14.76 0.08,-6.39 0.84,-12.76 0.67,-19.15 1.52,7.71 3.93,15.21 6.02,22.78 1.43,4.51 2.33,9.62 6.16,12.81 6.1,-4.11 11.25,-10.8 11.06,-18.46 0.3,-15.01 0,-30.03 0.17,-45.04 -0.05,-3.94 0.92,-7.76 1.51,-11.62 -6.67,3.12 -11.92,9.96 -12.13,17.48 -0.26,5.72 -0.17,11.45 -0.45,17.18 -1.99,-8.41 -4.19,-16.78 -7.06,-24.94 0.28,-5.06 1.01,-10.09 1.02,-15.17 -0.06,-3.49 2.18,-6.34 3.79,-9.25 -1.41,-2.33 -2.86,-4.63 -4.32,-6.93 2.11,-1.77 4.26,-3.49 6.36,-5.29 -0.6,-0.73 -1.78,-2.2 -2.37,-2.94 4.03,-4.3 8.73,-7.86 13.5,-11.29 -2.54,-3.04 -6.78,-5.93 -5.7,-10.48 -4.13,2.3 -5.53,-3.08 -6.94,-5.77 -0.77,-1.03 -1.54,-2.05 -2.29,-3.07 -0.76,0.99 -2.28,2.97 -3.03,3.95 0.45,-1.4 1.36,-4.2 1.82,-5.61 -0.59,0.08 -1.75,0.22 -2.33,0.3 0.12,-1.02 0.36,-3.07 0.48,-4.09 -0.38,0.09 -1.13,0.28 -1.5,0.37 0.09,-2.15 0.15,-4.29 0.41,-6.41 3.82,-2.06 4.07,-6.4 3.67,-10.23 0.4,0.09 1.18,0.27 1.57,0.36 0.58,-3.54 3.11,-5.64 6.43,-6.82 -0.74,1.31 -2.23,3.94 -2.97,5.25 1.18,-0.79 2.33,-1.63 3.48,-2.46 2.92,-0.01 5.84,-0.27 8.7,-0.94 m 2.74,100.44 c 3.43,3.22 8.83,1.37 13.1,1.88 -1.46,3.81 -1.75,7.92 -1.95,11.96 -0.38,13.01 0.26,26.04 -0.15,39.05 -0.01,2.87 -0.96,5.6 -1.2,8.45 7.16,-2.87 12.18,-10.72 12.13,-18.41 0.62,-13.8 0.06,-27.61 0.33,-41.41 1.34,0.6 2.66,1.22 3.98,1.89 4.95,-2.92 9.14,-7.96 9.78,-13.82 -5.34,-1.49 -10.93,-1.22 -16.42,-1.2 -3.39,-0.07 -7.01,0.52 -10.04,-1.38 -4.41,3.14 -8.46,7.55 -9.56,12.99 m 39.55,40.55 c -0.38,2.21 -2.47,6.32 -0.54,7.93 1.26,-2.42 0.59,-5.32 0.54,-7.93 m -60.33,55.71 c -1.59,0.52 -1.7,3.62 0,4.07 1.45,-0.58 1.57,-3.59 0,-4.07 m 67.7,13.16 c -0.95,1.14 0.41,3.63 1.91,3.13 0.93,-1.15 -0.36,-3.72 -1.91,-3.13 z"
       id="path1174" />
    <path
       fill="#000000"
       opacity="1"
       d="m 400.18,340.6 c 2.43,4.69 2.58,10.8 -0.25,15.36 -0.56,-1.98 -1.07,-4.03 -0.8,-6.09 0.73,-3.04 0.83,-6.17 1.05,-9.27 z"
       id="path1176" />
    <path
       fill="#000000"
       opacity="1"
       d="m 403.29,342.66 c 1.54,2.26 2.43,4.85 3.33,7.41 -0.66,0.05 -1.97,0.17 -2.62,0.23 -0.19,-2.55 -0.4,-5.1 -0.71,-7.64 z"
       id="path1178" />
  </g>
  <g
     id="#ffffffff"
     transform="translate(-48,-197.76)">
    <path
       fill="#ffffff"
       opacity="1"
       d="m 52.68,294.63 c 2.04,-2.8 4.22,-5.88 7.51,-7.28 5.74,-0.47 12.41,0.5 16.36,5.14 3.55,4.22 4.1,10.11 3.73,15.41 -0.45,7.33 -4.19,14 -8.83,19.53 6.55,5.42 5.45,15.43 11.77,20.96 -1.05,4.54 -4.09,8.36 -7.59,11.31 -1.17,1.12 -3.38,1.77 -4.47,0.19 -4.67,-6.15 -4.28,-15.32 -10.99,-20.08 -0.32,3.86 0.12,8.03 -1.97,11.49 -2.46,4.11 -5.48,8.46 -10.2,10.13 0.33,-2.82 1.11,-5.58 1.18,-8.43 0.22,-14.3 0.09,-28.61 0.16,-42.92 0.2,-5.25 0.06,-11.03 3.34,-15.45 m 7.77,31.49 c 1.98,-0.53 4,-0.97 5.89,-1.79 3.8,-1.24 2.82,-6.14 2.99,-9.26 0.2,-5.95 -3.45,-11.31 -8.82,-13.71 -0.77,8.23 -0.69,16.52 -0.06,24.76 z"
       id="path1181" />
    <path
       fill="#ffffff"
       opacity="1"
       d="m 89.64,298.49 c 1.88,-4.74 5.35,-8.94 9.73,-11.58 6.47,3 14.02,-0.14 20.7,2.47 -0.32,5.66 -4.43,10.73 -9.15,13.5 -3.74,-1.05 -7.61,-1.48 -11.49,-1.3 -0.09,5.04 -0.09,10.08 0,15.12 4.15,0.14 8.38,-0.42 12.47,0.46 1.51,0.92 0.48,2.54 0.02,3.76 -1.9,4.07 -5.02,7.5 -8.72,10.01 -1.24,-0.44 -2.49,-0.87 -3.73,-1.28 -0.21,5.88 -0.58,11.75 -0.9,17.63 3.49,0.28 7,0.33 10.5,0.14 3.03,0.05 5.45,-2.05 8.2,-3.01 -0.62,6.73 -5.96,12.14 -11.68,15.15 -5.82,2.05 -12.49,1.98 -18.35,0.17 1.93,-12.8 0.7,-25.8 1.12,-38.69 0.36,-7.52 -0.54,-15.18 1.28,-22.55 z"
       id="path1183" />
    <path
       fill="#ffffff"
       opacity="1"
       d="m 123.12,298.97 c 1.4,-5.33 5.62,-9.46 10.06,-12.51 2.74,3.64 3.32,8.26 4.17,12.6 1.89,10.86 3.99,21.69 5.7,32.58 1.39,-9.5 2.85,-19.03 5.4,-28.3 2.07,-6.87 6.12,-13.88 12.95,-16.87 0.17,3.72 -2.28,6.8 -2.98,10.35 -3.76,15.28 -5.01,31.04 -8.27,46.43 -1.37,6.98 -5.42,13.7 -11.58,17.42 -2.64,1.34 -3.53,-2.28 -3.95,-4.12 -3.38,-16.5 -5.69,-33.22 -9.09,-49.72 -0.53,-2.7 -1.63,-5.23 -2.41,-7.86 z"
       id="path1185" />
    <path
       fill="#ffffff"
       opacity="1"
       d="m 167.65,298.46 c 1.88,-4.73 5.35,-8.9 9.71,-11.55 6.49,3 14.04,-0.15 20.73,2.48 -0.37,5.65 -4.43,10.74 -9.18,13.49 -3.75,-1.06 -7.63,-1.51 -11.53,-1.24 -0.01,5.02 -0.05,10.05 0.05,15.07 3.85,0.07 7.73,-0.27 11.56,0.24 1.38,-0.18 2.14,1.58 1.47,2.63 -1.74,4.67 -5.18,8.57 -9.26,11.35 -1.25,-0.44 -2.49,-0.87 -3.73,-1.28 -0.21,5.88 -0.57,11.75 -0.9,17.63 3.45,0.28 6.91,0.33 10.37,0.15 3.08,0.08 5.54,-2.03 8.33,-3.02 -0.62,6.72 -5.96,12.12 -11.66,15.14 -5.82,2.06 -12.49,1.98 -18.36,0.2 1.91,-12.8 0.7,-25.8 1.11,-38.69 0.36,-7.53 -0.55,-15.21 1.29,-22.6 z"
       id="path1187" />
    <path
       fill="#ffffff"
       opacity="1"
       d="m 204.6,298.47 c 1.94,-5.03 5.78,-9.23 10.4,-11.95 3.43,3.63 4.53,8.63 6.08,13.22 2.13,7.03 4.23,14.08 5.67,21.3 0.97,-7.81 -0.66,-15.98 1.91,-23.54 2.31,-4.61 5.85,-9.07 10.79,-10.98 -0.61,3.82 -1.54,7.61 -1.5,11.5 -0.13,13.68 0.03,27.36 -0.08,41.03 -0.13,3.57 0.15,7.3 -1.23,10.69 -2,4.81 -5.54,8.86 -9.86,11.75 -3.64,-2.74 -4.53,-7.41 -5.85,-11.5 -2.32,-8.13 -4.75,-16.24 -6.56,-24.5 0.17,6.53 -0.29,13.04 -0.5,19.56 0.01,4.9 -3.13,9.01 -6.22,12.51 -1.48,1.8 -3.48,3.02 -5.65,3.84 0.32,-2.84 1.1,-5.62 1.18,-8.48 0.19,-13.66 0.13,-27.31 0.14,-40.97 0.08,-4.51 0.02,-9.1 1.28,-13.48 z"
       id="path1189" />
    <path
       fill="#ffffff"
       opacity="1"
       d="m 260.87,289.87 c 1.53,-1.41 3.5,-3.47 5.79,-2.44 2.49,4.36 2.73,9.61 3.84,14.43 2.25,12.88 4.48,25.78 6.85,38.64 0.47,2.95 1.65,5.71 2.52,8.55 -1.38,4.81 -4.91,8.98 -9.07,11.7 -1.19,1.05 -2.25,-0.94 -2.65,-1.84 -2.33,-6.35 -3.01,-13.16 -4.09,-19.81 -2.52,2.86 -5.87,4.77 -9.66,5.28 -1.6,7.11 -6.02,14.23 -12.95,17.11 0.41,-3.94 2.47,-7.45 3.07,-11.35 2.71,-15.02 5.06,-30.12 8.24,-45.05 1.05,-5.77 3.77,-11.23 8.11,-15.22 m -1.02,24.43 c -0.82,5.32 -1.82,10.61 -2.59,15.94 1.75,0.19 3.5,0.36 5.26,0.52 -0.78,-5.51 -2.11,-10.92 -2.67,-16.46 z"
       id="path1191" />
    <path
       fill="#ffffff"
       opacity="1"
       d="m 286.59,298.51 c 1.93,-5.04 5.77,-9.27 10.42,-11.99 2.66,2.61 3.57,6.24 4.81,9.61 2.87,8.16 5.07,16.53 7.06,24.94 0.28,-5.73 0.19,-11.46 0.45,-17.18 0.21,-7.52 5.46,-14.36 12.13,-17.48 -0.59,3.86 -1.56,7.68 -1.51,11.62 -0.17,15.01 0.13,30.03 -0.17,45.04 0.19,7.66 -4.96,14.35 -11.06,18.46 -3.83,-3.19 -4.73,-8.3 -6.16,-12.81 -2.09,-7.57 -4.5,-15.07 -6.02,-22.78 0.17,6.39 -0.59,12.76 -0.67,19.15 -0.07,6.02 -4.53,10.63 -8.37,14.76 -0.89,0.37 -2.66,1.12 -3.55,1.49 0.38,-2.8 1.17,-5.53 1.23,-8.36 0.18,-13.33 0.14,-26.66 0.14,-39.99 0.07,-4.84 -0.06,-9.78 1.27,-14.48 z"
       id="path1193" />
    <path
       fill="#ffffff"
       opacity="1"
       d="m 399.56,287.61 c 3.37,-0.99 7.03,-0.12 10.38,0.66 5.74,1.49 9.63,7.03 10.13,12.79 1.64,9.6 -2.37,19.22 -8.62,26.37 6.55,5.41 5.44,15.43 11.77,20.96 -1.05,4.54 -4.09,8.36 -7.59,11.31 -1.19,1.13 -3.4,1.77 -4.49,0.16 -2.24,-2.86 -3.19,-6.47 -4.52,-9.79 -0.9,-2.56 -1.79,-5.15 -3.33,-7.41 -0.96,-1 -2.03,-1.88 -3.06,-2.79 -0.02,0.18 -0.04,0.55 -0.05,0.73 -0.22,3.1 -0.32,6.23 -1.05,9.27 -2.8,4.53 -5.83,9.68 -11.13,11.56 0.82,-4.56 1.5,-9.15 1.16,-13.79 0,-2.47 0.05,-4.94 0.03,-7.4 0.05,-0.45 0.15,-1.35 0.2,-1.81 -0.18,-4.86 0.01,-9.72 -0.12,-14.58 0.34,-8.45 -0.75,-17.11 1.39,-25.38 1.86,-4.31 4.87,-8.38 8.9,-10.86 m 0.94,13.78 c -0.76,8.22 -0.69,16.5 -0.05,24.73 2,-0.54 4.03,-0.98 5.94,-1.81 3.77,-1.27 2.75,-6.18 2.93,-9.28 0.2,-5.94 -3.45,-11.29 -8.82,-13.64 z"
       id="path1195" />
    <path
       fill="#ffffff"
       opacity="1"
       d="m 429.63,298.53 c 1.87,-4.76 5.35,-8.98 9.75,-11.61 6.46,2.99 13.99,-0.15 20.67,2.44 -0.27,5.67 -4.41,10.78 -9.16,13.51 -3.73,-1.04 -7.59,-1.47 -11.46,-1.29 -0.09,5.04 -0.09,10.08 0,15.13 3.85,0.07 7.73,-0.27 11.57,0.24 1.34,-0.15 2.14,1.53 1.47,2.58 -1.72,4.7 -5.18,8.61 -9.27,11.4 -1.25,-0.44 -2.49,-0.87 -3.74,-1.28 -0.2,5.88 -0.56,11.75 -0.89,17.63 4.11,0.29 8.27,0.43 12.38,-0.06 2.21,-0.68 4.16,-1.99 6.32,-2.81 -0.62,6.71 -5.94,12.11 -11.64,15.13 -5.82,2.07 -12.52,2.02 -18.4,0.18 1.95,-12.77 0.71,-25.75 1.13,-38.61 0.36,-7.52 -0.54,-15.2 1.27,-22.58 z"
       id="path1197" />
    <path
       fill="#ffffff"
       opacity="1"
       d="m 468.68,294.62 c 2.03,-2.8 4.22,-5.84 7.48,-7.26 4.2,-0.44 8.64,0.16 12.47,2 4.72,2.36 7.2,7.6 7.58,12.68 1.69,14.31 -7.92,27.79 -19.85,34.73 -0.74,5.05 0.46,10.63 -2.49,15.13 -2.45,3.86 -5.34,7.97 -9.86,9.51 0.3,-2.81 1.08,-5.55 1.17,-8.38 0.27,-14.57 0.03,-29.15 0.19,-43.72 0.19,-5.01 0.17,-10.5 3.31,-14.69 m 7.83,6.76 c -0.78,8.22 -0.69,16.51 -0.06,24.73 1.98,-0.52 4,-0.97 5.9,-1.77 3.84,-1.21 2.78,-6.24 2.98,-9.35 0.2,-5.93 -3.47,-11.26 -8.82,-13.61 z"
       id="path1199" />
    <path
       fill="#ffffff"
       opacity="1"
       d="m 549.4,287.39 c 4.35,-0.5 9.03,0.14 12.96,2.18 5.42,3.02 7.51,9.57 7.36,15.45 0.3,8.34 -3.64,16.21 -8.94,22.42 6.48,5.66 5.83,15.47 11.84,21.51 -1.72,4.66 -4.81,9.06 -9.1,11.68 -2.04,0.9 -3.5,-1.07 -4.31,-2.66 -3.31,-5.99 -3.71,-13.75 -9.57,-18.11 -0.2,4.4 -0.29,9.13 -2.94,12.87 -2.43,3.52 -5.14,7.44 -9.51,8.61 0.29,-1.82 0.72,-3.61 1.02,-5.42 1.07,-18.29 -0.45,-36.69 1.15,-54.96 1.2,-5.59 5.07,-10.78 10.04,-13.57 m 0.35,13.97 c -0.33,8.26 -0.27,16.53 -0.03,24.79 2.79,-0.82 5.89,-1.26 8.19,-3.18 1.07,-4.88 1.2,-10.25 -0.82,-14.89 -1.35,-3.23 -4.46,-5.06 -7.34,-6.72 z"
       id="path1201" />
    <path
       fill="#ffffff"
       opacity="1"
       d="m 575.32,300.06 c 1.11,-5.44 5.15,-9.8 9.52,-12.97 6.67,2.81 14.13,0.51 21.13,1.56 2.02,0.32 6.09,-0.06 5.02,3.22 -1.4,4.89 -5.09,9.01 -9.41,11.61 -1.33,-0.65 -2.66,-1.28 -3.98,-1.89 -0.26,13.77 0.28,27.56 -0.33,41.33 0.04,7.69 -4.92,15.67 -12.18,18.41 0.39,-2.8 1.15,-5.55 1.25,-8.38 0.41,-12.66 -0.2,-25.32 0.12,-37.98 0.1,-4.4 0.51,-8.85 1.92,-13.04 -4.26,-0.47 -9.59,1.29 -13.06,-1.87 z"
       id="path1203" />
    <path
       fill="#ffffff"
       opacity="1"
       d="m 324.34,300.05 c 1.1,-5.44 5.15,-9.85 9.56,-12.99 3.03,1.9 6.65,1.31 10.04,1.38 5.49,-0.02 11.08,-0.29 16.42,1.2 -0.64,5.86 -4.83,10.9 -9.78,13.82 -1.32,-0.67 -2.64,-1.29 -3.98,-1.89 -0.27,13.8 0.29,27.61 -0.33,41.41 0.05,7.69 -4.97,15.54 -12.13,18.41 0.24,-2.85 1.19,-5.58 1.2,-8.45 0.41,-13.01 -0.23,-26.04 0.15,-39.05 0.2,-4.04 0.49,-8.15 1.95,-11.96 -4.27,-0.51 -9.67,1.34 -13.1,-1.88 z"
       id="path1205" />
    <path
       fill="#ffffff"
       opacity="1"
       d="m 515.34,288.16 c 2.44,-1.65 5.58,-0.48 8.06,0.51 5.62,3.17 7.78,9.86 8.93,15.83 1.52,9.8 1.05,19.84 -0.51,29.61 -1.45,9.09 -6.01,17.72 -13.07,23.69 -2.77,2.26 -6.66,4.19 -10.21,2.6 -3.82,-2 -5.36,-6.42 -6.63,-10.26 -2.45,-8.81 -2.85,-18.07 -2.5,-27.17 0.56,-9.01 1.96,-18.57 7.78,-25.84 2.59,-3.08 4.71,-6.73 8.15,-8.97 m -3.6,12.7 c -1.98,9.85 -1.57,20.03 -0.52,29.97 1.12,6.37 2.42,14.22 8.96,17.27 2.24,-9.17 2.55,-18.73 1.77,-28.11 -0.79,-7.32 -3.04,-15.61 -10.21,-19.13 z"
       id="path1207" />
  </g>
</svg>
