<?xml version="1.0" encoding="UTF-8" standalone="no"?>
<!-- Created with Inkscape (http://www.inkscape.org/) -->

<svg
   xmlns:dc="http://purl.org/dc/elements/1.1/"
   xmlns:cc="http://creativecommons.org/ns#"
   xmlns:rdf="http://www.w3.org/1999/02/22-rdf-syntax-ns#"
   xmlns:svg="http://www.w3.org/2000/svg"
   xmlns="http://www.w3.org/2000/svg"
   xmlns:sodipodi="http://sodipodi.sourceforge.net/DTD/sodipodi-0.dtd"
   xmlns:inkscape="http://www.inkscape.org/namespaces/inkscape"
   width="129"
   height="60"
   viewBox="0 0 34.131248 15.875"
   version="1.1"
   id="svg8"
   inkscape:version="0.92.1 r15371"
   sodipodi:docname="gnn_logo.svg"
   inkscape:export-filename="C:\Users\jedli\Dropbox\megagames\webassets\nnn_ticker.png"
   inkscape:export-xdpi="96"
   inkscape:export-ydpi="96">
  <defs
     id="defs2" />
  <sodipodi:namedview
     id="base"
     pagecolor="#ffffff"
     bordercolor="#666666"
     borderopacity="1.0"
     inkscape:pageopacity="0.0"
     inkscape:pageshadow="2"
     inkscape:zoom="5.6568542"
     inkscape:cx="59.357737"
     inkscape:cy="27.940383"
     inkscape:document-units="px"
     inkscape:current-layer="layer1"
     showgrid="false"
     units="px"
     inkscape:window-width="1920"
     inkscape:window-height="1137"
     inkscape:window-x="-8"
     inkscape:window-y="-8"
     inkscape:window-maximized="1">
    <inkscape:grid
       type="xygrid"
       id="grid4497" />
  </sodipodi:namedview>
  <metadata
     id="metadata5">
    <rdf:RDF>
      <cc:Work
         rdf:about="">
        <dc:format>image/svg+xml</dc:format>
        <dc:type
           rdf:resource="http://purl.org/dc/dcmitype/StillImage" />
        <dc:title></dc:title>
      </cc:Work>
    </rdf:RDF>
  </metadata>
  <g
     inkscape:label="Layer 1"
     inkscape:groupmode="layer"
     id="layer1"
     transform="translate(0,-281.12498)">
    <path
       style="opacity:1;fill:#ffffff;fill-opacity:1;stroke:none;stroke-width:0.06801659;stroke-linecap:butt;stroke-linejoin:round;stroke-miterlimit:4;stroke-dasharray:none;stroke-opacity:1"
       d="m 14.157283,281.12498 c -0.632646,0.006 -1.223065,0.2394 -1.701522,0.62795 -0.421705,0.3426 -0.745871,0.80981 -0.920079,1.37272 -0.08976,0.2898 -0.151279,0.59699 -0.151279,0.93089 v 4.64838 0.22679 l 0.233169,0.054 1.704668,0.366 v -5.23529 c 0,-0.50939 0.317132,-0.93683 0.790891,-1.06655 0.405057,-0.1104 0.975551,10e-4 1.358072,0.65321 0.02013,0.03 1.672268,2.88855 3.270699,5.64863 1.403826,2.42349 2.731052,4.71018 2.75394,4.74929 0.167442,0.285 0.401341,0.4206 0.627044,0.3594 0.145245,-0.042 0.315114,-0.1812 0.315114,-0.44519 v -9.90251 c 0,-0.51059 0.319079,-0.93791 0.790894,-1.06661 0.402678,-0.1092 0.966524,0.004 1.348611,0.65321 0.01953,0.03 1.472648,2.53827 3.009172,5.19113 1.470221,2.53863 2.98928,5.16498 3.015475,5.20991 0.167502,0.285 0.401336,0.4176 0.627037,0.3564 0.145491,-0.042 0.31512,-0.1782 0.31512,-0.44219 v -12.82777 h -1.944144 v 7.6367 c 0,0 -3.16326,-5.45537 -3.308514,-5.70233 -2.007229,-3.41461 -5.800926,-2.00199 -5.800926,0.93725 v 4.76508 c 0,0 -3.160175,-5.45537 -3.305362,-5.70233 -0.455907,-0.77543 -1.007006,-1.28038 -1.581786,-1.5967 -0.0098,-0.006 -0.01893,-0.006 -0.02804,-0.012 -0.21658,-0.11699 -0.435909,-0.21059 -0.655401,-0.27419 -9.98e-4,-3e-4 -0.0019,1.8e-4 -0.0032,0 -0.229999,-0.0666 -0.459627,-0.1038 -0.686909,-0.1074 -0.02379,-4.8e-4 -0.04877,-4.8e-4 -0.07244,0 z m -6.292474,0.054 v 0.012 C 3.5212624,281.19008 -5.9999923e-6,284.71335 0,289.06347 c 0,4.34988 3.5213426,7.87652 7.864809,7.87652 h 4.956464 c 1.884212,9e-4 3.096689,-1.10351 3.094246,-3.14294 v -4.4937 c 0,0 3.163445,5.45543 3.308516,5.70226 2.007238,3.41468 5.800923,2.00536 5.800923,-0.934 v -4.76826 c 0,0 3.16031,5.45543 3.305364,5.70226 2.007452,3.41468 5.800927,2.00536 5.800927,-0.934 V 281.1902 h -1.937847 v 12.82465 c 0,0.50939 -0.3203,0.93688 -0.794042,1.0666 -0.08671,0.024 -0.179023,0.03 -0.277257,0.03 -0.360848,0 -0.77719,-0.1794 -1.077627,-0.69107 -0.01588,-0.03 -1.205554,-2.07993 -3.018622,-5.21003 -1.464659,-2.52885 -2.979964,-5.14643 -3.006025,-5.19107 -0.16701,-0.2838 -0.397866,-0.41759 -0.620737,-0.35699 -0.189386,0.054 -0.31195,0.22799 -0.31195,0.44519 v 9.89933 c 0,0.50939 -0.320301,0.93682 -0.794044,1.0666 -0.405056,0.1104 -0.972486,-0.001 -1.354912,-0.65321 -0.01707,-0.03 -1.285063,-2.21967 -2.75394,-4.75566 -1.519998,-2.62412 -3.243,-5.59822 -3.27071,-5.6455 -0.167495,-0.285 -0.401215,-0.41759 -0.62704,-0.35639 -0.145352,0.042 -0.315119,0.17879 -0.315119,0.44159 v 9.68477 c 0,0.63785 -0.559994,1.19602 -1.197365,1.19602 H 7.864815 c -3.2656559,0 -5.9238195,-2.65922 -5.9238195,-5.92948 0,-3.27079 2.6581636,-5.93242 5.9238195,-5.93272 h 3.006018 c 0.206826,-0.80579 0.66909,-1.47928 1.285588,-1.94391 z m 0,2.6003 c -2.9085998,-0.004 -5.2747183,2.36955 -5.2747183,5.28257 0,2.91296 2.3660568,5.28257 5.2747183,5.28257 h 4.909198 c 0.309266,0 0.548288,-0.29339 0.548288,-0.54599 v -1.72618 -2.05749 l -1.840163,-0.39419 -0.368655,-0.0756 -3.346328,-0.69749 c 2.917728,2.02329 4.121103,3.55963 2.810663,3.55963 H 7.883741 c -1.8407462,0 -3.3305691,-1.49506 -3.3305691,-3.33872 0,-1.84335 1.4898229,-3.33865 3.3305691,-3.33865 h 2.857926 v -1.67566 c 0,-0.0924 0.01588,-0.1782 0.02193,-0.2682 z"
       id="rect5273-1-6-1-6-0-1-4-4-1-8"
       inkscape:connector-curvature="0" />
  </g>
</svg>
