<?xml version="1.0" encoding="UTF-8" standalone="no"?>
<!-- Created with Inkscape (http://www.inkscape.org/) -->

<svg
   xmlns:dc="http://purl.org/dc/elements/1.1/"
   xmlns:cc="http://creativecommons.org/ns#"
   xmlns:rdf="http://www.w3.org/1999/02/22-rdf-syntax-ns#"
   xmlns:svg="http://www.w3.org/2000/svg"
   xmlns="http://www.w3.org/2000/svg"
   xmlns:sodipodi="http://sodipodi.sourceforge.net/DTD/sodipodi-0.dtd"
   xmlns:inkscape="http://www.inkscape.org/namespaces/inkscape"
   width="32"
   height="32"
   viewBox="0 0 8.4666663 8.4666667"
   version="1.1"
   id="svg8"
   inkscape:version="0.92.1 r15371"
   sodipodi:docname="npc_favicon.svg"
   inkscape:export-filename="C:\Users\jedli\Dropbox\megagames\webassets\npc_favicon.png"
   inkscape:export-xdpi="96"
   inkscape:export-ydpi="96">
  <defs
     id="defs2" />
  <sodipodi:namedview
     id="base"
     pagecolor="#ffffff"
     bordercolor="#666666"
     borderopacity="1.0"
     inkscape:pageopacity="0.0"
     inkscape:pageshadow="2"
     inkscape:zoom="5.6568542"
     inkscape:cx="23.256172"
     inkscape:cy="-0.64724881"
     inkscape:document-units="px"
     inkscape:current-layer="layer1"
     showgrid="false"
     units="px"
     inkscape:window-width="1920"
     inkscape:window-height="1137"
     inkscape:window-x="-8"
     inkscape:window-y="-8"
     inkscape:window-maximized="1">
    <inkscape:grid
       type="xygrid"
       id="grid4497" />
  </sodipodi:namedview>
  <metadata
     id="metadata5">
    <rdf:RDF>
      <cc:Work
         rdf:about="">
        <dc:format>image/svg+xml</dc:format>
        <dc:type
           rdf:resource="http://purl.org/dc/dcmitype/StillImage" />
        <dc:title></dc:title>
      </cc:Work>
    </rdf:RDF>
  </metadata>
  <g
     inkscape:label="Layer 1"
     inkscape:groupmode="layer"
     id="layer1"
     transform="translate(0,-288.53331)">
    <path
       inkscape:connector-curvature="0"
       style="fill:#f15c22;stroke-width:0.19598764"
       d="M 3.4189815e-8,291.35553 H 2.8222221 v 2.82222 H 3.4189815e-8 Z"
       id="rect8-1" />
    <path
       inkscape:connector-curvature="0"
       style="fill:#000017;stroke-width:0.19598766"
       d="m 2.8222221,291.35553 h 2.8222222 v 2.82222 H 2.8222221 Z"
       id="rect10-7" />
    <path
       inkscape:connector-curvature="0"
       style="fill:#4e84c4;stroke-width:0.19598761"
       d="m 5.6444443,291.35553 h 2.8222222 v 2.82222 H 5.6444443 Z"
       id="rect12-8" />
    <path
       style="font-style:normal;font-variant:normal;font-weight:bold;font-stretch:normal;font-size:medium;line-height:1.25;font-family:'Trebuchet MS';-inkscape-font-specification:'Trebuchet MS Bold';letter-spacing:0px;word-spacing:0px;fill:#ffffff;fill-opacity:1;stroke:#ffffff;stroke-width:0.26136315;stroke-opacity:1"
       d="M 5.6640625 13.166016 C 4.9860475 13.166016 4.4725256 13.369432 4.125 13.777344 L 3.890625 13.267578 L 2.9707031 13.267578 L 2.9707031 18.728516 L 4.2480469 18.728516 L 4.2480469 14.783203 C 4.3672963 14.627033 4.5329003 14.4962 4.7441406 14.390625 C 4.9587886 14.285302 5.1583116 14.232422 5.3457031 14.232422 C 5.7511497 14.232422 6.043534 14.338561 6.2207031 14.552734 C 6.4012814 14.766882 6.4902344 15.106552 6.4902344 15.572266 L 6.4902344 18.728516 L 7.7695312 18.728516 L 7.7695312 15.378906 C 7.7695312 14.682062 7.5793615 14.139455 7.2011719 13.751953 C 6.8263896 13.361049 6.3148211 13.166016 5.6640625 13.166016 z M 16.044922 13.166016 C 15.578147 13.166016 15.185504 13.322199 14.865234 13.634766 L 14.865234 13.267578 L 13.587891 13.267578 L 13.587891 20.666016 L 14.865234 20.666016 L 14.865234 18.591797 C 15.195724 18.751671 15.560851 18.832031 15.962891 18.832031 C 16.797633 18.832031 17.455145 18.590105 17.935547 18.107422 C 18.419357 17.624738 18.662109 16.936978 18.662109 16.042969 C 18.662109 14.125803 17.789364 13.166016 16.044922 13.166016 z M 27.080078 13.166016 C 26.156751 13.166016 25.427494 13.432598 24.892578 13.962891 C 24.357661 14.493158 24.089844 15.186881 24.089844 16.046875 C 24.089844 16.9205 24.333095 17.604781 24.820312 18.097656 C 25.310937 18.58713 25.979255 18.832031 26.824219 18.832031 C 27.202408 18.832031 27.530665 18.801463 27.806641 18.740234 C 28.086025 18.678956 28.409876 18.531836 28.78125 18.300781 L 28.3125 17.296875 C 27.951345 17.609618 27.534136 17.765625 27.060547 17.765625 C 25.966865 17.765625 25.419922 17.192425 25.419922 16.046875 C 25.419922 15.479215 25.558508 15.036343 25.837891 14.716797 C 26.12068 14.393874 26.504471 14.232422 26.988281 14.232422 C 27.492534 14.232422 27.893534 14.372143 28.193359 14.654297 L 28.740234 13.701172 C 28.270053 13.344233 27.717208 13.166016 27.080078 13.166016 z M 15.681641 14.248047 C 16.271071 14.248047 16.693685 14.379586 16.949219 14.644531 C 17.204749 14.906264 17.333984 15.360014 17.333984 16.005859 C 17.333984 16.610924 17.204252 17.055938 16.945312 17.337891 C 16.689779 17.616517 16.267165 17.755859 15.677734 17.755859 C 15.367687 17.755859 15.096919 17.661696 14.865234 17.474609 L 14.865234 14.603516 C 15.103732 14.365783 15.375 14.248047 15.681641 14.248047 z "
       transform="matrix(0.26458333,0,0,0.26458333,0,288.53331)"
       id="path4505-5" />
  </g>
</svg>
