<?xml version="1.0" encoding="UTF-8" standalone="no"?>
<svg
   xmlns:dc="http://purl.org/dc/elements/1.1/"
   xmlns:cc="http://creativecommons.org/ns#"
   xmlns:rdf="http://www.w3.org/1999/02/22-rdf-syntax-ns#"
   xmlns:svg="http://www.w3.org/2000/svg"
   xmlns="http://www.w3.org/2000/svg"
   xmlns:sodipodi="http://sodipodi.sourceforge.net/DTD/sodipodi-0.dtd"
   xmlns:inkscape="http://www.inkscape.org/namespaces/inkscape"
   viewBox="0 0 90.000003 30.000001"
   version="1.1"
   id="svg20"
   sodipodi:docname="npc_logo.svg"
   inkscape:version="0.92.1 r15371"
   width="90"
   height="30">
  <metadata
     id="metadata24">
    <rdf:RDF>
      <cc:Work
         rdf:about="">
        <dc:format>image/svg+xml</dc:format>
        <dc:type
           rdf:resource="http://purl.org/dc/dcmitype/StillImage" />
        <dc:title>npr-logo</dc:title>
      </cc:Work>
    </rdf:RDF>
  </metadata>
  <sodipodi:namedview
     pagecolor="#ffffff"
     bordercolor="#666666"
     borderopacity="1"
     objecttolerance="10"
     gridtolerance="10"
     guidetolerance="10"
     inkscape:pageopacity="0"
     inkscape:pageshadow="2"
     inkscape:window-width="1920"
     inkscape:window-height="1137"
     id="namedview22"
     showgrid="false"
     showborder="true"
     inkscape:zoom="7.6566128"
     inkscape:cx="41.404246"
     inkscape:cy="7.1423206"
     inkscape:window-x="-8"
     inkscape:window-y="-8"
     inkscape:window-maximized="1"
     inkscape:current-layer="g4638"
     inkscape:pagecheckerboard="true" />
  <defs
     id="defs4">
    <style
       id="style2">.a{fill:#f15c22;}.b{fill:#000017;}.c{fill:#4e84c4;}.d{fill:#fff;}</style>
  </defs>
  <title
     id="title6">npr-logo</title>
  <g
     id="g4638"
     transform="translate(19.662425,-14.158484)">
    <path
       id="rect8-4"
       d="m -19.662425,14.158484 h 29.999999 v 30 h -29.999999 z"
       style="fill:#f15c22;stroke-width:2.08333325"
       inkscape:connector-curvature="0" />
    <path
       id="rect10-5"
       d="m 10.337574,14.158484 h 30.000001 v 30 H 10.337574 Z"
       style="fill:#111122;stroke-width:2.08333349;fill-opacity:1"
       inkscape:connector-curvature="0" />
    <path
       id="rect12-3"
       d="m 40.337575,14.158484 h 30 v 30 h -30 z"
       style="fill:#4e84c4;stroke-width:2.08333302"
       inkscape:connector-curvature="0" />
    <path
       d="m -1.4062421,36.83444 v -8.87675 q 0,-1.964674 -0.761811,-2.868132 -0.747431,-0.903383 -2.457911,-0.903383 -0.790557,0 -1.696103,0.444095 -0.891172,0.444888 -1.394254,1.104265 V 36.834062 H -11.309758 V 21.475385 h 2.5872759 l 0.661192,1.434104 q 1.466123,-1.720857 4.326499,-1.720857 2.74538697,0 4.32649997,1.649121 1.59548803,1.634797 1.59548803,4.574589 v 9.42172 z"
       style="font-style:normal;font-variant:normal;font-weight:bold;font-stretch:normal;font-size:medium;line-height:1.25;font-family:'Trebuchet MS';-inkscape-font-specification:'Trebuchet MS Bold';letter-spacing:0px;word-spacing:0px;fill:#ffffff;fill-opacity:1;stroke:none;stroke-width:0.73508388"
       id="path4505-6"
       inkscape:connector-curvature="0" />
    <path
       sodipodi:nodetypes="ccccccsscscccscscsc"
       d="m 22.144467,36.447303 v 5.832983 H 18.551028 V 21.475801 h 3.593439 v 1.032529 c 0.900756,-0.879534 2.007534,-1.31932 3.320338,-1.31932 4.906242,0 7.35936,2.695975 7.35936,8.088038 0,2.514331 -0.680361,4.450318 -2.041074,5.807887 -1.351132,1.35753 -3.200553,2.036296 -5.548267,2.036296 -1.130736,0 -2.160854,-0.224504 -3.090357,-0.674041 z m 0,-11.214274 v 8.073638 c 0.651613,0.525959 1.413419,0.788712 2.285427,0.788712 1.657773,0 2.846004,-0.392126 3.564692,-1.175887 0.728266,-0.793474 1.092404,-2.041096 1.092404,-3.742828 0,-1.816479 -0.359357,-3.09275 -1.078034,-3.828889 -0.718685,-0.7457 -1.906915,-1.118589 -3.564688,-1.118589 -0.862424,0 -1.629026,0.334489 -2.299801,1.003843 z"
       style="font-style:normal;font-variant:normal;font-weight:bold;font-stretch:normal;font-size:medium;line-height:1.25;font-family:'Trebuchet MS';-inkscape-font-specification:'Trebuchet MS Bold';letter-spacing:0px;word-spacing:0px;fill:#ffffff;fill-opacity:1;stroke:none;stroke-width:0.73508388"
       id="path4507-8"
       inkscape:connector-curvature="0" />
    <path
       d="m 61.171687,22.694774 -1.537995,2.68165 q -1.264887,-1.190249 -3.392206,-1.190249 -2.041073,0 -3.234092,1.362293 -1.178646,1.348044 -1.178646,3.742904 0,4.832769 4.613972,4.832769 1.997953,0 3.521575,-1.319358 l 1.322381,2.825084 q -1.566735,0.975118 -2.745389,1.23326 -1.164272,0.258142 -2.759758,0.258142 -3.564691,0 -5.634512,-2.064945 -2.055447,-2.079383 -2.055447,-5.764914 0,-3.628157 2.256681,-5.86526 2.256676,-2.237102 6.151963,-2.237102 2.687894,0 4.671473,1.505764 z"
       style="font-style:normal;font-variant:normal;font-weight:bold;font-stretch:normal;font-size:medium;line-height:1.25;font-family:'Trebuchet MS';-inkscape-font-specification:'Trebuchet MS Bold';letter-spacing:0px;word-spacing:0px;fill:#ffffff;fill-opacity:1;stroke:none;stroke-width:0.73508388"
       id="path4509-0"
       inkscape:connector-curvature="0" />
  </g>
</svg>
