<?xml version="1.0" encoding="UTF-8" standalone="no"?>
<svg
   xmlns:dc="http://purl.org/dc/elements/1.1/"
   xmlns:cc="http://creativecommons.org/ns#"
   xmlns:rdf="http://www.w3.org/1999/02/22-rdf-syntax-ns#"
   xmlns:svg="http://www.w3.org/2000/svg"
   xmlns="http://www.w3.org/2000/svg"
   xmlns:sodipodi="http://sodipodi.sourceforge.net/DTD/sodipodi-0.dtd"
   xmlns:inkscape="http://www.inkscape.org/namespaces/inkscape"
   height="60"
   viewBox="0 0 284 60"
   width="284"
   version="1.1"
   id="svg18"
   sodipodi:docname="wolf_breakingnews.svg"
   inkscape:version="0.92.1 r15371">
  <sodipodi:namedview
     pagecolor="#ffffff"
     bordercolor="#666666"
     borderopacity="1"
     objecttolerance="10"
     gridtolerance="10"
     guidetolerance="10"
     inkscape:pageopacity="0"
     inkscape:pageshadow="2"
     inkscape:window-width="1920"
     inkscape:window-height="1137"
     id="namedview20"
     showgrid="false"
     inkscape:zoom="1.4142136"
     inkscape:cx="431.36733"
     inkscape:cy="-197.32404"
     inkscape:window-x="-8"
     inkscape:window-y="-8"
     inkscape:window-maximized="1"
     inkscape:current-layer="svg18"
     inkscape:snap-bbox="true"
     showborder="true"
     inkscape:snap-global="true"
     inkscape:pagecheckerboard="true"
     borderlayer="false">
    <inkscape:grid
       id="grid4504"
       type="xygrid" />
  </sodipodi:namedview>
  <metadata
     id="metadata24">
    <rdf:RDF>
      <cc:Work
         rdf:about="">
        <dc:format>image/svg+xml</dc:format>
        <dc:type
           rdf:resource="http://purl.org/dc/dcmitype/StillImage" />
        <dc:title></dc:title>
      </cc:Work>
    </rdf:RDF>
  </metadata>
  <defs
     id="defs22">
    <style
       id="style7276">
      .cls-1 {
        fill: #036;
      }

      .cls-1, .cls-2, .cls-3 {
        fill-rule: evenodd;
      }

      .cls-2 {
        fill: #c20017;
      }

      .cls-3, .cls-4 {
        fill: #fff;
      }
    </style>
    <style
       id="style5604">
      .cls-1 {
        fill: #036;
      }

      .cls-1, .cls-2, .cls-3 {
        fill-rule: evenodd;
      }

      .cls-2 {
        fill: #c20017;
      }

      .cls-3, .cls-4 {
        fill: #fff;
      }
    </style>
    <style
       id="style7276-3">
      .cls-1 {
        fill: #036;
      }

      .cls-1, .cls-2, .cls-3 {
        fill-rule: evenodd;
      }

      .cls-2 {
        fill: #c20017;
      }

      .cls-3, .cls-4 {
        fill: #fff;
      }
    </style>
  </defs>
  <path
     sodipodi:nodetypes="ccccccccccccccccccccccccccccccccccccccscscccccccccccscscscccccc"
     inkscape:connector-curvature="0"
     id="path4686-7-47-0-6"
     d="m 95.196408,21.886507 -15.344733,35.52 h 13.987326 l 1.910986,-5.786031 h 13.584143 l 1.91224,5.786031 h 13.83567 l -15.39528,-35.52 z m 31.857282,0 v 35.52 h 30.94223 V 48.752741 H 139.83275 V 21.886507 Z m 34.428,0 v 35.52 h 37.93525 V 49.35687 h -25.20675 v -5.684914 h 22.89261 v -8.000339 h -22.89261 v -5.835322 h 24.75303 v -7.949788 z m 41.42357,0 v 35.52 h 12.77905 V 44.477045 h 6.74152 l 7.34565,12.929462 h 14.03663 l -8.85473,-14.188282 c 1.81122,-0.452805 2.4649,-0.703888 3.3202,-1.207006 4.47775,-2.465274 4.83055,-7.194435 4.83055,-8.854718 0,-3.219948 -1.1571,-5.333614 -1.81115,-6.390162 -2.86775,-4.528053 -7.44585,-4.879832 -12.22548,-4.879832 z m 41.77998,0 v 7.949788 h 12.62865 v 27.570212 h 12.77906 V 29.836295 h 12.5781 v -7.949788 z m -29.00093,8.04963 h 10.56475 c 1.35841,0 2.76824,0.201987 3.62353,1.459778 0.50312,0.704368 0.55358,1.509263 0.55358,1.811138 0,0.402491 -0.0511,1.207109 -0.70524,2.012095 -0.80498,0.955922 -2.06295,1.257557 -4.47791,1.257557 h -9.55871 z m -113.19154,1.811137 4.17584,12.024524 h -8.251846 z"
     style="font-style:normal;font-variant:normal;font-weight:bold;font-stretch:normal;font-size:medium;line-height:1.25;font-family:'Akzidenz-Grotesk BQ Extended';-inkscape-font-specification:'Akzidenz-Grotesk BQ Extended Bold';letter-spacing:0px;word-spacing:0px;fill:#ffffff;fill-opacity:1;stroke:none;stroke-width:1.25779319" />
  <path
     inkscape:connector-curvature="0"
     style="opacity:1;fill:#ffffff;fill-opacity:1;stroke:none;stroke-width:1.24064255;stroke-linecap:butt;stroke-linejoin:round;stroke-miterlimit:4;stroke-dasharray:none;stroke-opacity:1"
     d="M 12.365234,0 11.228516,5.3261719 C 7.3358532,6.0732785 3.5796787,7.2116127 0,8.7011719 V 9.5703125 C 3.5698306,8.0627284 7.2772706,6.9241779 11.070312,6.1699219 L 0,58.974609 V 60 L 19.134766,5.1386719 c 1.000475,-0.06266 2.00354,-0.097726 3.005859,-0.1074219 1.414966,0.019163 2.828505,0.092034 4.238281,0.2167969 L 0.17578125,60 h 0.3125 L 11.041016,43.335938 v -4.476563 h 2.835937 l 7.167969,-11.292969 -1.5,-6.486328 h 5.52539 0.08984 L 34.466797,6.4238281 c 9.087107,2.0126826 17.56186,6.2229459 24.708984,12.2812499 0.143141,0.122196 0.287635,0.245531 0.429688,0.369141 1.281738,1.112302 2.513763,2.282015 3.695312,3.503906 V 21.5 C 55.604626,13.761462 45.814349,8.1755469 34.873047,5.7050781 L 38.484375,0 H 28.871094 L 26.736328,4.46875 C 25.219972,4.3488973 23.687165,4.2871094 22.140625,4.2871094 c -0.919436,0 -1.8331,0.023717 -2.742187,0.066406 L 20.916016,0 Z m 58.917969,32.916016 c 2.018678,3.323025 3.707794,6.850325 5.044922,10.527343 L 77.0625,43.208984 C 75.748748,39.604195 74.120402,36.15404 72.179688,32.916016 Z"
     id="rect4617-3" />
  <path
     sodipodi:nodetypes="ccccccccccccc"
     inkscape:connector-curvature="0"
     id="path4863-3-8-9-1-4-3-3"
     d="M 27.784844,39.717698 V 57.405833 H 39.971403 V 53.5021 h -7.681206 v -3.183714 h 6.757382 v -3.753682 h -6.757382 v -2.943258 h 7.681206 L 39.16263,39.717698 Z"
     style="font-style:normal;font-variant:normal;font-weight:900;font-stretch:normal;font-size:medium;line-height:0.64999998;font-family:National;-inkscape-font-specification:'National Heavy';letter-spacing:-64.40000153px;word-spacing:0px;fill:#ffffff;fill-opacity:1;stroke:none;stroke-width:0.75082338" />
  <path
     sodipodi:nodetypes="cccccccccccccc"
     d="m 53.049677,39.717549 3.003641,11.697943 2.673085,-11.697943 h 4.152414 L 59.214602,57.405945 H 54.551498 L 51.547863,46.849188 48.544225,57.405945 H 43.700923 L 40.036708,39.717549 h 4.332623 l 2.673076,11.697943 3.003639,-11.697943 z"
     style="font-style:normal;font-variant:normal;font-weight:900;font-stretch:normal;font-size:medium;line-height:0.64999998;font-family:National;-inkscape-font-specification:'National Heavy';letter-spacing:-64.40000153px;word-spacing:0px;fill:#ffffff;fill-opacity:1;stroke:none;stroke-width:0.75082338"
     id="path4865-4-2-9-4-5-2-2-3-7"
     inkscape:connector-curvature="0" />
  <path
     id="path4567-9-26-8-5-0-4-6-1-7"
     d="m 69.161129,39.327269 c -0.39064,0.0024 -0.804705,0.02855 -1.244442,0.08122 -3.141967,0.376406 -4.633141,2.168557 -5.18724,4.551209 -0.408376,3.05073 0.489,3.961602 1.398328,4.779645 1.141514,1.026923 2.748317,1.512108 4.500903,2.008454 1.079985,0.305834 2.332846,0.6235 2.161152,1.830835 -0.07959,0.559585 -0.436214,1.04448 -1.856209,0.965998 -1.964895,0.01477 -2.347691,-1.070765 -2.797159,-2.110083 l -4.195486,0.940821 c 0.553158,2.661176 2.204698,4.389955 4.271486,4.957269 3.111448,0.854091 5.109292,0.347923 6.741375,-0.660624 2.143439,-1.324419 3.258073,-4.065633 2.357787,-6.996111 -0.375181,-1.221205 -1.296088,-2.177382 -2.710696,-2.701375 -0.871763,-0.32285 -1.73075,-0.746848 -3.845431,-1.184475 -0.872253,-0.180486 -1.550689,-0.634837 -1.474814,-1.271366 0.04919,-0.412454 0.348265,-1.31442 1.830567,-1.296551 1.193739,0.01435 1.704374,1.010727 2.238106,1.805195 l 3.915719,-1.245731 C 74.494304,41.527155 72.937553,39.30569 69.161603,39.327272 Z"
     style="fill:#ffffff;fill-rule:evenodd;stroke-width:0.06079307"
     inkscape:connector-curvature="0" />
  <path
     id="path4561-9-2-7-5-4-1-6-3-1"
     d="m 22.423509,39.695626 v 8.953565 L 17.06383,39.717549 h -5.163341 v 17.688396 h 4.53186 l 0.02144,-10.151084 6.061217,10.151084 h 4.352658 V 39.695626 Z"
     style="fill:#ffffff;fill-rule:evenodd;stroke-width:0.0609988"
     inkscape:connector-curvature="0" />
  <path
     inkscape:connector-curvature="0"
     style="fill:#ffffff;stroke-width:0.68879092"
     d="m 45.276215,21.676626 a 8.0795178,8.0795178 0 0 0 -8.310957,7.742322 7.9486474,7.9486474 0 0 0 8.072671,7.817754 h 0.01394 a 7.9486474,7.9486474 0 0 0 8.058745,-7.817754 8.0795178,8.0795178 0 0 0 -7.834387,-7.742322 z m -0.272714,2.906995 a 1.4809005,1.4809005 0 0 1 1.453307,1.425843 v 6.591902 a 1.4189093,1.4189093 0 0 1 -2.830793,0 v -6.591902 a 1.439573,1.439573 0 0 1 1.377486,-1.425843 z"
     id="path5780-0-7" />
  <path
     inkscape:connector-curvature="0"
     style="fill:#ffffff;stroke-width:0.67131472"
     d="m 68.598327,32.110447 h 4.410538 v -4.121872 h -4.410538 v -1.966953 h 5.370511 l -0.295372,-4.135298 h -9.566252 v 15.138148 h 4.491113 z"
     id="path5784-1-5" />
  <path
     inkscape:connector-curvature="0"
     style="fill:#ffffff;stroke-width:0.67131472"
     d="m 58.121375,32.889173 h 5.37047 v 4.135299 H 53.630264 V 21.886324 h 4.491111 z"
     id="path5784-1-4-8"
     sodipodi:nodetypes="ccccccc" />
  <path
     sodipodi:nodetypes="cccccccccccccc"
     d="m 30.620587,21.886324 1.880427,9.01964 2.060204,-9.01964 h 3.474775 l -3.503808,15.138123 h -3.529227 l -1.619654,-7.051266 -1.619658,7.051266 H 24.062109 L 20.558304,21.886324 h 3.647091 l 2.060198,9.01964 1.880422,-9.01964 z"
     style="font-style:normal;font-variant:normal;font-weight:900;font-stretch:normal;font-size:medium;line-height:0.64999998;font-family:National;-inkscape-font-specification:'National Heavy';letter-spacing:-64.40000153px;word-spacing:0px;fill:#ffffff;fill-opacity:1;stroke:none;stroke-width:0.67921788"
     id="path4865-4-2-9-4-5-2-2-3-7-4"
     inkscape:connector-curvature="0" />
</svg>
