<?xml version="1.0" encoding="UTF-8" standalone="no"?>
<svg
   xmlns:dc="http://purl.org/dc/elements/1.1/"
   xmlns:cc="http://creativecommons.org/ns#"
   xmlns:rdf="http://www.w3.org/1999/02/22-rdf-syntax-ns#"
   xmlns:svg="http://www.w3.org/2000/svg"
   xmlns="http://www.w3.org/2000/svg"
   xmlns:sodipodi="http://sodipodi.sourceforge.net/DTD/sodipodi-0.dtd"
   xmlns:inkscape="http://www.inkscape.org/namespaces/inkscape"
   height="60"
   viewBox="0 0 78 60"
   width="78"
   version="1.1"
   id="svg18"
   sodipodi:docname="wolf_ticker.svg"
   inkscape:version="0.92.1 r15371">
  <metadata
     id="metadata24">
    <rdf:RDF>
      <cc:Work
         rdf:about="">
        <dc:format>image/svg+xml</dc:format>
        <dc:type
           rdf:resource="http://purl.org/dc/dcmitype/StillImage" />
        <dc:title />
      </cc:Work>
    </rdf:RDF>
  </metadata>
  <defs
     id="defs22">
    <style
       id="style7276">
      .cls-1 {
        fill: #036;
      }

      .cls-1, .cls-2, .cls-3 {
        fill-rule: evenodd;
      }

      .cls-2 {
        fill: #c20017;
      }

      .cls-3, .cls-4 {
        fill: #fff;
      }
    </style>
  </defs>
  <sodipodi:namedview
     pagecolor="#ffffff"
     bordercolor="#666666"
     borderopacity="1"
     objecttolerance="10"
     gridtolerance="10"
     guidetolerance="10"
     inkscape:pageopacity="0"
     inkscape:pageshadow="2"
     inkscape:window-width="1920"
     inkscape:window-height="1137"
     id="namedview20"
     showgrid="false"
     inkscape:zoom="5.6568542"
     inkscape:cx="79.968707"
     inkscape:cy="18.924551"
     inkscape:window-x="-8"
     inkscape:window-y="-8"
     inkscape:window-maximized="1"
     inkscape:current-layer="svg18"
     inkscape:snap-bbox="true"
     showborder="true"
     inkscape:snap-global="true">
    <inkscape:grid
       type="xygrid"
       id="grid4504" />
  </sodipodi:namedview>
  <rect
     style="opacity:1;fill:#003366;fill-opacity:1;stroke:none;stroke-width:1.08383512;stroke-linecap:butt;stroke-linejoin:round;stroke-miterlimit:4;stroke-dasharray:none;stroke-opacity:1"
     id="rect5312"
     width="78"
     height="59.999985"
     x="1.0223677e-010"
     y="0" />
  <g
     id="g4527"
     transform="translate(-79.378807,-0.12473823)">
    <path
       id="rect4617-3"
       d="M 91.744041,0.12473823 90.607323,5.4509101 c -3.892663,0.7471066 -7.648838,1.8854408 -11.228516,3.375 v 0.8691406 c 3.56983,-1.5075841 7.27727,-2.6461346 11.070312,-3.4003906 L 79.378807,59.099347 v 1.025391 L 98.513573,5.2634101 c 1.000475,-0.06266 2.003537,-0.097726 3.005857,-0.1074219 1.41497,0.019163 2.82851,0.092034 4.23828,0.2167969 L 79.554588,60.124738 h 0.3125 L 90.419823,43.460676 v -4.476563 h 2.835937 l 7.16797,-11.292969 -1.500001,-6.486328 h 5.525391 0.0898 L 113.8456,6.5485663 c 9.08711,2.0126826 17.56186,6.2229457 24.70899,12.2812497 0.14314,0.122196 0.28763,0.245531 0.42969,0.369141 1.28173,1.112302 2.51376,2.282015 3.69531,3.503906 V 21.624738 C 134.98343,13.8862 125.19316,8.3002851 114.25185,5.8298163 l 3.61133,-5.70507807 h -9.61328 l -2.13477,4.46874997 c -1.51635,-0.1198527 -3.04916,-0.1816406 -4.5957,-0.1816406 -0.91943,0 -1.833098,0.023717 -2.742185,0.066406 L 100.29482,0.12473823 Z M 150.66201,33.040754 c 2.01868,3.323025 3.70779,6.850325 5.04492,10.527343 l 0.73438,-0.234375 c -1.31376,-3.604789 -2.9421,-7.054944 -4.88282,-10.292968 z"
       style="opacity:1;fill:#ffffff;fill-opacity:1;stroke:none;stroke-width:1.24064255;stroke-linecap:butt;stroke-linejoin:round;stroke-miterlimit:4;stroke-dasharray:none;stroke-opacity:1"
       inkscape:connector-curvature="0" />
    <path
       style="font-style:normal;font-variant:normal;font-weight:900;font-stretch:normal;font-size:medium;line-height:0.64999998;font-family:National;-inkscape-font-specification:'National Heavy';letter-spacing:-64.40000153px;word-spacing:0px;fill:#ffffff;fill-opacity:1;stroke:none;stroke-width:0.75082338"
       d="m 107.16365,39.842436 v 17.688135 h 12.18656 V 53.626838 H 111.669 v -3.183714 h 6.75739 V 46.689442 H 111.669 v -2.943258 h 7.68121 l -0.80877,-3.903748 z"
       id="path4863-3-8-9-1-4-3-3"
       inkscape:connector-curvature="0"
       sodipodi:nodetypes="ccccccccccccc" />
    <path
       inkscape:connector-curvature="0"
       id="path4865-4-2-9-4-5-2-2-3-7"
       style="font-style:normal;font-variant:normal;font-weight:900;font-stretch:normal;font-size:medium;line-height:0.64999998;font-family:National;-inkscape-font-specification:'National Heavy';letter-spacing:-64.40000153px;word-spacing:0px;fill:#ffffff;fill-opacity:1;stroke:none;stroke-width:0.75082338"
       d="m 132.42848,39.842287 3.00364,11.697943 2.67309,-11.697943 h 4.15241 l -3.66421,17.688396 h -4.66311 l -3.00363,-10.556757 -3.00364,10.556757 h -4.8433 l -3.66422,-17.688396 h 4.33263 l 2.67307,11.697943 3.00364,-11.697943 z"
       sodipodi:nodetypes="cccccccccccccc" />
    <path
       inkscape:connector-curvature="0"
       style="fill:#ffffff;fill-rule:evenodd;stroke-width:0.06079307"
       d="m 148.53994,39.452007 c -0.39064,0.0024 -0.80471,0.02855 -1.24445,0.08122 -3.14196,0.376406 -4.63314,2.168557 -5.18724,4.551209 -0.40837,3.05073 0.489,3.961602 1.39833,4.779645 1.14152,1.026923 2.74832,1.512108 4.5009,2.008454 1.07999,0.305834 2.33285,0.6235 2.16116,1.830835 -0.0796,0.559585 -0.43622,1.04448 -1.85621,0.965998 -1.9649,0.01477 -2.34769,-1.070765 -2.79716,-2.110083 l -4.19549,0.940821 c 0.55316,2.661176 2.2047,4.389955 4.27149,4.957269 3.11145,0.854091 5.10929,0.347923 6.74137,-0.660624 2.14344,-1.324419 3.25808,-4.065633 2.35779,-6.996111 -0.37518,-1.221205 -1.29609,-2.177382 -2.7107,-2.701375 -0.87176,-0.32285 -1.73075,-0.746848 -3.84543,-1.184475 -0.87225,-0.180486 -1.55069,-0.634837 -1.47481,-1.271366 0.0492,-0.412454 0.34826,-1.31442 1.83057,-1.296551 1.19374,0.01435 1.70437,1.010727 2.2381,1.805195 l 3.91572,-1.245731 c -0.77077,-2.254444 -2.32752,-4.475909 -6.10347,-4.454327 z"
       id="path4567-9-26-8-5-0-4-6-1-7" />
    <path
       inkscape:connector-curvature="0"
       style="fill:#ffffff;fill-rule:evenodd;stroke-width:0.0609988"
       d="m 101.80232,39.820364 v 8.953565 l -5.359683,-8.931642 h -5.163341 v 17.688396 h 4.53186 l 0.02144,-10.151084 6.061214,10.151084 h 4.35266 V 39.820364 Z"
       id="path4561-9-2-7-5-4-1-6-3-1" />
    <path
       id="path5780-0-7"
       d="m 124.65502,21.801364 a 8.0795178,8.0795178 0 0 0 -8.31096,7.742322 7.9486474,7.9486474 0 0 0 8.07268,7.817754 h 0.0139 a 7.9486474,7.9486474 0 0 0 8.05874,-7.817754 8.0795178,8.0795178 0 0 0 -7.83439,-7.742322 z m -0.27271,2.906995 a 1.4809005,1.4809005 0 0 1 1.4533,1.425843 v 6.591902 a 1.4189093,1.4189093 0 0 1 -2.83079,0 v -6.591902 a 1.439573,1.439573 0 0 1 1.37749,-1.425843 z"
       style="fill:#ffffff;stroke-width:0.68879092"
       inkscape:connector-curvature="0" />
    <path
       id="path5784-1-5"
       d="m 147.97713,32.235185 h 4.41054 v -4.121872 h -4.41054 V 26.14636 h 5.37051 l -0.29537,-4.135298 h -9.56625 V 37.14921 h 4.49111 z"
       style="fill:#ffffff;stroke-width:0.67131472"
       inkscape:connector-curvature="0" />
    <path
       sodipodi:nodetypes="ccccccc"
       id="path5784-1-4-8"
       d="m 137.50018,33.013911 h 5.37047 v 4.135299 h -9.86158 V 22.011062 h 4.49111 z"
       style="fill:#ffffff;stroke-width:0.67131472"
       inkscape:connector-curvature="0" />
    <path
       inkscape:connector-curvature="0"
       id="path4865-4-2-9-4-5-2-2-3-7-4"
       style="font-style:normal;font-variant:normal;font-weight:900;font-stretch:normal;font-size:medium;line-height:0.64999998;font-family:National;-inkscape-font-specification:'National Heavy';letter-spacing:-64.40000153px;word-spacing:0px;fill:#ffffff;fill-opacity:1;stroke:none;stroke-width:0.67921788"
       d="m 109.99939,22.011062 1.88043,9.01964 2.0602,-9.01964 h 3.47478 l -3.50381,15.138123 h -3.52923 l -1.61965,-7.051266 -1.61966,7.051266 h -3.70153 L 99.937111,22.011062 h 3.647089 l 2.0602,9.01964 1.88042,-9.01964 z"
       sodipodi:nodetypes="cccccccccccccc" />
  </g>
</svg>
