<?xml version="1.0" encoding="UTF-8" standalone="no"?>
<svg
   xmlns:dc="http://purl.org/dc/elements/1.1/"
   xmlns:cc="http://creativecommons.org/ns#"
   xmlns:rdf="http://www.w3.org/1999/02/22-rdf-syntax-ns#"
   xmlns:svg="http://www.w3.org/2000/svg"
   xmlns="http://www.w3.org/2000/svg"
   xmlns:sodipodi="http://sodipodi.sourceforge.net/DTD/sodipodi-0.dtd"
   xmlns:inkscape="http://www.inkscape.org/namespaces/inkscape"
   height="298"
   viewBox="0 0 325 298"
   width="325"
   version="1.1"
   id="svg18"
   sodipodi:docname="wolf_logo_stacked.svg"
   inkscape:version="0.92.1 r15371">
  <metadata
     id="metadata24">
    <rdf:RDF>
      <cc:Work
         rdf:about="">
        <dc:format>image/svg+xml</dc:format>
        <dc:type
           rdf:resource="http://purl.org/dc/dcmitype/StillImage" />
        <dc:title />
      </cc:Work>
    </rdf:RDF>
  </metadata>
  <defs
     id="defs22">
    <style
       id="style7276">
      .cls-1 {
        fill: #036;
      }

      .cls-1, .cls-2, .cls-3 {
        fill-rule: evenodd;
      }

      .cls-2 {
        fill: #c20017;
      }

      .cls-3, .cls-4 {
        fill: #fff;
      }
    </style>
  </defs>
  <sodipodi:namedview
     pagecolor="#ffffff"
     bordercolor="#666666"
     borderopacity="1"
     objecttolerance="10"
     gridtolerance="10"
     guidetolerance="10"
     inkscape:pageopacity="0"
     inkscape:pageshadow="2"
     inkscape:window-width="1920"
     inkscape:window-height="1137"
     id="namedview20"
     showgrid="false"
     inkscape:zoom="1.4142136"
     inkscape:cx="349.18967"
     inkscape:cy="90.622757"
     inkscape:window-x="-8"
     inkscape:window-y="-8"
     inkscape:window-maximized="1"
     inkscape:current-layer="g6055"
     inkscape:snap-bbox="true"
     showborder="true"
     inkscape:snap-global="true">
    <inkscape:grid
       type="xygrid"
       id="grid4504" />
  </sodipodi:namedview>
  <g
     transform="translate(-289.21738,147.31013)"
     id="g6055">
    <rect
       y="-147.31013"
       x="289.21738"
       height="298"
       width="325"
       id="rect4617-3"
       style="opacity:1;fill:#ffffff;fill-opacity:1;stroke:none;stroke-width:5.6583147;stroke-linecap:butt;stroke-linejoin:round;stroke-miterlimit:4;stroke-dasharray:none;stroke-opacity:1" />
    <rect
       height="38.000008"
       width="313"
       y="106.68986"
       x="295.21738"
       id="rect6-5-5-4-5"
       style="fill:#c20017;fill-opacity:1;stroke-width:0.24987273" />
    <path
       d="m 303.08069,112.48758 h 7.12166 v 4.84693 h -7.12166 z m 0,7.06917 h 7.12166 v 18.58282 h -7.12166 z"
       style="font-style:normal;font-variant:normal;font-weight:900;font-stretch:normal;font-size:medium;line-height:1.25;font-family:Arial;-inkscape-font-specification:'Arial Heavy';letter-spacing:4.1500001px;word-spacing:0px;fill:#ffffff;fill-opacity:1;stroke:none;stroke-width:0.89589441"
       id="path8527-5"
       inkscape:connector-curvature="0" />
    <path
       d="m 318.93682,119.55675 h 6.63171 v 3.02715 q 1.48733,-1.85479 3.00965,-2.64219 1.52232,-0.80491 3.70957,-0.80491 2.95715,0 4.61945,1.76729 1.6798,1.7498 1.6798,5.42437 v 11.81111 h -7.15665 v -10.2188 q 0,-1.7498 -0.64743,-2.46721 -0.64742,-0.73491 -1.81978,-0.73491 -1.29485,0 -2.09976,0.97988 -0.8049,0.97989 -0.8049,3.51709 v 8.92395 h -7.12166 z"
       style="font-style:normal;font-variant:normal;font-weight:900;font-stretch:normal;font-size:medium;line-height:1.25;font-family:Arial;-inkscape-font-specification:'Arial Heavy';letter-spacing:4.1500001px;word-spacing:0px;fill:#ffffff;fill-opacity:1;stroke:none;stroke-width:0.89589441"
       id="path8529-5"
       inkscape:connector-curvature="0" />
    <path
       d="m 355.61549,112.48758 v 7.06917 h 3.91954 v 5.19689 h -3.91954 v 6.59673 q 0,1.18986 0.22748,1.57481 0.34995,0.59493 1.22485,0.59493 0.78741,0 2.20474,-0.45495 l 0.52494,4.91693 q -2.64219,0.57743 -4.93442,0.57743 -2.65969,0 -3.91954,-0.68242 -1.25985,-0.68242 -1.87228,-2.06476 -0.59493,-1.39983 -0.59493,-4.51447 v -6.54423 h -2.62469 v -5.19689 h 2.62469 v -3.4121 z"
       style="font-style:normal;font-variant:normal;font-weight:900;font-stretch:normal;font-size:medium;line-height:1.25;font-family:Arial;-inkscape-font-specification:'Arial Heavy';letter-spacing:4.1500001px;word-spacing:0px;fill:#ffffff;fill-opacity:1;stroke:none;stroke-width:0.89589441"
       id="path8531-9"
       inkscape:connector-curvature="0" />
    <path
       d="m 387.69221,130.61545 h -14.27832 q 0.19247,1.7148 0.92739,2.5547 1.03238,1.20736 2.69468,1.20736 1.04988,0 1.99477,-0.52494 0.57743,-0.33246 1.24235,-1.17236 l 7.01667,0.64742 q -1.60981,2.79967 -3.88454,4.02453 -2.27473,1.20736 -6.52673,1.20736 -3.69207,0 -5.80932,-1.03238 -2.11725,-1.04988 -3.51708,-3.30711 -1.38234,-2.27473 -1.38234,-5.33687 0,-4.35699 2.78217,-7.05167 2.79967,-2.69469 7.71659,-2.69469 3.98953,0 6.29926,1.20736 2.30973,1.20736 3.51709,3.49959 1.20736,2.29223 1.20736,5.9668 z m -7.24415,-3.4121 q -0.20998,-2.06475 -1.11987,-2.95715 -0.89239,-0.89239 -2.36222,-0.89239 -1.6973,0 -2.71218,1.34734 -0.64743,0.8399 -0.82241,2.5022 z"
       style="font-style:normal;font-variant:normal;font-weight:900;font-stretch:normal;font-size:medium;line-height:1.25;font-family:Arial;-inkscape-font-specification:'Arial Heavy';letter-spacing:4.1500001px;word-spacing:0px;fill:#ffffff;fill-opacity:1;stroke:none;stroke-width:0.89589441"
       id="path8533-0"
       inkscape:connector-curvature="0" />
    <path
       d="m 395.21931,119.55675 h 6.66671 v 3.04464 q 0.96239,-1.97726 1.97727,-2.71218 1.03238,-0.75241 2.5372,-0.75241 1.57482,0 3.4471,0.97989 l -2.20474,5.0744 q -1.25986,-0.52494 -1.99477,-0.52494 -1.39984,0 -2.16974,1.15487 -1.10238,1.6273 -1.10238,6.08928 v 6.22927 h -7.15665 z"
       style="font-style:normal;font-variant:normal;font-weight:900;font-stretch:normal;font-size:medium;line-height:1.25;font-family:Arial;-inkscape-font-specification:'Arial Heavy';letter-spacing:4.1500001px;word-spacing:0px;fill:#ffffff;fill-opacity:1;stroke:none;stroke-width:0.89589441"
       id="path8535-5"
       inkscape:connector-curvature="0" />
    <path
       d="m 417.00723,119.55675 h 6.63172 v 3.02715 q 1.48733,-1.85479 3.00965,-2.64219 1.52232,-0.80491 3.70956,-0.80491 2.95715,0 4.61946,1.76729 1.6798,1.7498 1.6798,5.42437 v 11.81111 h -7.15666 v -10.2188 q 0,-1.7498 -0.64742,-2.46721 -0.64742,-0.73491 -1.81979,-0.73491 -1.29484,0 -2.09975,0.97988 -0.80491,0.97989 -0.80491,3.51709 v 8.92395 h -7.12166 z"
       style="font-style:normal;font-variant:normal;font-weight:900;font-stretch:normal;font-size:medium;line-height:1.25;font-family:Arial;-inkscape-font-specification:'Arial Heavy';letter-spacing:4.1500001px;word-spacing:0px;fill:#ffffff;fill-opacity:1;stroke:none;stroke-width:0.89589441"
       id="path8537-7"
       inkscape:connector-curvature="0" />
    <path
       d="m 451.58616,125.57604 -6.8067,-0.71741 q 0.38495,-1.78479 1.10237,-2.79967 0.73491,-1.03238 2.09975,-1.78479 0.97989,-0.54244 2.69468,-0.8399 1.7148,-0.29747 3.70957,-0.29747 3.20212,0 5.14439,0.36746 1.94227,0.34996 3.23712,1.48732 0.9099,0.78741 1.43483,2.23974 0.52494,1.43483 0.52494,2.74718 v 8.20653 q 0,1.31235 0.15748,2.06476 0.17498,0.73491 0.73492,1.88978 h -6.68422 q -0.40245,-0.71742 -0.52494,-1.08488 -0.12248,-0.38495 -0.24497,-1.18986 -1.39983,1.34735 -2.78217,1.92478 -1.88978,0.76991 -4.39198,0.76991 -3.32461,0 -5.05691,-1.53982 -1.7148,-1.53982 -1.7148,-3.79705 0,-2.11726 1.24236,-3.4821 1.24235,-1.36483 4.58446,-2.02976 4.00703,-0.8049 5.19689,-1.11986 1.18986,-0.33247 2.5197,-0.8574 0,-1.31235 -0.54244,-1.83729 -0.54243,-0.52494 -1.90727,-0.52494 -1.74979,0 -2.62469,0.55994 -0.68242,0.43745 -1.10237,1.6448 z m 6.17677,3.74456 q -1.46983,0.52494 -3.06214,0.9274 -2.16974,0.57743 -2.74718,1.13736 -0.59493,0.57743 -0.59493,1.31235 0,0.8399 0.57744,1.38233 0.59493,0.52494 1.73229,0.52494 1.18986,0 2.20474,-0.57743 1.03238,-0.57743 1.45233,-1.39983 0.43745,-0.83991 0.43745,-2.16975 z"
       style="font-style:normal;font-variant:normal;font-weight:900;font-stretch:normal;font-size:medium;line-height:1.25;font-family:Arial;-inkscape-font-specification:'Arial Heavy';letter-spacing:4.1500001px;word-spacing:0px;fill:#ffffff;fill-opacity:1;stroke:none;stroke-width:0.89589441"
       id="path8539-2"
       inkscape:connector-curvature="0" />
    <path
       d="m 481.14317,112.48758 v 7.06917 h 3.91954 v 5.19689 h -3.91954 v 6.59673 q 0,1.18986 0.22747,1.57481 0.34996,0.59493 1.22486,0.59493 0.78741,0 2.20474,-0.45495 l 0.52494,4.91693 q -2.64219,0.57743 -4.93442,0.57743 -2.65969,0 -3.91954,-0.68242 -1.25985,-0.68242 -1.87228,-2.06476 -0.59493,-1.39983 -0.59493,-4.51447 v -6.54423 h -2.62469 v -5.19689 h 2.62469 v -3.4121 z"
       style="font-style:normal;font-variant:normal;font-weight:900;font-stretch:normal;font-size:medium;line-height:1.25;font-family:Arial;-inkscape-font-specification:'Arial Heavy';letter-spacing:4.1500001px;word-spacing:0px;fill:#ffffff;fill-opacity:1;stroke:none;stroke-width:0.89589441"
       id="path8541-1"
       inkscape:connector-curvature="0" />
    <path
       d="m 492.85228,112.48758 h 7.12166 v 4.84693 h -7.12166 z m 0,7.06917 h 7.12166 v 18.58282 h -7.12166 z"
       style="font-style:normal;font-variant:normal;font-weight:900;font-stretch:normal;font-size:medium;line-height:1.25;font-family:Arial;-inkscape-font-specification:'Arial Heavy';letter-spacing:4.1500001px;word-spacing:0px;fill:#ffffff;fill-opacity:1;stroke:none;stroke-width:0.89589441"
       id="path8543-6"
       inkscape:connector-curvature="0" />
    <path
       d="m 507.83351,128.90065 q 0,-4.252 2.86966,-6.99917 2.86966,-2.76468 7.75159,-2.76468 5.58184,0 8.43401,3.23712 2.29223,2.60719 2.29223,6.42175 0,4.28699 -2.85217,7.03417 -2.83466,2.72968 -7.85657,2.72968 -4.47948,0 -7.24415,-2.27473 -3.3946,-2.81717 -3.3946,-7.38414 z m 7.13916,-0.0175 q 0,2.4847 0.99738,3.67456 1.01488,1.18986 2.5372,1.18986 1.53982,0 2.51971,-1.17236 0.99738,-1.17236 0.99738,-3.76206 0,-2.41471 -0.99738,-3.58707 -0.99739,-1.18986 -2.46721,-1.18986 -1.55732,0 -2.5722,1.20735 -1.01488,1.18986 -1.01488,3.63958 z"
       style="font-style:normal;font-variant:normal;font-weight:900;font-stretch:normal;font-size:medium;line-height:1.25;font-family:Arial;-inkscape-font-specification:'Arial Heavy';letter-spacing:4.1500001px;word-spacing:0px;fill:#ffffff;fill-opacity:1;stroke:none;stroke-width:0.89589441"
       id="path8545-8"
       inkscape:connector-curvature="0" />
    <path
       d="m 536.79559,119.55675 h 6.63172 v 3.02715 q 1.48733,-1.85479 3.00965,-2.64219 1.52232,-0.80491 3.70956,-0.80491 2.95715,0 4.61946,1.76729 1.6798,1.7498 1.6798,5.42437 v 11.81111 h -7.15666 v -10.2188 q 0,-1.7498 -0.64742,-2.46721 -0.64742,-0.73491 -1.81979,-0.73491 -1.29484,0 -2.09975,0.97988 -0.8049,0.97989 -0.8049,3.51709 v 8.92395 h -7.12167 z"
       style="font-style:normal;font-variant:normal;font-weight:900;font-stretch:normal;font-size:medium;line-height:1.25;font-family:Arial;-inkscape-font-specification:'Arial Heavy';letter-spacing:4.1500001px;word-spacing:0px;fill:#ffffff;fill-opacity:1;stroke:none;stroke-width:0.89589441"
       id="path8547-4"
       inkscape:connector-curvature="0" />
    <path
       d="m 571.3745,125.57604 -6.8067,-0.71741 q 0.38496,-1.78479 1.10237,-2.79967 0.73492,-1.03238 2.09976,-1.78479 0.97988,-0.54244 2.69468,-0.8399 1.7148,-0.29747 3.70956,-0.29747 3.20213,0 5.1444,0.36746 1.94227,0.34996 3.23712,1.48732 0.90989,0.78741 1.43483,2.23974 0.52494,1.43483 0.52494,2.74718 v 8.20653 q 0,1.31235 0.15748,2.06476 0.17498,0.73491 0.73491,1.88978 h -6.68421 q -0.40245,-0.71742 -0.52494,-1.08488 -0.12249,-0.38495 -0.24497,-1.18986 -1.39984,1.34735 -2.78217,1.92478 -1.88978,0.76991 -4.39199,0.76991 -3.32461,0 -5.0569,-1.53982 -1.7148,-1.53982 -1.7148,-3.79705 0,-2.11726 1.24235,-3.4821 1.24236,-1.36483 4.58446,-2.02976 4.00703,-0.8049 5.19689,-1.11986 1.18986,-0.33247 2.51971,-0.8574 0,-1.31235 -0.54244,-1.83729 -0.54244,-0.52494 -1.90728,-0.52494 -1.74979,0 -2.62469,0.55994 -0.68242,0.43745 -1.10237,1.6448 z m 6.17678,3.74456 q -1.46983,0.52494 -3.06214,0.9274 -2.16975,0.57743 -2.74718,1.13736 -0.59493,0.57743 -0.59493,1.31235 0,0.8399 0.57743,1.38233 0.59493,0.52494 1.7323,0.52494 1.18986,0 2.20474,-0.57743 1.03238,-0.57743 1.45233,-1.39983 0.43745,-0.83991 0.43745,-2.16975 z"
       style="font-style:normal;font-variant:normal;font-weight:900;font-stretch:normal;font-size:medium;line-height:1.25;font-family:Arial;-inkscape-font-specification:'Arial Heavy';letter-spacing:4.1500001px;word-spacing:0px;fill:#ffffff;fill-opacity:1;stroke:none;stroke-width:0.89589441"
       id="path8549-3"
       inkscape:connector-curvature="0" />
    <path
       d="m 593.21493,112.48758 h 7.13916 v 25.65199 h -7.13916 z"
       style="font-style:normal;font-variant:normal;font-weight:900;font-stretch:normal;font-size:medium;line-height:1.25;font-family:Arial;-inkscape-font-specification:'Arial Heavy';letter-spacing:4.1500001px;word-spacing:0px;fill:#ffffff;fill-opacity:1;stroke:none;stroke-width:0.89589441"
       id="path8551-0"
       inkscape:connector-curvature="0" />
    <path
       style="fill:#003366;fill-opacity:1;stroke:none;stroke-width:0"
       d="M 6,6 V 41.091797 C 20.43825,35.083817 35.588422,30.491886 51.289062,27.478516 L 55.876953,6 Z m 84.363281,0 -6.121093,17.560547 c 3.66671,-0.17217 7.352096,-0.269531 11.060546,-0.269531 6.237796,0 12.417146,0.248981 18.533206,0.732422 L 122.45703,6 Z m 70.869139,0 -14.57031,23.009766 c 44.13057,9.96437 83.62051,32.492514 114.66211,63.705078 v 4.351562 c -4.76565,-4.92836 -9.73845,-9.644507 -14.9082,-14.130859 -0.57295,-0.498553 -1.15118,-0.989528 -1.72852,-1.482422 C 215.86034,57.017607 181.6714,40.020284 145.01953,31.902344 l -37.5293,59.123047 h -0.36718 -22.285159 l 6.044921,26.166019 -28.908203,45.54297 H 50.539062 v 18.05664 L 7.9765625,248 H 319 V 6 Z M 95.302734,26.291016 c -4.04275,0.0389 -8.08383,0.18476 -12.11914,0.4375 L 6,248 H 6.71875 L 112.39844,27.162109 c -5.68618,-0.50322 -11.3886,-0.793773 -17.095706,-0.871093 z M 50.658203,30.888672 C 35.359373,33.930882 20.39853,38.526742 6,44.607422 V 243.86719 Z M 293.51367,138.76367 h 3.62695 c 7.83023,13.06451 14.47073,26.94659 19.76954,41.49219 l -3.03711,0.96484 c -5.39464,-14.83148 -12.21659,-29.05288 -20.35938,-42.45703 z"
       transform="translate(289.21738,-147.31013)"
       id="rect2-2-07-3-4-8-8-0-8-1"
       inkscape:connector-curvature="0"
       sodipodi:nodetypes="cccccccscccccccccccccccccccccccccccccccccccc" />
    <path
       style="font-style:normal;font-variant:normal;font-weight:900;font-stretch:normal;font-size:medium;line-height:0.64999998;font-family:National;-inkscape-font-specification:'National Heavy';letter-spacing:-64.40000153px;word-spacing:0px;fill:#ffffff;fill-opacity:1;stroke:none;stroke-width:3.02836561"
       d="m 407.28832,18.88624 v 71.3432 H 456.4415 V 74.48415 H 425.46018 V 61.64298 h 27.25518 V 46.50291 H 425.46018 V 34.63159 h 30.98132 l -3.2621,-15.74535 z"
       id="path4863-3-8-9-1-4-3-3"
       inkscape:connector-curvature="0"
       sodipodi:nodetypes="ccccccccccccc" />
    <path
       inkscape:connector-curvature="0"
       id="path4865-4-2-9-4-5-2-2-3-7"
       style="font-style:normal;font-variant:normal;font-weight:900;font-stretch:normal;font-size:medium;line-height:0.64999998;font-family:National;-inkscape-font-specification:'National Heavy';letter-spacing:-64.40000153px;word-spacing:0px;fill:#ffffff;fill-opacity:1;stroke:none;stroke-width:3.02836561"
       d="m 509.19132,18.88564 12.11486,47.1824 10.7816,-47.1824 H 548.8361 L 534.05688,90.22989 H 515.24875 L 503.13391,47.65034 491.01906,90.22989 H 471.48412 L 456.7049,18.88564 h 17.47517 l 10.78157,47.1824 12.11485,-47.1824 z"
       sodipodi:nodetypes="cccccccccccccc" />
    <path
       inkscape:connector-curvature="0"
       style="fill:#ffffff;fill-rule:evenodd;stroke-width:0.24520232"
       d="m 574.17513,17.31149 c -1.5756,0.01 -3.24569,0.11515 -5.01932,0.32757 -12.67279,1.51819 -18.68728,8.74664 -20.92218,18.35681 -1.64714,12.30479 1.97233,15.9787 5.64001,19.27819 4.60417,4.14198 11.08504,6.09892 18.15391,8.10088 4.356,1.23355 9.40928,2.51482 8.71677,7.38448 -0.32099,2.25702 -1.75942,4.2128 -7.48682,3.89625 -7.92519,0.0596 -9.46916,-4.31882 -11.28204,-8.5108 l -16.92204,3.7947 c 2.2311,10.73357 8.89241,17.70642 17.22858,19.99462 12.54969,3.44488 20.60778,1.40331 27.19061,-2.66456 8.64533,-5.3419 13.14109,-16.39829 9.50988,-28.21806 -1.51325,-4.9256 -5.22763,-8.78224 -10.9333,-10.89571 -3.51616,-1.30218 -6.98079,-3.01233 -15.51013,-4.77745 -3.51814,-0.72797 -6.25454,-2.56055 -5.94851,-5.12792 0.19839,-1.66359 1.40469,-5.30157 7.3834,-5.2295 4.81482,0.0579 6.87441,4.07666 9.02716,7.28106 l 15.79363,-5.02452 c -3.10882,-9.09305 -9.38781,-18.05309 -24.6177,-17.96604 z"
       id="path4567-9-26-8-5-0-4-6-1-7" />
    <path
       inkscape:connector-curvature="0"
       style="fill:#ffffff;fill-rule:evenodd;stroke-width:0.2460321"
       d="M 385.66395,18.79722 V 54.91046 L 364.04626,18.88564 h -20.82578 v 71.34425 h 18.27877 l 0.0865,-40.94331 24.44727,40.94331 H 403.589 V 18.79722 Z"
       id="path4561-9-2-7-5-4-1-6-3-1" />
    <path
       id="path5780-0-7"
       d="m 477.83789,-53.880486 a 32.587869,32.587869 0 0 0 -33.52135,31.227828 32.060017,32.060017 0 0 0 32.56025,31.5320683 h 0.0562 a 32.060017,32.060017 0 0 0 32.50408,-31.5320683 32.587869,32.587869 0 0 0 -31.59916,-31.227828 z m -1.09996,11.725055 a 5.9730536,5.9730536 0 0 1 5.86176,5.750985 v 26.58773 a 5.7230188,5.7230188 0 0 1 -11.4177,0 v -26.58773 a 5.8063636,5.8063636 0 0 1 5.55594,-5.750985 z"
       style="fill:#ffffff;stroke-width:2.77816439"
       inkscape:connector-curvature="0" />
    <path
       id="path5784-1-5"
       d="m 571.90513,-11.796787 h 17.78943 v -16.62513 h -17.78943 v -7.933494 h 21.66138 l -1.19135,-16.679282 H 553.79071 V 8.0234016 h 18.11442 z"
       style="fill:#ffffff;stroke-width:2.70767593"
       inkscape:connector-curvature="0" />
    <path
       sodipodi:nodetypes="ccccccc"
       id="path5784-1-4-8"
       d="m 529.64747,-8.6558812 h 21.66121 V 8.0234016 H 511.53305 V -53.034693 h 18.11442 z"
       style="fill:#ffffff;stroke-width:2.70767593"
       inkscape:connector-curvature="0" />
    <path
       inkscape:connector-curvature="0"
       id="path4865-4-2-9-4-5-2-2-3-7-4"
       style="font-style:normal;font-variant:normal;font-weight:900;font-stretch:normal;font-size:medium;line-height:0.64999998;font-family:National;-inkscape-font-specification:'National Heavy';letter-spacing:-64.40000153px;word-spacing:0px;fill:#ffffff;fill-opacity:1;stroke:none;stroke-width:2.73955226"
       d="m 418.72599,-53.034693 7.5845,36.37975 8.30961,-36.37975 h 14.01513 L 434.503,8.0233066 h -14.23476 l -6.5327,-28.4405276 -6.53272,28.4405276 H 392.27307 L 378.14085,-53.034693 H 392.851 l 8.30959,36.37975 7.58448,-36.37975 z"
       sodipodi:nodetypes="cccccccccccccc" />
  </g>
</svg>
